<svg xmlns="http://www.w3.org/2000/svg" width="900" height="900" viewBox="0 0 900 900" font-family="Helvetica Neue, Arial, sans-serif">
<rect width="900" height="900" fill="#eef1f0"/>
<defs>
<linearGradient id="g0" x1="0" y1="0" x2="1" y2="0"><stop offset="0" stop-color="#b5dab6"/><stop offset="1" stop-color="#f27d7a"/></linearGradient>
<linearGradient id="g1" x1="0" y1="0" x2="1" y2="0"><stop offset="0" stop-color="#d9e0cc"/><stop offset="1" stop-color="#e9c8bd"/></linearGradient>
<linearGradient id="g2" x1="0" y1="0" x2="1" y2="0"><stop offset="0" stop-color="#f4706f"/><stop offset="1" stop-color="#e6dfd1"/></linearGradient>
<linearGradient id="g3" x1="0" y1="0" x2="1" y2="0"><stop offset="0" stop-color="#eabeb4"/><stop offset="1" stop-color="#e6e1d3"/></linearGradient>
<linearGradient id="g4" x1="0" y1="0" x2="1" y2="0"><stop offset="0" stop-color="#95d4a3"/><stop offset="1" stop-color="#eda69e"/></linearGradient>
<linearGradient id="g5" x1="0" y1="0" x2="1" y2="0"><stop offset="0" stop-color="#e8d2c6"/><stop offset="1" stop-color="#ef9a94"/></linearGradient>
<linearGradient id="g6" x1="0" y1="0" x2="1" y2="0"><stop offset="0" stop-color="#ec4545"/><stop offset="1" stop-color="#f15656"/></linearGradient>
<linearGradient id="g7" x1="0" y1="0" x2="1" y2="0"><stop offset="0" stop-color="#24a154"/><stop offset="1" stop-color="#e7d7cb"/></linearGradient>
<linearGradient id="g8" x1="0" y1="0" x2="1" y2="0"><stop offset="0" stop-color="#e6e2d4"/><stop offset="1" stop-color="#b9dab8"/></linearGradient>
<linearGradient id="g9" x1="0" y1="0" x2="1" y2="0"><stop offset="0" stop-color="#c9ddc3"/><stop offset="1" stop-color="#b1d9b4"/></linearGradient>
<linearGradient id="g10" x1="0" y1="0" x2="1" y2="0"><stop offset="0" stop-color="#56ca7c"/><stop offset="1" stop-color="#7cd094"/></linearGradient>
<linearGradient id="g11" x1="0" y1="0" x2="1" y2="0"><stop offset="0" stop-color="#3eb86a"/><stop offset="1" stop-color="#62cc84"/></linearGradient>
<linearGradient id="g12" x1="0" y1="0" x2="1" y2="0"><stop offset="0" stop-color="#6ece8b"/><stop offset="1" stop-color="#e6ded1"/></linearGradient>
<linearGradient id="g13" x1="0" y1="0" x2="1" y2="0"><stop offset="0" stop-color="#eda79f"/><stop offset="1" stop-color="#f18783"/></linearGradient>
<linearGradient id="g14" x1="0" y1="0" x2="1" y2="0"><stop offset="0" stop-color="#e6e2d4"/><stop offset="1" stop-color="#e6e2d4"/></linearGradient>
<linearGradient id="g15" x1="0" y1="0" x2="1" y2="0"><stop offset="0" stop-color="#f18582"/><stop offset="1" stop-color="#ed4949"/></linearGradient>
<linearGradient id="g16" x1="0" y1="0" x2="1" y2="0"><stop offset="0" stop-color="#f08b86"/><stop offset="1" stop-color="#dbe0ce"/></linearGradient>
<linearGradient id="g17" x1="0" y1="0" x2="1" y2="0"><stop offset="0" stop-color="#e3e1d2"/><stop offset="1" stop-color="#e8d0c4"/></linearGradient>
<linearGradient id="g18" x1="0" y1="0" x2="1" y2="0"><stop offset="0" stop-color="#f08b87"/><stop offset="1" stop-color="#e73535"/></linearGradient>
<linearGradient id="g19" x1="0" y1="0" x2="1" y2="0"><stop offset="0" stop-color="#f46b6a"/><stop offset="1" stop-color="#f05555"/></linearGradient>
<linearGradient id="g20" x1="0" y1="0" x2="1" y2="0"><stop offset="0" stop-color="#a1d6aa"/><stop offset="1" stop-color="#6bcd89"/></linearGradient>
<linearGradient id="g21" x1="0" y1="0" x2="1" y2="0"><stop offset="0" stop-color="#f35d5d"/><stop offset="1" stop-color="#e9c5ba"/></linearGradient>
<linearGradient id="g22" x1="0" y1="0" x2="1" y2="0"><stop offset="0" stop-color="#ee9f98"/><stop offset="1" stop-color="#e0e1d0"/></linearGradient>
<linearGradient id="g23" x1="0" y1="0" x2="1" y2="0"><stop offset="0" stop-color="#8ad29c"/><stop offset="1" stop-color="#b2d9b4"/></linearGradient>
<linearGradient id="g24" x1="0" y1="0" x2="1" y2="0"><stop offset="0" stop-color="#60cb82"/><stop offset="1" stop-color="#e2e1d2"/></linearGradient>
<linearGradient id="g25" x1="0" y1="0" x2="1" y2="0"><stop offset="0" stop-color="#e6e2d4"/><stop offset="1" stop-color="#e6e2d4"/></linearGradient>
<linearGradient id="g26" x1="0" y1="0" x2="1" y2="0"><stop offset="0" stop-color="#f56464"/><stop offset="1" stop-color="#f56464"/></linearGradient>
<linearGradient id="g27" x1="0" y1="0" x2="1" y2="0"><stop offset="0" stop-color="#eabdb3"/><stop offset="1" stop-color="#badbba"/></linearGradient>
<linearGradient id="g28" x1="0" y1="0" x2="1" y2="0"><stop offset="0" stop-color="#ecb0a8"/><stop offset="1" stop-color="#f35e5e"/></linearGradient>
<linearGradient id="g29" x1="0" y1="0" x2="1" y2="0"><stop offset="0" stop-color="#bcbeba"/><stop offset="1" stop-color="#bcbeba"/></linearGradient>
<linearGradient id="g30" x1="0" y1="0" x2="1" y2="0"><stop offset="0" stop-color="#9ad5a6"/><stop offset="1" stop-color="#e6e0d2"/></linearGradient>
<linearGradient id="g31" x1="0" y1="0" x2="1" y2="0"><stop offset="0" stop-color="#52c97a"/><stop offset="1" stop-color="#e3e1d2"/></linearGradient>
<linearGradient id="g32" x1="0" y1="0" x2="1" y2="0"><stop offset="0" stop-color="#54c97b"/><stop offset="1" stop-color="#9dd6a8"/></linearGradient>
<linearGradient id="g33" x1="0" y1="0" x2="1" y2="0"><stop offset="0" stop-color="#ecafa7"/><stop offset="1" stop-color="#e83838"/></linearGradient>
<linearGradient id="g34" x1="0" y1="0" x2="1" y2="0"><stop offset="0" stop-color="#e7d7ca"/><stop offset="1" stop-color="#b9dab9"/></linearGradient>
<linearGradient id="g35" x1="0" y1="0" x2="1" y2="0"><stop offset="0" stop-color="#e9cbbf"/><stop offset="1" stop-color="#f08c88"/></linearGradient>
<linearGradient id="g36" x1="0" y1="0" x2="1" y2="0"><stop offset="0" stop-color="#0f8f42"/><stop offset="1" stop-color="#5aca7f"/></linearGradient>
<linearGradient id="g37" x1="0" y1="0" x2="1" y2="0"><stop offset="0" stop-color="#e6e2d4"/><stop offset="1" stop-color="#e6e2d4"/></linearGradient>
<linearGradient id="g38" x1="0" y1="0" x2="1" y2="0"><stop offset="0" stop-color="#e01e1e"/><stop offset="1" stop-color="#e01e1e"/></linearGradient>
<linearGradient id="g39" x1="0" y1="0" x2="1" y2="0"><stop offset="0" stop-color="#dde0ce"/><stop offset="1" stop-color="#e9c6bb"/></linearGradient>
<radialGradient id="lit" cx="0.34" cy="0.28" r="0.78"><stop offset="0" stop-color="#ffffff" stop-opacity="0.42"/><stop offset="0.55" stop-color="#ffffff" stop-opacity="0.05"/><stop offset="1" stop-color="#1a1608" stop-opacity="0.42"/></radialGradient><radialGradient id="rim" cx="0.5" cy="0.5" r="0.5"><stop offset="0.86" stop-color="#000000" stop-opacity="0"/><stop offset="1" stop-color="#000000" stop-opacity="0.30"/></radialGradient><clipPath id="disc"><circle cx="450.0" cy="450.0" r="424.0"/></clipPath></defs>
<g clip-path="url(#disc)">
<polygon points="157.1,686.0 143.3,683.2 129.6,680.4 115.9,677.5 102.2,674.7 88.7,671.9 87.0,669.1 85.3,666.2 83.6,663.4 82.0,660.6 80.4,657.8 78.8,654.9 77.3,652.1 75.7,649.3 74.3,646.5 72.8,643.6 71.4,640.8 69.9,638.0 68.6,635.1 67.2,632.3 65.9,629.5 64.6,626.7 63.3,623.8 62.0,621.0 60.8,618.2 59.6,615.4 58.4,612.5 57.2,609.7 56.1,606.9 55.0,604.1 53.9,601.2 52.8,598.4 51.8,595.6 50.8,592.7 49.8,589.9 48.8,587.1 47.8,584.3 46.9,581.4 46.0,578.6 45.1,575.8 44.2,573.0 43.4,570.1 42.6,567.3 41.7,564.5 41.0,561.7 40.2,558.8 39.5,556.0 38.7,553.2 38.0,550.3 37.4,547.5 36.7,544.7 36.1,541.9 35.5,539.0 34.9,536.2 34.3,533.4 33.7,530.6 33.2,527.7 32.7,524.9 32.2,522.1 31.7,519.3 31.2,516.4 30.8,513.6 30.4,510.8 30.0,507.9 29.6,505.1 29.2,502.3 28.9,499.5 28.6,496.6 28.3,493.8 28.0,491.0 27.7,488.2 27.5,485.3 27.2,482.5 27.0,479.7 26.9,476.9 26.7,474.0 26.5,471.2 26.4,468.4 26.3,465.5 26.2,462.7 26.1,459.9 26.1,457.1 26.0,454.2 26.0,451.4 26.0,448.6 26.0,445.8 26.1,442.9 26.1,440.1 26.2,437.3 26.3,434.5 26.4,431.6 26.5,428.8 26.7,426.0 26.9,423.1 27.0,420.3 27.2,417.5 27.5,414.7 27.7,411.8 28.0,409.0 28.3,406.2 28.6,403.4 28.9,400.5 29.2,397.7 29.6,394.9 30.0,392.1 30.4,389.2 30.8,386.4 31.2,383.6 31.7,380.7 32.2,377.9 32.7,375.1 33.2,372.3 33.7,369.4 34.3,366.6 34.9,363.8 35.5,361.0 36.1,358.1 36.7,355.3 37.4,352.5 38.0,349.7 38.7,346.8 39.5,344.0 40.2,341.2 41.0,338.3 41.7,335.5 42.6,332.7 43.4,329.9 44.2,327.0 45.1,324.2 46.0,321.4 46.9,318.6 47.8,315.7 48.8,312.9 49.8,310.1 50.8,307.3 51.8,304.4 52.8,301.6 53.9,298.8 55.0,295.9 56.1,293.1 57.2,290.3 58.4,287.5 85.9,284.6 138.2,281.8 190.4,279.0 242.7,276.2 288.2,276.2 291.1,279.0 294.0,281.8 296.9,284.6 299.7,287.5 302.6,290.3 305.5,293.1 308.4,295.9 311.2,298.8 314.1,301.6 317.0,304.4 319.9,307.3 322.7,310.1 325.6,312.9 328.5,315.7 331.4,318.6 334.2,321.4 337.1,324.2 340.0,327.0 342.9,329.9 345.8,332.7 346.0,335.5 346.0,338.3 346.1,341.2 346.2,344.0 346.3,346.8 346.3,349.7 346.4,352.5 346.5,355.3 346.6,358.1 346.6,361.0 346.7,363.8 346.8,366.6 346.9,369.4 347.0,372.3 347.0,375.1 347.1,377.9 347.2,380.7 347.3,383.6 347.3,386.4 347.4,389.2 347.5,392.1 347.6,394.9 347.7,397.7 347.7,400.5 347.8,403.4 347.9,406.2 348.0,409.0 348.0,411.8 348.1,414.7 348.2,417.5 348.3,420.3 348.3,423.1 348.4,426.0 348.5,428.8 348.6,431.6 348.7,434.5 348.7,437.3 348.8,440.1 348.9,442.9 349.0,445.8 349.0,448.6 349.1,451.4 349.2,454.2 349.3,457.1 349.3,459.9 349.4,462.7 349.5,465.5 349.6,468.4 349.7,471.2 349.7,474.0 349.8,476.9 349.9,479.7 350.0,482.5 350.0,485.3 350.1,488.2 350.2,491.0 350.3,493.8 350.3,496.6 350.4,499.5 350.5,502.3 350.6,505.1 350.7,507.9 350.7,510.8 350.8,513.6 350.9,516.4 351.0,519.3 351.0,522.1 351.1,524.9 351.2,527.7 351.3,530.6 351.3,533.4 351.4,536.2 351.5,539.0 351.6,541.9 351.7,544.7 351.7,547.5 351.8,550.3 351.9,553.2 352.0,556.0 352.0,558.8 352.1,561.7 352.2,564.5 349.1,567.3 344.7,570.1 340.2,573.0 335.7,575.8 331.2,578.6 326.8,581.4 322.3,584.3 317.8,587.1 313.3,589.9 308.8,592.7 304.4,595.6 299.9,598.4 295.4,601.2 290.9,604.1 286.5,606.9 282.0,609.7 277.5,612.5 273.0,615.4 268.5,618.2 264.1,621.0 259.6,623.8 255.1,626.7 250.6,629.5 246.2,632.3 241.7,635.1 237.2,638.0 232.7,640.8 228.2,643.6 223.8,646.5 219.3,649.3 214.8,652.1 210.3,654.9 205.9,657.8 201.4,660.6 196.9,663.4 192.4,666.2 187.9,669.1 183.5,671.9 179.0,674.7 174.5,677.5 170.0,680.4 165.6,683.2 161.1,686.0" fill="url(#g0)" stroke="#fbfcfb" stroke-width="1.1" stroke-linejoin="round"/>
<polygon points="451.2,451.4 448.9,448.6 446.9,445.8 444.9,442.9 442.9,440.1 441.0,437.3 439.0,434.5 437.0,431.6 435.0,428.8 433.0,426.0 431.0,423.1 429.0,420.3 427.0,417.5 425.0,414.7 423.1,411.8 421.1,409.0 419.1,406.2 417.1,403.4 415.1,400.5 413.1,397.7 411.1,394.9 409.1,392.1 407.1,389.2 405.2,386.4 403.2,383.6 401.2,380.7 399.2,377.9 397.2,375.1 395.2,372.3 393.2,369.4 391.2,366.6 389.2,363.8 387.3,361.0 385.3,358.1 383.3,355.3 381.3,352.5 379.3,349.7 377.3,346.8 375.3,344.0 373.3,341.2 371.4,338.3 372.4,335.5 373.4,332.7 374.4,329.9 375.4,327.0 376.4,324.2 377.4,321.4 378.4,318.6 379.4,315.7 380.4,312.9 381.4,310.1 382.4,307.3 383.4,304.4 384.4,301.6 385.4,298.8 386.4,295.9 387.4,293.1 388.4,290.3 389.4,287.5 390.4,284.6 391.4,281.8 392.4,279.0 393.4,276.2 394.4,273.3 395.4,270.5 396.4,267.7 397.4,264.9 398.4,262.0 399.4,259.2 400.4,256.4 401.4,253.5 402.4,250.7 403.4,247.9 404.3,245.1 405.3,242.2 406.3,239.4 407.3,236.6 408.3,233.8 409.3,230.9 410.3,228.1 411.3,225.3 412.3,222.5 413.3,219.6 414.3,216.8 415.3,214.0 416.3,211.1 417.3,208.3 418.3,205.5 419.3,202.7 420.3,199.8 421.3,197.0 422.3,194.2 423.3,191.4 424.3,188.5 425.3,185.7 426.3,182.9 427.3,180.1 429.5,177.2 431.8,174.4 448.4,171.6 476.8,168.7 505.3,165.9 533.7,163.1 562.2,160.3 590.6,157.4 619.1,154.6 621.4,154.6 623.0,157.4 624.6,160.3 626.2,163.1 627.8,165.9 629.4,168.7 631.0,171.6 632.6,174.4 634.1,177.2 635.7,180.1 637.3,182.9 638.9,185.7 640.5,188.5 642.1,191.4 643.7,194.2 645.3,197.0 644.2,199.8 642.2,202.7 640.2,205.5 638.2,208.3 636.2,211.1 634.1,214.0 632.1,216.8 630.1,219.6 628.1,222.5 626.1,225.3 624.1,228.1 622.1,230.9 620.1,233.8 618.1,236.6 616.1,239.4 614.1,242.2 612.1,245.1 610.1,247.9 608.1,250.7 606.1,253.5 604.1,256.4 602.1,259.2 600.1,262.0 598.1,264.9 596.1,267.7 594.1,270.5 592.0,273.3 590.0,276.2 588.0,279.0 586.0,281.8 584.0,284.6 582.0,287.5 580.0,290.3 578.0,293.1 576.0,295.9 574.0,298.8 572.0,301.6 570.0,304.4 568.0,307.3 566.0,310.1 564.0,312.9 562.0,315.7 560.0,318.6 558.0,321.4 556.0,324.2 554.0,327.0 551.9,329.9 549.9,332.7 547.9,335.5 545.9,338.3 543.9,341.2 541.9,344.0 539.9,346.8 537.9,349.7 535.9,352.5 533.9,355.3 531.9,358.1 529.9,361.0 527.9,363.8 525.9,366.6 523.9,369.4 521.9,372.3 519.9,375.1 517.9,377.9 515.9,380.7 513.9,383.6 511.9,386.4 509.8,389.2 507.8,392.1 505.8,394.9 503.8,397.7 501.8,400.5 499.8,403.4 497.8,406.2 495.8,409.0 493.8,411.8 491.8,414.7 489.8,417.5 487.8,420.3 485.8,423.1 483.8,426.0 481.8,428.8 479.8,431.6 477.8,434.5 475.8,437.3 473.8,440.1 471.8,442.9 469.8,445.8 467.7,448.6 461.0,451.4" fill="url(#g1)" stroke="#fbfcfb" stroke-width="1.1" stroke-linejoin="round"/>
<polygon points="587.7,649.3 585.5,646.5 583.2,643.6 581.0,640.8 578.7,638.0 576.5,635.1 574.2,632.3 572.0,629.5 569.7,626.7 567.5,623.8 565.2,621.0 563.0,618.2 560.7,615.4 558.5,612.5 556.3,609.7 554.0,606.9 551.8,604.1 549.5,601.2 547.3,598.4 545.0,595.6 542.8,592.7 540.5,589.9 538.3,587.1 536.0,584.3 533.8,581.4 531.5,578.6 529.3,575.8 527.0,573.0 524.8,570.1 522.5,567.3 520.3,564.5 518.0,561.7 515.8,558.8 513.5,556.0 511.3,553.2 509.1,550.3 506.8,547.5 504.6,544.7 502.3,541.9 500.1,539.0 497.8,536.2 495.6,533.4 493.3,530.6 491.1,527.7 488.8,524.9 486.6,522.1 484.3,519.3 482.1,516.4 479.8,513.6 477.6,510.8 475.3,507.9 473.1,505.1 470.8,502.3 471.9,499.5 478.8,496.6 486.1,493.8 493.5,491.0 500.8,488.2 508.2,485.3 515.5,482.5 522.9,479.7 530.2,476.9 537.6,474.0 544.9,471.2 552.3,468.4 559.6,465.5 566.9,462.7 574.3,459.9 581.6,457.1 589.0,454.2 596.3,451.4 603.7,448.6 611.0,445.8 618.4,442.9 625.7,440.1 633.1,437.3 646.2,437.3 650.3,440.1 654.4,442.9 658.5,445.8 662.6,448.6 666.7,451.4 667.7,454.2 668.7,457.1 669.7,459.9 670.7,462.7 671.7,465.5 672.7,468.4 673.7,471.2 674.7,474.0 675.7,476.9 676.7,479.7 677.7,482.5 678.7,485.3 679.7,488.2 680.7,491.0 681.6,493.8 682.6,496.6 683.6,499.5 684.6,502.3 685.6,505.1 686.6,507.9 687.6,510.8 688.6,513.6 689.6,516.4 690.6,519.3 691.6,522.1 692.6,524.9 693.6,527.7 694.6,530.6 695.6,533.4 696.6,536.2 697.6,539.0 698.6,541.9 699.6,544.7 700.6,547.5 701.6,550.3 702.6,553.2 703.5,556.0 704.5,558.8 705.5,561.7 706.5,564.5 707.5,567.3 708.5,570.1 709.5,573.0 710.5,575.8 711.5,578.6 711.5,581.4 709.1,584.3 706.7,587.1 704.4,589.9 702.0,592.7 699.6,595.6 697.2,598.4 694.9,601.2 692.5,604.1 690.1,606.9 687.8,609.7 685.4,612.5 683.0,615.4 680.7,618.2 678.3,621.0 675.9,623.8 673.6,626.7 671.2,629.5 668.8,632.3 666.5,635.1 655.9,638.0 642.0,640.8 628.0,643.6 614.1,646.5 600.2,649.3" fill="url(#g2)" stroke="#fbfcfb" stroke-width="1.1" stroke-linejoin="round"/>
<polygon points="467.7,448.6 469.8,445.8 471.8,442.9 473.8,440.1 475.8,437.3 477.8,434.5 479.8,431.6 481.8,428.8 483.8,426.0 485.8,423.1 487.8,420.3 489.8,417.5 491.8,414.7 493.8,411.8 495.8,409.0 497.8,406.2 499.8,403.4 501.8,400.5 503.8,397.7 505.8,394.9 507.8,392.1 509.8,389.2 511.9,386.4 513.9,383.6 515.9,380.7 517.9,377.9 519.9,375.1 521.9,372.3 523.9,369.4 525.9,366.6 527.9,363.8 529.9,361.0 531.9,358.1 533.9,355.3 535.9,352.5 537.9,349.7 539.9,346.8 541.9,344.0 543.9,341.2 545.9,338.3 547.9,335.5 549.9,332.7 551.9,329.9 554.0,327.0 556.0,324.2 558.0,321.4 560.0,318.6 562.0,315.7 564.0,312.9 566.0,310.1 568.0,307.3 570.0,304.4 572.0,301.6 574.0,298.8 576.0,295.9 578.0,293.1 580.0,290.3 582.0,287.5 584.0,284.6 586.0,281.8 588.0,279.0 590.0,276.2 592.0,273.3 594.1,270.5 596.1,267.7 598.1,264.9 600.1,262.0 602.1,259.2 604.1,256.4 606.1,253.5 608.1,250.7 610.1,247.9 612.1,245.1 614.1,242.2 616.1,239.4 618.1,236.6 620.1,233.8 622.1,230.9 624.1,228.1 626.1,225.3 628.1,222.5 630.1,219.6 632.1,216.8 634.1,214.0 636.2,211.1 638.2,208.3 640.2,205.5 642.2,202.7 644.2,199.8 647.4,199.8 649.6,202.7 651.9,205.5 654.1,208.3 656.4,211.1 658.6,214.0 660.9,216.8 663.1,219.6 665.4,222.5 667.6,225.3 669.9,228.1 671.2,230.9 672.3,233.8 673.4,236.6 674.5,239.4 675.6,242.2 676.8,245.1 677.9,247.9 679.0,250.7 680.1,253.5 681.3,256.4 682.4,259.2 683.5,262.0 684.6,264.9 685.7,267.7 686.9,270.5 688.0,273.3 689.1,276.2 690.2,279.0 691.4,281.8 692.5,284.6 693.6,287.5 694.7,290.3 695.8,293.1 697.0,295.9 698.1,298.8 699.2,301.6 698.9,304.4 697.7,307.3 696.4,310.1 695.2,312.9 694.0,315.7 692.8,318.6 691.6,321.4 690.4,324.2 689.1,327.0 687.9,329.9 686.7,332.7 685.5,335.5 684.3,338.3 683.1,341.2 681.8,344.0 680.6,346.8 679.4,349.7 678.2,352.5 677.0,355.3 675.8,358.1 674.5,361.0 673.3,363.8 672.1,366.6 670.9,369.4 669.7,372.3 668.5,375.1 667.2,377.9 666.0,380.7 664.8,383.6 663.6,386.4 662.4,389.2 661.2,392.1 659.9,394.9 658.7,397.7 657.5,400.5 656.3,403.4 655.1,406.2 653.9,409.0 652.6,411.8 651.4,414.7 650.2,417.5 649.0,420.3 647.8,423.1 646.6,426.0 645.4,428.8 644.1,431.6 642.9,434.5 627.0,437.3 588.9,440.1 550.8,442.9 512.8,445.8 474.7,448.6" fill="url(#g3)" stroke="#fbfcfb" stroke-width="1.1" stroke-linejoin="round"/>
<polygon points="287.9,262.0 285.5,259.2 283.1,256.4 280.7,253.5 278.4,250.7 276.0,247.9 273.6,245.1 271.3,242.2 268.9,239.4 266.5,236.6 264.1,233.8 261.8,230.9 259.4,228.1 257.0,225.3 254.6,222.5 252.3,219.6 249.9,216.8 247.5,214.0 245.1,211.1 242.8,208.3 240.4,205.5 238.0,202.7 235.7,199.8 233.3,197.0 230.9,194.2 228.5,191.4 226.2,188.5 223.8,185.7 221.4,182.9 219.0,180.1 216.7,177.2 214.3,174.4 215.8,171.6 217.6,168.7 219.3,165.9 221.1,163.1 222.9,160.3 224.7,157.4 226.5,154.6 228.2,151.8 230.4,149.0 233.8,146.1 237.2,143.3 240.6,140.5 244.0,137.7 247.4,134.8 250.8,132.0 254.2,129.2 257.6,126.3 261.0,123.5 264.4,120.7 267.8,117.9 271.2,115.0 274.6,112.2 278.0,109.4 281.4,106.6 284.8,103.7 288.2,100.9 291.6,98.1 295.0,95.3 298.4,92.4 301.8,89.6 305.2,86.8 308.6,83.9 312.0,81.1 315.4,78.3 318.8,75.5 322.2,72.6 329.0,72.6 347.6,75.5 366.1,78.3 384.6,81.1 403.2,83.9 421.7,86.8 429.9,89.6 430.0,92.4 430.1,95.3 430.2,98.1 430.3,100.9 430.4,103.7 430.5,106.6 430.6,109.4 430.7,112.2 430.8,115.0 430.9,117.9 431.0,120.7 431.1,123.5 431.2,126.3 431.3,129.2 431.4,132.0 431.5,134.8 431.6,137.7 431.7,140.5 431.8,143.3 431.9,146.1 432.0,149.0 432.1,151.8 432.2,154.6 432.3,157.4 432.4,160.3 432.5,163.1 432.6,165.9 432.7,168.7 432.8,171.6 431.8,174.4 429.5,177.2 426.9,180.1 422.1,182.9 417.3,185.7 412.6,188.5 407.8,191.4 403.0,194.2 398.2,197.0 393.4,199.8 388.6,202.7 383.8,205.5 379.1,208.3 374.3,211.1 369.5,214.0 364.7,216.8 359.9,219.6 355.1,222.5 350.4,225.3 345.6,228.1 340.8,230.9 336.0,233.8 331.2,236.6 326.4,239.4 321.6,242.2 316.9,245.1 312.1,247.9 307.3,250.7 302.5,253.5 297.7,256.4 292.9,259.2 288.2,262.0" fill="url(#g4)" stroke="#fbfcfb" stroke-width="1.1" stroke-linejoin="round"/>
<polygon points="458.9,833.0 449.4,830.2 440.0,827.4 430.5,824.5 421.1,821.7 411.7,818.9 402.2,816.1 392.8,813.2 383.3,810.4 383.3,807.6 385.2,804.7 387.2,801.9 389.1,799.1 391.0,796.3 392.9,793.4 394.8,790.6 396.7,787.8 398.7,785.0 400.6,782.1 402.5,779.3 404.4,776.5 406.3,773.7 408.2,770.8 410.2,768.0 412.1,765.2 414.0,762.3 415.9,759.5 417.8,756.7 419.7,753.9 421.7,751.0 423.6,748.2 425.5,745.4 427.4,742.6 429.3,739.7 431.2,736.9 433.2,734.1 435.1,731.3 437.0,728.4 438.9,725.6 440.8,722.8 443.7,719.9 450.2,717.1 456.6,714.3 463.1,711.5 469.6,708.6 476.0,705.8 482.5,703.0 489.0,700.2 495.5,697.3 501.9,694.5 508.4,691.7 514.9,688.9 521.3,686.0 533.6,683.2 535.5,683.2 540.8,686.0 546.0,688.9 551.3,691.7 556.5,694.5 561.8,697.3 567.1,700.2 572.3,703.0 577.6,705.8 582.8,708.6 588.1,711.5 593.4,714.3 598.6,717.1 603.9,719.9 609.1,722.8 614.4,725.6 619.7,728.4 622.0,731.3 621.8,734.1 621.6,736.9 621.4,739.7 621.2,742.6 620.9,745.4 620.7,748.2 620.5,751.0 620.3,753.9 620.1,756.7 618.0,759.5 615.6,762.3 613.1,765.2 610.7,768.0 608.3,770.8 605.8,773.7 603.4,776.5 601.0,779.3 598.5,782.1 596.1,785.0 593.7,787.8 591.2,790.6 588.8,793.4 586.3,796.3 579.6,799.1 570.9,801.9 562.2,804.7 553.5,807.6 544.8,810.4 536.1,813.2 527.4,816.1 518.7,818.9 510.0,821.7 501.3,824.5 492.7,827.4 484.0,830.2 475.3,833.0" fill="url(#g5)" stroke="#fbfcfb" stroke-width="1.1" stroke-linejoin="round"/>
<polygon points="286.1,714.3 234.2,711.5 182.3,708.6 177.1,705.8 174.6,703.0 172.1,700.2 169.6,697.3 167.1,694.5 164.6,691.7 162.0,688.9 161.1,686.0 165.6,683.2 170.0,680.4 174.5,677.5 179.0,674.7 183.5,671.9 187.9,669.1 192.4,666.2 196.9,663.4 201.4,660.6 205.9,657.8 210.3,654.9 214.8,652.1 219.3,649.3 223.8,646.5 228.2,643.6 232.7,640.8 237.2,638.0 241.7,635.1 246.2,632.3 250.6,629.5 255.1,626.7 259.6,623.8 264.1,621.0 268.5,618.2 273.0,615.4 277.5,612.5 282.0,609.7 286.5,606.9 290.9,604.1 295.4,601.2 299.9,598.4 304.4,595.6 308.8,592.7 313.3,589.9 317.8,587.1 322.3,584.3 326.8,581.4 331.2,578.6 335.7,575.8 340.2,573.0 344.7,570.1 349.1,567.3 363.5,564.5 369.8,564.5 374.8,567.3 379.8,570.1 384.7,573.0 388.1,575.8 388.6,578.6 389.2,581.4 389.7,584.3 390.2,587.1 390.8,589.9 391.3,592.7 391.8,595.6 392.4,598.4 392.9,601.2 393.4,604.1 394.0,606.9 394.5,609.7 395.0,612.5 395.6,615.4 396.1,618.2 396.6,621.0 397.2,623.8 397.7,626.7 398.2,629.5 398.8,632.3 399.3,635.1 399.9,638.0 400.4,640.8 399.1,643.6 397.3,646.5 395.4,649.3 393.6,652.1 391.8,654.9 389.9,657.8 388.1,660.6 386.2,663.4 384.4,666.2 382.6,669.1 380.7,671.9 378.9,674.7 377.1,677.5 375.2,680.4 373.4,683.2 371.6,686.0 369.7,688.9 367.9,691.7 366.0,694.5 364.2,697.3 360.6,700.2 356.1,703.0 351.7,705.8 347.2,708.6 342.8,711.5 338.3,714.3" fill="url(#g6)" stroke="#fbfcfb" stroke-width="1.1" stroke-linejoin="round"/>
<polygon points="524.5,683.2 516.1,680.4 507.7,677.5 499.3,674.7 490.9,671.9 482.5,669.1 474.1,666.2 465.7,663.4 457.3,660.6 448.9,657.8 440.5,654.9 432.1,652.1 423.7,649.3 415.3,646.5 406.9,643.6 400.4,640.8 399.9,638.0 399.3,635.1 398.8,632.3 398.2,629.5 397.7,626.7 397.2,623.8 396.6,621.0 396.1,618.2 395.6,615.4 395.0,612.5 394.5,609.7 394.0,606.9 393.4,604.1 392.9,601.2 392.4,598.4 391.8,595.6 391.3,592.7 390.8,589.9 390.2,587.1 389.7,584.3 389.2,581.4 388.6,578.6 388.1,575.8 389.9,573.0 393.1,570.1 396.4,567.3 399.6,564.5 402.8,561.7 406.0,558.8 409.2,556.0 412.5,553.2 415.7,550.3 418.9,547.5 422.1,544.7 425.3,541.9 428.5,539.0 431.8,536.2 435.0,533.4 438.2,530.6 441.4,527.7 444.6,524.9 447.9,522.1 451.1,519.3 454.3,516.4 457.5,513.6 460.7,510.8 463.9,507.9 467.2,505.1 470.4,502.3 470.8,502.3 473.1,505.1 475.3,507.9 477.6,510.8 479.8,513.6 482.1,516.4 484.3,519.3 486.6,522.1 488.8,524.9 491.1,527.7 493.3,530.6 495.6,533.4 497.8,536.2 500.1,539.0 502.3,541.9 504.6,544.7 506.8,547.5 509.1,550.3 511.3,553.2 513.5,556.0 515.8,558.8 518.0,561.7 520.3,564.5 522.5,567.3 524.8,570.1 527.0,573.0 529.3,575.8 531.5,578.6 533.8,581.4 536.0,584.3 538.3,587.1 540.5,589.9 542.8,592.7 545.0,595.6 547.3,598.4 549.5,601.2 551.8,604.1 554.0,606.9 556.3,609.7 558.5,612.5 560.7,615.4 563.0,618.2 565.2,621.0 567.5,623.8 569.7,626.7 572.0,629.5 574.2,632.3 576.5,635.1 578.7,638.0 581.0,640.8 583.2,643.6 585.5,646.5 587.7,649.3 588.3,652.1 583.5,654.9 578.6,657.8 573.8,660.6 568.9,663.4 564.1,666.2 559.2,669.1 554.4,671.9 549.5,674.7 544.7,677.5 539.8,680.4 533.6,683.2" fill="url(#g7)" stroke="#fbfcfb" stroke-width="1.1" stroke-linejoin="round"/>
<polygon points="432.8,171.6 432.7,168.7 432.6,165.9 432.5,163.1 432.4,160.3 432.3,157.4 432.2,154.6 432.1,151.8 432.0,149.0 431.9,146.1 431.8,143.3 431.7,140.5 431.6,137.7 431.5,134.8 431.4,132.0 431.3,129.2 431.2,126.3 431.1,123.5 431.0,120.7 430.9,117.9 430.8,115.0 430.7,112.2 430.6,109.4 430.5,106.6 430.4,103.7 430.3,100.9 430.2,98.1 430.1,95.3 430.0,92.4 429.9,89.6 441.9,86.8 460.8,83.9 479.7,81.1 498.7,78.3 517.6,75.5 536.6,72.6 555.5,69.8 574.4,67.0 582.5,67.0 584.4,69.8 586.3,72.6 588.2,75.5 590.1,78.3 592.0,81.1 593.9,83.9 595.8,86.8 597.7,89.6 599.6,92.4 601.5,95.3 603.4,98.1 605.3,100.9 607.2,103.7 609.1,106.6 611.0,109.4 612.9,112.2 614.8,115.0 616.7,117.9 618.6,120.7 620.5,123.5 621.2,126.3 621.2,129.2 621.2,132.0 621.2,134.8 621.2,137.7 621.3,140.5 621.3,143.3 621.3,146.1 621.3,149.0 621.3,151.8 619.1,154.6 590.6,157.4 562.2,160.3 533.7,163.1 505.3,165.9 476.8,168.7 448.4,171.6" fill="url(#g8)" stroke="#fbfcfb" stroke-width="1.1" stroke-linejoin="round"/>
<polygon points="280.5,838.7 274.2,835.8 268.1,833.0 262.3,830.2 256.7,827.4 251.3,824.5 246.0,821.7 240.9,818.9 236.0,816.1 231.3,813.2 226.6,810.4 222.1,807.6 217.8,804.7 213.5,801.9 209.4,799.1 205.3,796.3 201.4,793.4 197.5,790.6 193.7,787.8 190.0,785.0 186.7,782.1 186.5,779.3 186.2,776.5 185.9,773.7 185.6,770.8 185.3,768.0 185.1,765.2 184.8,762.3 184.5,759.5 184.2,756.7 183.9,753.9 183.7,751.0 183.4,748.2 183.1,745.4 182.8,742.6 182.5,739.7 182.3,736.9 182.0,734.1 181.7,731.3 181.4,728.4 181.2,725.6 180.9,722.8 180.6,719.9 180.3,717.1 180.0,714.3 179.8,711.5 179.5,708.6 182.3,708.6 234.2,711.5 286.1,714.3 334.2,717.1 334.1,719.9 333.9,722.8 333.8,725.6 333.7,728.4 333.6,731.3 333.5,734.1 333.4,736.9 333.3,739.7 333.2,742.6 333.1,745.4 333.0,748.2 332.9,751.0 332.8,753.9 332.7,756.7 332.6,759.5 332.4,762.3 332.3,765.2 332.2,768.0 332.1,770.8 332.0,773.7 331.9,776.5 331.8,779.3 331.7,782.1 331.6,785.0 331.5,787.8 331.4,790.6 331.3,793.4 331.2,796.3 331.1,799.1 331.0,801.9 330.8,804.7 330.7,807.6 330.6,810.4 330.5,813.2 330.4,816.1 325.6,818.9 320.7,821.7 315.9,824.5 311.0,827.4 306.1,830.2 301.3,833.0 296.4,835.8 291.5,838.7" fill="url(#g9)" stroke="#fbfcfb" stroke-width="1.1" stroke-linejoin="round"/>
<polygon points="762.5,236.6 730.3,233.8 698.1,230.9 669.9,228.1 667.6,225.3 665.4,222.5 663.1,219.6 660.9,216.8 658.6,214.0 656.4,211.1 654.1,208.3 651.9,205.5 649.6,202.7 647.4,199.8 645.3,197.0 643.7,194.2 642.1,191.4 640.5,188.5 638.9,185.7 637.3,182.9 635.7,180.1 634.1,177.2 632.6,174.4 631.0,171.6 629.4,168.7 627.8,165.9 626.2,163.1 624.6,160.3 623.0,157.4 621.4,154.6 621.3,151.8 621.3,149.0 621.3,146.1 621.3,143.3 621.3,140.5 621.2,137.7 621.2,134.8 621.2,132.0 621.2,129.2 621.2,126.3 651.5,123.5 720.5,123.5 723.9,126.3 727.2,129.2 730.4,132.0 733.6,134.8 736.7,137.7 739.8,140.5 742.8,143.3 745.7,146.1 748.6,149.0 751.4,151.8 754.2,154.6 756.9,157.4 759.6,160.3 762.2,163.1 764.8,165.9 767.3,168.7 769.8,171.6 772.2,174.4 774.6,177.2 777.0,180.1 779.3,182.9 781.5,185.7 783.8,188.5 786.0,191.4 788.1,194.2 790.3,197.0 792.3,199.8 794.4,202.7 796.4,205.5 798.4,208.3 800.3,211.1 800.0,214.0 796.8,216.8 793.6,219.6 790.3,222.5 787.1,225.3 783.9,228.1 780.6,230.9 777.4,233.8 774.2,236.6" fill="url(#g10)" stroke="#fbfcfb" stroke-width="1.1" stroke-linejoin="round"/>
<polygon points="352.2,564.5 352.1,561.7 352.0,558.8 352.0,556.0 351.9,553.2 351.8,550.3 351.7,547.5 351.7,544.7 351.6,541.9 351.5,539.0 351.4,536.2 351.3,533.4 351.3,530.6 351.2,527.7 351.1,524.9 351.0,522.1 351.0,519.3 350.9,516.4 350.8,513.6 350.7,510.8 350.7,507.9 350.6,505.1 350.5,502.3 350.4,499.5 350.3,496.6 350.3,493.8 350.2,491.0 350.1,488.2 350.0,485.3 350.0,482.5 349.9,479.7 349.8,476.9 349.7,474.0 349.7,471.2 349.6,468.4 349.5,465.5 349.4,462.7 349.3,459.9 349.3,457.1 349.2,454.2 349.1,451.4 349.0,448.6 349.0,445.8 348.9,442.9 348.8,440.1 348.7,437.3 348.7,434.5 348.6,431.6 348.5,428.8 348.4,426.0 348.3,423.1 348.3,420.3 348.2,417.5 348.1,414.7 348.0,411.8 348.0,409.0 347.9,406.2 347.8,403.4 347.7,400.5 347.7,397.7 347.6,394.9 347.5,392.1 347.4,389.2 347.3,386.4 347.3,383.6 347.2,380.7 347.1,377.9 347.0,375.1 347.0,372.3 346.9,369.4 346.8,366.6 346.7,363.8 346.6,361.0 346.6,358.1 346.5,355.3 346.4,352.5 346.3,349.7 346.3,346.8 346.2,344.0 346.1,341.2 346.0,338.3 346.0,335.5 358.2,335.5 371.0,338.3 373.3,341.2 375.3,344.0 377.3,346.8 379.3,349.7 381.3,352.5 383.3,355.3 385.3,358.1 387.3,361.0 389.2,363.8 391.2,366.6 393.2,369.4 395.2,372.3 397.2,375.1 399.2,377.9 401.2,380.7 403.2,383.6 405.2,386.4 407.1,389.2 409.1,392.1 411.1,394.9 413.1,397.7 415.1,400.5 417.1,403.4 419.1,406.2 421.1,409.0 423.1,411.8 425.0,414.7 427.0,417.5 429.0,420.3 431.0,423.1 433.0,426.0 435.0,428.8 437.0,431.6 439.0,434.5 441.0,437.3 442.9,440.1 444.9,442.9 446.9,445.8 448.9,448.6 450.8,451.4 448.7,454.2 446.7,457.1 444.6,459.9 442.6,462.7 440.5,465.5 438.5,468.4 436.4,471.2 434.4,474.0 432.3,476.9 430.3,479.7 428.2,482.5 426.2,485.3 424.1,488.2 422.1,491.0 420.0,493.8 418.0,496.6 415.9,499.5 413.9,502.3 411.8,505.1 409.8,507.9 407.7,510.8 405.7,513.6 403.6,516.4 401.6,519.3 399.5,522.1 397.5,524.9 395.4,527.7 393.4,530.6 391.3,533.4 389.3,536.2 387.2,539.0 385.2,541.9 383.1,544.7 381.1,547.5 379.0,550.3 377.0,553.2 374.9,556.0 372.9,558.8 370.8,561.7 363.5,564.5" fill="url(#g11)" stroke="#fbfcfb" stroke-width="1.1" stroke-linejoin="round"/>
<polygon points="59.6,284.6 60.8,281.8 62.0,279.0 63.3,276.2 64.6,273.3 66.4,270.5 70.7,267.7 75.1,264.9 79.4,262.0 83.7,259.2 88.1,256.4 92.4,253.5 96.8,250.7 101.1,247.9 105.4,245.1 109.8,242.2 114.1,239.4 118.4,236.6 122.8,233.8 127.1,230.9 131.4,228.1 135.8,225.3 140.1,222.5 144.5,219.6 148.8,216.8 153.1,214.0 157.5,211.1 161.8,208.3 166.1,205.5 170.5,202.7 174.8,199.8 179.2,197.0 183.5,194.2 187.8,191.4 192.2,188.5 196.5,185.7 200.8,182.9 205.2,180.1 209.5,177.2 213.8,174.4 214.3,174.4 216.7,177.2 219.0,180.1 221.4,182.9 223.8,185.7 226.2,188.5 228.5,191.4 230.9,194.2 233.3,197.0 235.7,199.8 238.0,202.7 240.4,205.5 242.8,208.3 245.1,211.1 247.5,214.0 249.9,216.8 252.3,219.6 254.6,222.5 257.0,225.3 259.4,228.1 261.8,230.9 264.1,233.8 266.5,236.6 268.9,239.4 271.3,242.2 273.6,245.1 276.0,247.9 278.4,250.7 280.7,253.5 283.1,256.4 285.5,259.2 287.9,262.0 287.5,264.9 287.0,267.7 286.5,270.5 285.9,273.3 242.7,276.2 190.4,279.0 138.2,281.8 85.9,284.6" fill="url(#g12)" stroke="#fbfcfb" stroke-width="1.1" stroke-linejoin="round"/>
<polygon points="666.7,451.4 662.6,448.6 658.5,445.8 654.4,442.9 650.3,440.1 646.2,437.3 642.9,434.5 644.1,431.6 645.4,428.8 646.6,426.0 647.8,423.1 649.0,420.3 650.2,417.5 651.4,414.7 652.6,411.8 653.9,409.0 655.1,406.2 656.3,403.4 657.5,400.5 658.7,397.7 659.9,394.9 661.2,392.1 662.4,389.2 663.6,386.4 664.8,383.6 666.0,380.7 667.2,377.9 668.5,375.1 669.7,372.3 670.9,369.4 672.1,366.6 673.3,363.8 674.5,361.0 675.8,358.1 677.0,355.3 678.2,352.5 679.4,349.7 680.6,346.8 681.8,344.0 683.1,341.2 684.3,338.3 685.5,335.5 686.7,332.7 687.9,329.9 689.1,327.0 690.4,324.2 691.6,321.4 692.8,318.6 694.0,315.7 695.2,312.9 696.4,310.1 697.7,307.3 698.9,304.4 703.4,304.4 709.3,307.3 715.3,310.1 721.3,312.9 727.3,315.7 733.3,318.6 739.2,321.4 745.2,324.2 751.2,327.0 753.6,329.9 755.5,332.7 757.4,335.5 759.3,338.3 761.2,341.2 763.1,344.0 765.0,346.8 765.3,349.7 765.4,352.5 765.4,355.3 765.4,358.1 765.5,361.0 765.5,363.8 765.6,366.6 765.6,369.4 765.6,372.3 765.7,375.1 765.7,377.9 765.8,380.7 765.8,383.6 765.8,386.4 765.9,389.2 765.9,392.1 766.0,394.9 766.0,397.7 766.0,400.5 766.1,403.4 766.1,406.2 766.2,409.0 766.2,411.8 766.3,414.7 766.3,417.5 766.3,420.3 766.4,423.1 766.4,426.0 766.5,428.8 766.5,431.6 766.5,434.5 766.6,437.3 766.6,440.1 766.7,442.9 766.7,445.8 743.2,448.6 666.8,451.4" fill="url(#g13)" stroke="#fbfcfb" stroke-width="1.1" stroke-linejoin="round"/>
<polygon points="711.5,578.6 710.5,575.8 709.5,573.0 708.5,570.1 707.5,567.3 706.5,564.5 705.5,561.7 704.5,558.8 703.5,556.0 702.6,553.2 701.6,550.3 700.6,547.5 699.6,544.7 698.6,541.9 697.6,539.0 696.6,536.2 695.6,533.4 694.6,530.6 693.6,527.7 692.6,524.9 691.6,522.1 690.6,519.3 689.6,516.4 688.6,513.6 687.6,510.8 686.6,507.9 685.6,505.1 684.6,502.3 683.6,499.5 682.6,496.6 681.6,493.8 680.7,491.0 679.7,488.2 678.7,485.3 677.7,482.5 676.7,479.7 675.7,476.9 674.7,474.0 673.7,471.2 672.7,468.4 671.7,465.5 670.7,462.7 669.7,459.9 668.7,457.1 667.7,454.2 666.8,451.4 743.2,448.6 767.2,448.6 768.9,451.4 770.6,454.2 772.2,457.1 773.9,459.9 775.6,462.7 777.3,465.5 778.9,468.4 780.6,471.2 781.1,474.0 780.8,476.9 780.4,479.7 780.0,482.5 779.7,485.3 779.3,488.2 778.9,491.0 778.6,493.8 778.2,496.6 777.9,499.5 777.5,502.3 777.1,505.1 776.8,507.9 776.4,510.8 776.0,513.6 775.7,516.4 775.3,519.3 775.0,522.1 774.6,524.9 774.2,527.7 773.9,530.6 773.5,533.4 773.1,536.2 771.7,539.0 769.5,541.9 767.4,544.7 765.3,547.5 763.2,550.3 761.0,553.2 758.9,556.0 756.8,558.8 754.7,561.7 748.8,564.5 742.3,567.3 735.9,570.1 729.5,573.0 723.0,575.8 716.6,578.6" fill="url(#g14)" stroke="#fbfcfb" stroke-width="1.1" stroke-linejoin="round"/>
<polygon points="371.0,338.3 358.2,335.5 345.8,332.7 342.9,329.9 340.0,327.0 337.1,324.2 334.2,321.4 331.4,318.6 328.5,315.7 325.6,312.9 322.7,310.1 319.9,307.3 317.0,304.4 314.1,301.6 311.2,298.8 308.4,295.9 305.5,293.1 302.6,290.3 299.7,287.5 296.9,284.6 294.0,281.8 291.1,279.0 288.2,276.2 285.9,273.3 286.5,270.5 287.0,267.7 287.5,264.9 288.2,262.0 292.9,259.2 297.7,256.4 302.5,253.5 307.3,250.7 312.1,247.9 316.9,245.1 321.6,242.2 326.4,239.4 331.2,236.6 336.0,233.8 340.8,230.9 345.6,228.1 350.4,225.3 355.1,222.5 359.9,219.6 364.7,216.8 369.5,214.0 374.3,211.1 379.1,208.3 383.8,205.5 388.6,202.7 393.4,199.8 398.2,197.0 403.0,194.2 407.8,191.4 412.6,188.5 417.3,185.7 422.1,182.9 426.9,180.1 427.3,180.1 426.3,182.9 425.3,185.7 424.3,188.5 423.3,191.4 422.3,194.2 421.3,197.0 420.3,199.8 419.3,202.7 418.3,205.5 417.3,208.3 416.3,211.1 415.3,214.0 414.3,216.8 413.3,219.6 412.3,222.5 411.3,225.3 410.3,228.1 409.3,230.9 408.3,233.8 407.3,236.6 406.3,239.4 405.3,242.2 404.3,245.1 403.4,247.9 402.4,250.7 401.4,253.5 400.4,256.4 399.4,259.2 398.4,262.0 397.4,264.9 396.4,267.7 395.4,270.5 394.4,273.3 393.4,276.2 392.4,279.0 391.4,281.8 390.4,284.6 389.4,287.5 388.4,290.3 387.4,293.1 386.4,295.9 385.4,298.8 384.4,301.6 383.4,304.4 382.4,307.3 381.4,310.1 380.4,312.9 379.4,315.7 378.4,318.6 377.4,321.4 376.4,324.2 375.4,327.0 374.4,329.9 373.4,332.7 372.4,335.5 371.4,338.3" fill="url(#g15)" stroke="#fbfcfb" stroke-width="1.1" stroke-linejoin="round"/>
<polygon points="330.4,816.1 330.5,813.2 330.6,810.4 330.7,807.6 330.8,804.7 331.0,801.9 331.1,799.1 331.2,796.3 331.3,793.4 331.4,790.6 331.5,787.8 331.6,785.0 331.7,782.1 331.8,779.3 331.9,776.5 332.0,773.7 332.1,770.8 332.2,768.0 332.3,765.2 332.4,762.3 332.6,759.5 332.7,756.7 332.8,753.9 332.9,751.0 333.0,748.2 333.1,745.4 333.2,742.6 333.3,739.7 333.4,736.9 333.5,734.1 333.6,731.3 333.7,728.4 333.8,725.6 333.9,722.8 334.1,719.9 334.2,717.1 338.3,714.3 342.8,711.5 347.2,708.6 351.7,705.8 356.1,703.0 360.6,700.2 370.4,700.2 380.3,703.0 390.3,705.8 400.3,708.6 410.3,711.5 420.3,714.3 430.3,717.1 440.2,719.9 440.8,722.8 438.9,725.6 437.0,728.4 435.1,731.3 433.2,734.1 431.2,736.9 429.3,739.7 427.4,742.6 425.5,745.4 423.6,748.2 421.7,751.0 419.7,753.9 417.8,756.7 415.9,759.5 414.0,762.3 412.1,765.2 410.2,768.0 408.2,770.8 406.3,773.7 404.4,776.5 402.5,779.3 400.6,782.1 398.7,785.0 396.7,787.8 394.8,790.6 392.9,793.4 391.0,796.3 389.1,799.1 387.2,801.9 385.2,804.7 383.3,807.6 377.7,810.4 354.2,813.2 330.6,816.1" fill="url(#g16)" stroke="#fbfcfb" stroke-width="1.1" stroke-linejoin="round"/>
<polygon points="415.4,872.6 390.2,869.8 372.9,866.9 358.9,864.1 346.9,861.3 336.2,858.5 326.5,855.6 317.6,852.8 309.3,850.0 301.5,847.1 294.2,844.3 287.2,841.5 291.5,838.7 296.4,835.8 301.3,833.0 306.1,830.2 311.0,827.4 315.9,824.5 320.7,821.7 325.6,818.9 330.6,816.1 354.2,813.2 377.7,810.4 383.3,810.4 392.8,813.2 402.2,816.1 411.7,818.9 421.1,821.7 430.5,824.5 440.0,827.4 449.4,830.2 458.9,833.0 467.4,835.8 466.9,838.7 466.4,841.5 465.9,844.3 465.4,847.1 465.0,850.0 464.5,852.8 464.0,855.6 463.5,858.5 463.0,861.3 462.6,864.1 462.1,866.9 461.6,869.8 461.1,872.6" fill="url(#g17)" stroke="#fbfcfb" stroke-width="1.1" stroke-linejoin="round"/>
<polygon points="682.8,683.2 672.3,680.4 671.9,677.5 671.5,674.7 671.1,671.9 670.7,669.1 670.3,666.2 669.8,663.4 669.4,660.6 669.0,657.8 668.6,654.9 668.2,652.1 667.8,649.3 667.3,646.5 666.9,643.6 666.5,640.8 666.1,638.0 666.5,635.1 668.8,632.3 671.2,629.5 673.6,626.7 675.9,623.8 678.3,621.0 680.7,618.2 683.0,615.4 685.4,612.5 687.8,609.7 690.1,606.9 692.5,604.1 694.9,601.2 697.2,598.4 699.6,595.6 702.0,592.7 704.4,589.9 706.7,587.1 709.1,584.3 711.5,581.4 716.6,578.6 723.0,575.8 729.5,573.0 735.9,570.1 742.3,567.3 748.8,564.5 755.0,564.5 755.8,567.3 756.5,570.1 757.2,573.0 757.9,575.8 758.6,578.6 759.4,581.4 760.1,584.3 760.8,587.1 761.5,589.9 762.3,592.7 763.0,595.6 763.7,598.4 764.4,601.2 765.1,604.1 765.9,606.9 766.6,609.7 767.3,612.5 768.0,615.4 768.8,618.2 768.5,621.0 767.0,623.8 765.6,626.7 764.1,629.5 762.6,632.3 761.1,635.1 759.6,638.0 758.1,640.8 756.5,643.6 752.4,646.5 748.3,649.3 744.2,652.1 740.1,654.9 736.1,657.8 732.0,660.6 727.9,663.4 723.8,666.2 719.7,669.1 715.6,671.9 711.6,674.7 707.5,677.5 703.4,680.4 699.3,683.2" fill="url(#g18)" stroke="#fbfcfb" stroke-width="1.1" stroke-linejoin="round"/>
<polygon points="780.6,471.2 778.9,468.4 777.3,465.5 775.6,462.7 773.9,459.9 772.2,457.1 770.6,454.2 768.9,451.4 767.2,448.6 766.7,445.8 766.7,442.9 766.6,440.1 766.6,437.3 766.5,434.5 766.5,431.6 766.5,428.8 766.4,426.0 766.4,423.1 766.3,420.3 766.3,417.5 766.3,414.7 766.2,411.8 766.2,409.0 766.1,406.2 766.1,403.4 766.0,400.5 766.0,397.7 766.0,394.9 765.9,392.1 765.9,389.2 765.8,386.4 765.8,383.6 765.8,380.7 765.7,377.9 765.7,375.1 765.6,372.3 765.6,369.4 765.6,366.6 765.5,363.8 765.5,361.0 765.4,358.1 765.4,355.3 765.4,352.5 765.3,349.7 772.7,346.8 804.9,346.8 806.0,349.7 807.1,352.5 808.1,355.3 809.2,358.1 810.3,361.0 811.3,363.8 812.4,366.6 813.5,369.4 814.5,372.3 815.6,375.1 816.7,377.9 817.7,380.7 818.8,383.6 819.9,386.4 820.9,389.2 822.0,392.1 823.1,394.9 824.1,397.7 825.2,400.5 826.2,403.4 827.3,406.2 828.4,409.0 829.4,411.8 830.5,414.7 831.6,417.5 832.6,420.3 833.7,423.1 834.8,426.0 835.8,428.8 836.9,431.6 838.0,434.5 839.0,437.3 840.1,440.1 841.2,442.9 842.2,445.8 843.3,448.6 844.4,451.4 845.4,454.2 846.5,457.1 838.5,459.9 825.6,462.7 812.7,465.5 799.8,468.4 786.9,471.2" fill="url(#g19)" stroke="#fbfcfb" stroke-width="1.1" stroke-linejoin="round"/>
<polygon points="871.2,471.2 866.0,468.4 860.7,465.5 855.5,462.7 850.3,459.9 846.5,457.1 845.4,454.2 844.4,451.4 843.3,448.6 842.2,445.8 841.2,442.9 840.1,440.1 839.0,437.3 838.0,434.5 836.9,431.6 835.8,428.8 834.8,426.0 833.7,423.1 832.6,420.3 831.6,417.5 830.5,414.7 829.4,411.8 828.4,409.0 827.3,406.2 826.2,403.4 825.2,400.5 824.1,397.7 823.1,394.9 822.0,392.1 820.9,389.2 819.9,386.4 818.8,383.6 817.7,380.7 816.7,377.9 815.6,375.1 814.5,372.3 813.5,369.4 812.4,366.6 811.3,363.8 810.3,361.0 809.2,358.1 808.1,355.3 807.1,352.5 806.0,349.7 804.9,346.8 804.5,344.0 805.9,341.2 807.3,338.3 808.7,335.5 810.1,332.7 811.5,329.9 812.9,327.0 814.3,324.2 815.7,321.4 817.2,318.6 818.6,315.7 820.0,312.9 821.4,310.1 822.8,307.3 824.2,304.4 825.6,301.6 827.0,298.8 828.4,295.9 829.8,293.1 831.2,290.3 832.6,287.5 834.0,284.6 835.5,281.8 836.9,279.0 838.0,279.0 839.2,281.8 840.4,284.6 841.6,287.5 842.8,290.3 843.9,293.1 845.0,295.9 846.1,298.8 847.2,301.6 848.2,304.4 849.2,307.3 850.2,310.1 851.2,312.9 852.2,315.7 853.1,318.6 854.0,321.4 854.9,324.2 855.8,327.0 856.6,329.9 857.4,332.7 858.3,335.5 859.0,338.3 859.8,341.2 860.5,344.0 861.3,346.8 862.0,349.7 862.6,352.5 863.3,355.3 863.9,358.1 864.5,361.0 865.1,363.8 865.7,366.6 866.3,369.4 866.8,372.3 867.3,375.1 867.8,377.9 868.3,380.7 868.8,383.6 869.2,386.4 869.6,389.2 870.0,392.1 870.4,394.9 870.8,397.7 871.1,400.5 871.4,403.4 871.7,406.2 872.0,409.0 872.3,411.8 872.5,414.7 872.8,417.5 873.0,420.3 873.1,423.1 873.3,426.0 873.5,428.8 873.6,431.6 873.7,434.5 873.8,437.3 873.9,440.1 873.9,442.9 874.0,445.8 874.0,448.6 874.0,451.4 874.0,454.2 873.9,457.1 873.9,459.9 873.8,462.7 873.7,465.5 873.6,468.4 873.5,471.2" fill="url(#g20)" stroke="#fbfcfb" stroke-width="1.1" stroke-linejoin="round"/>
<polygon points="619.7,728.4 614.4,725.6 609.1,722.8 603.9,719.9 598.6,717.1 593.4,714.3 588.1,711.5 582.8,708.6 577.6,705.8 572.3,703.0 567.1,700.2 561.8,697.3 556.5,694.5 551.3,691.7 546.0,688.9 540.8,686.0 535.5,683.2 539.8,680.4 544.7,677.5 549.5,674.7 554.4,671.9 559.2,669.1 564.1,666.2 568.9,663.4 573.8,660.6 578.6,657.8 583.5,654.9 588.3,652.1 600.2,649.3 614.1,646.5 628.0,643.6 642.0,640.8 655.9,638.0 666.1,638.0 666.5,640.8 666.9,643.6 667.3,646.5 667.8,649.3 668.2,652.1 668.6,654.9 669.0,657.8 669.4,660.6 669.8,663.4 670.3,666.2 670.7,669.1 671.1,671.9 671.5,674.7 671.9,677.5 672.3,680.4 670.4,683.2 667.5,686.0 664.5,688.9 661.6,691.7 658.7,694.5 655.7,697.3 652.8,700.2 649.9,703.0 646.9,705.8 644.0,708.6 641.1,711.5 638.2,714.3 635.2,717.1 632.3,719.9 629.4,722.8 626.4,725.6 623.5,728.4" fill="url(#g21)" stroke="#fbfcfb" stroke-width="1.1" stroke-linejoin="round"/>
<polygon points="765.0,346.8 763.1,344.0 761.2,341.2 759.3,338.3 757.4,335.5 755.5,332.7 753.6,329.9 752.1,327.0 752.7,324.2 753.4,321.4 754.1,318.6 754.7,315.7 755.4,312.9 756.1,310.1 756.7,307.3 757.4,304.4 758.1,301.6 758.7,298.8 759.4,295.9 760.0,293.1 760.7,290.3 761.4,287.5 762.0,284.6 762.7,281.8 763.4,279.0 764.0,276.2 764.7,273.3 765.4,270.5 766.0,267.7 766.7,264.9 767.4,262.0 768.0,259.2 768.7,256.4 769.4,253.5 770.0,250.7 770.7,247.9 771.3,245.1 772.0,242.2 772.7,239.4 774.2,236.6 777.4,233.8 780.6,230.9 783.9,228.1 787.1,225.3 790.3,222.5 793.6,219.6 796.8,216.8 800.0,214.0 802.2,214.0 804.1,216.8 806.0,219.6 807.8,222.5 809.6,225.3 811.3,228.1 813.0,230.9 814.7,233.8 816.4,236.6 818.0,239.4 819.6,242.2 821.2,245.1 822.7,247.9 824.3,250.7 825.7,253.5 827.2,256.4 828.6,259.2 830.1,262.0 831.4,264.9 832.8,267.7 834.1,270.5 835.4,273.3 836.7,276.2 836.9,279.0 835.5,281.8 834.0,284.6 832.6,287.5 831.2,290.3 829.8,293.1 828.4,295.9 827.0,298.8 825.6,301.6 824.2,304.4 822.8,307.3 821.4,310.1 820.0,312.9 818.6,315.7 817.2,318.6 815.7,321.4 814.3,324.2 812.9,327.0 811.5,329.9 810.1,332.7 808.7,335.5 807.3,338.3 805.9,341.2 804.5,344.0 772.7,346.8" fill="url(#g22)" stroke="#fbfcfb" stroke-width="1.1" stroke-linejoin="round"/>
<polygon points="148.6,151.8 151.4,149.0 154.3,146.1 157.2,143.3 160.2,140.5 163.3,137.7 166.4,134.8 169.6,132.0 172.8,129.2 176.1,126.3 179.5,123.5 182.9,120.7 186.4,117.9 190.0,115.0 193.7,112.2 197.5,109.4 201.4,106.6 205.3,103.7 209.4,100.9 213.5,98.1 217.8,95.3 222.1,92.4 226.6,89.6 231.3,86.8 236.0,83.9 240.9,81.1 246.0,78.3 251.3,75.5 256.7,72.6 262.3,69.8 268.1,67.0 274.2,64.2 280.5,61.3 287.2,58.5 294.2,55.7 301.5,52.9 309.3,50.0 317.6,47.2 326.5,44.4 327.3,44.4 326.9,47.2 326.5,50.0 326.0,52.9 325.6,55.7 325.2,58.5 324.8,61.3 324.4,64.2 323.9,67.0 323.5,69.8 322.2,72.6 318.8,75.5 315.4,78.3 312.0,81.1 308.6,83.9 305.2,86.8 301.8,89.6 298.4,92.4 295.0,95.3 291.6,98.1 288.2,100.9 284.8,103.7 281.4,106.6 278.0,109.4 274.6,112.2 271.2,115.0 267.8,117.9 264.4,120.7 261.0,123.5 257.6,126.3 254.2,129.2 250.8,132.0 247.4,134.8 244.0,137.7 240.6,140.5 237.2,143.3 233.8,146.1 230.4,149.0 191.7,151.8" fill="url(#g23)" stroke="#fbfcfb" stroke-width="1.1" stroke-linejoin="round"/>
<polygon points="461.1,872.6 461.6,869.8 462.1,866.9 462.6,864.1 463.0,861.3 463.5,858.5 464.0,855.6 464.5,852.8 465.0,850.0 465.4,847.1 465.9,844.3 466.4,841.5 466.9,838.7 467.4,835.8 475.3,833.0 484.0,830.2 492.7,827.4 501.3,824.5 510.0,821.7 518.7,818.9 527.4,816.1 536.1,813.2 544.8,810.4 553.5,807.6 562.2,804.7 570.9,801.9 579.6,799.1 586.9,799.1 588.7,801.9 590.5,804.7 592.3,807.6 594.2,810.4 596.0,813.2 597.8,816.1 599.6,818.9 601.5,821.7 603.3,824.5 605.1,827.4 606.9,830.2 608.7,833.0 610.6,835.8 612.4,838.7 612.8,841.5 605.8,844.3 598.5,847.1 590.7,850.0 582.4,852.8 573.5,855.6 563.8,858.5 553.1,861.3 541.1,864.1 527.1,866.9 509.8,869.8 484.6,872.6" fill="url(#g24)" stroke="#fbfcfb" stroke-width="1.1" stroke-linejoin="round"/>
<polygon points="440.2,719.9 430.3,717.1 420.3,714.3 410.3,711.5 400.3,708.6 390.3,705.8 380.3,703.0 370.4,700.2 364.2,697.3 366.0,694.5 367.9,691.7 369.7,688.9 371.6,686.0 373.4,683.2 375.2,680.4 377.1,677.5 378.9,674.7 380.7,671.9 382.6,669.1 384.4,666.2 386.2,663.4 388.1,660.6 389.9,657.8 391.8,654.9 393.6,652.1 395.4,649.3 397.3,646.5 399.1,643.6 406.9,643.6 415.3,646.5 423.7,649.3 432.1,652.1 440.5,654.9 448.9,657.8 457.3,660.6 465.7,663.4 474.1,666.2 482.5,669.1 490.9,671.9 499.3,674.7 507.7,677.5 516.1,680.4 524.5,683.2 521.3,686.0 514.9,688.9 508.4,691.7 501.9,694.5 495.5,697.3 489.0,700.2 482.5,703.0 476.0,705.8 469.6,708.6 463.1,711.5 456.6,714.3 450.2,717.1 443.7,719.9" fill="url(#g25)" stroke="#fbfcfb" stroke-width="1.1" stroke-linejoin="round"/>
<polygon points="421.7,86.8 403.2,83.9 384.6,81.1 366.1,78.3 347.6,75.5 329.0,72.6 323.5,69.8 323.9,67.0 324.4,64.2 324.8,61.3 325.2,58.5 325.6,55.7 326.0,52.9 326.5,50.0 326.9,47.2 327.3,44.4 336.2,41.5 346.9,38.7 358.9,35.9 372.9,33.1 390.2,30.2 415.4,27.4 484.6,27.4 487.8,30.2 484.9,33.1 482.0,35.9 479.2,38.7 476.3,41.5 473.4,44.4 470.5,47.2 467.7,50.0 464.8,52.9 461.9,55.7 459.0,58.5 456.2,61.3 453.3,64.2 450.4,67.0 447.5,69.8 444.6,72.6 441.8,75.5 438.9,78.3 436.0,81.1 433.1,83.9 430.3,86.8" fill="url(#g26)" stroke="#fbfcfb" stroke-width="1.1" stroke-linejoin="round"/>
<polygon points="773.1,536.2 773.5,533.4 773.9,530.6 774.2,527.7 774.6,524.9 775.0,522.1 775.3,519.3 775.7,516.4 776.0,513.6 776.4,510.8 776.8,507.9 777.1,505.1 777.5,502.3 777.9,499.5 778.2,496.6 778.6,493.8 778.9,491.0 779.3,488.2 779.7,485.3 780.0,482.5 780.4,479.7 780.8,476.9 781.1,474.0 786.9,471.2 799.8,468.4 812.7,465.5 825.6,462.7 838.5,459.9 850.3,459.9 855.5,462.7 860.7,465.5 866.0,468.4 871.2,471.2 873.3,474.0 873.1,476.9 873.0,479.7 872.8,482.5 872.5,485.3 872.3,488.2 872.0,491.0 871.7,493.8 871.4,496.6 871.1,499.5 870.8,502.3 870.4,505.1 870.0,507.9 869.6,510.8 869.2,513.6 868.8,516.4 868.3,519.3 867.8,522.1 867.3,524.9 866.8,527.7 866.3,530.6 865.7,533.4 865.1,536.2" fill="url(#g27)" stroke="#fbfcfb" stroke-width="1.1" stroke-linejoin="round"/>
<polygon points="764.9,731.3 764.6,728.4 764.4,725.6 764.1,722.8 763.9,719.9 763.6,717.1 763.3,714.3 763.1,711.5 762.8,708.6 762.6,705.8 762.3,703.0 762.0,700.2 761.8,697.3 761.5,694.5 761.2,691.7 761.0,688.9 760.7,686.0 760.5,683.2 760.2,680.4 759.9,677.5 759.7,674.7 759.4,671.9 759.1,669.1 758.9,666.2 758.6,663.4 758.4,660.6 758.1,657.8 757.8,654.9 757.6,652.1 757.3,649.3 757.1,646.5 756.8,643.6 758.1,640.8 759.6,638.0 761.1,635.1 762.6,632.3 764.1,629.5 765.6,626.7 767.0,623.8 768.5,621.0 773.1,618.2 780.0,615.4 786.9,612.5 793.9,609.7 800.8,606.9 807.7,604.1 814.6,601.2 821.6,598.4 828.5,595.6 835.4,592.7 842.3,589.9 849.3,587.1 851.2,587.1 850.2,589.9 849.2,592.7 848.2,595.6 847.2,598.4 846.1,601.2 845.0,604.1 843.9,606.9 842.8,609.7 841.6,612.5 840.4,615.4 839.2,618.2 838.0,621.0 836.7,623.8 835.4,626.7 834.1,629.5 832.8,632.3 831.4,635.1 830.1,638.0 828.6,640.8 827.2,643.6 825.7,646.5 824.3,649.3 822.7,652.1 821.2,654.9 819.6,657.8 818.0,660.6 816.4,663.4 814.7,666.2 813.0,669.1 811.3,671.9 809.6,674.7 807.8,677.5 806.0,680.4 804.1,683.2 802.2,686.0 800.3,688.9 798.4,691.7 796.4,694.5 794.4,697.3 792.3,700.2 790.3,703.0 788.1,705.8 786.0,708.6 783.8,711.5 781.5,714.3 779.3,717.1 777.0,719.9 774.6,722.8 772.2,725.6 769.8,728.4 767.3,731.3" fill="url(#g28)" stroke="#fbfcfb" stroke-width="1.1" stroke-linejoin="round"/>
<polygon points="612.4,838.7 610.6,835.8 608.7,833.0 606.9,830.2 605.1,827.4 603.3,824.5 601.5,821.7 599.6,818.9 597.8,816.1 596.0,813.2 594.2,810.4 592.3,807.6 590.5,804.7 588.7,801.9 586.9,799.1 586.3,796.3 588.8,793.4 591.2,790.6 593.7,787.8 596.1,785.0 598.5,782.1 601.0,779.3 603.4,776.5 605.8,773.7 608.3,770.8 610.7,768.0 613.1,765.2 615.6,762.3 618.0,759.5 637.3,759.5 657.9,762.3 678.5,765.2 699.1,768.0 719.8,770.8 723.9,773.7 720.5,776.5 717.1,779.3 713.6,782.1 710.0,785.0 706.3,787.8 702.5,790.6 698.6,793.4 694.7,796.3 690.6,799.1 686.5,801.9 682.2,804.7 677.9,807.6 673.4,810.4 668.7,813.2 664.0,816.1 659.1,818.9 654.0,821.7 648.7,824.5 643.3,827.4 637.7,830.2 631.9,833.0 625.8,835.8 619.5,838.7" fill="url(#g29)" stroke="#fbfcfb" stroke-width="1.1" stroke-linejoin="round"/>
<polygon points="65.9,270.5 67.2,267.7 68.6,264.9 69.9,262.0 71.4,259.2 72.8,256.4 74.3,253.5 75.7,250.7 77.3,247.9 78.8,245.1 80.4,242.2 82.0,239.4 83.6,236.6 85.3,233.8 87.0,230.9 88.7,228.1 90.4,225.3 92.2,222.5 94.0,219.6 95.9,216.8 97.8,214.0 99.7,211.1 101.6,208.3 103.6,205.5 105.6,202.7 107.7,199.8 109.7,197.0 111.9,194.2 114.0,191.4 116.2,188.5 118.5,185.7 120.7,182.9 123.0,180.1 125.4,177.2 127.8,174.4 130.2,171.6 132.7,168.7 135.2,165.9 137.8,163.1 140.4,160.3 143.1,157.4 145.8,154.6 191.7,151.8 228.2,151.8 226.5,154.6 224.7,157.4 222.9,160.3 221.1,163.1 219.3,165.9 217.6,168.7 215.8,171.6 213.8,174.4 209.5,177.2 205.2,180.1 200.8,182.9 196.5,185.7 192.2,188.5 187.8,191.4 183.5,194.2 179.2,197.0 174.8,199.8 170.5,202.7 166.1,205.5 161.8,208.3 157.5,211.1 153.1,214.0 148.8,216.8 144.5,219.6 140.1,222.5 135.8,225.3 131.4,228.1 127.1,230.9 122.8,233.8 118.4,236.6 114.1,239.4 109.8,242.2 105.4,245.1 101.1,247.9 96.8,250.7 92.4,253.5 88.1,256.4 83.7,259.2 79.4,262.0 75.1,264.9 70.7,267.7 66.4,270.5" fill="url(#g30)" stroke="#fbfcfb" stroke-width="1.1" stroke-linejoin="round"/>
<polygon points="751.2,327.0 745.2,324.2 739.2,321.4 733.3,318.6 727.3,315.7 721.3,312.9 715.3,310.1 709.3,307.3 703.4,304.4 699.2,301.6 698.1,298.8 697.0,295.9 695.8,293.1 694.7,290.3 693.6,287.5 692.5,284.6 691.4,281.8 690.2,279.0 689.1,276.2 688.0,273.3 686.9,270.5 685.7,267.7 684.6,264.9 683.5,262.0 682.4,259.2 681.3,256.4 680.1,253.5 679.0,250.7 677.9,247.9 676.8,245.1 675.6,242.2 674.5,239.4 673.4,236.6 672.3,233.8 671.2,230.9 698.1,230.9 730.3,233.8 762.5,236.6 772.7,239.4 772.0,242.2 771.3,245.1 770.7,247.9 770.0,250.7 769.4,253.5 768.7,256.4 768.0,259.2 767.4,262.0 766.7,264.9 766.0,267.7 765.4,270.5 764.7,273.3 764.0,276.2 763.4,279.0 762.7,281.8 762.0,284.6 761.4,287.5 760.7,290.3 760.0,293.1 759.4,295.9 758.7,298.8 758.1,301.6 757.4,304.4 756.7,307.3 756.1,310.1 755.4,312.9 754.7,315.7 754.1,318.6 753.4,321.4 752.7,324.2 752.1,327.0" fill="url(#g31)" stroke="#fbfcfb" stroke-width="1.1" stroke-linejoin="round"/>
<polygon points="719.8,770.8 699.1,768.0 678.5,765.2 657.9,762.3 637.3,759.5 620.1,756.7 620.3,753.9 620.5,751.0 620.7,748.2 620.9,745.4 621.2,742.6 621.4,739.7 621.6,736.9 621.8,734.1 622.0,731.3 623.5,728.4 626.4,725.6 629.4,722.8 632.3,719.9 635.2,717.1 638.2,714.3 641.1,711.5 644.0,708.6 646.9,705.8 649.9,703.0 652.8,700.2 655.7,697.3 658.7,694.5 661.6,691.7 664.5,688.9 667.5,686.0 670.4,683.2 682.8,683.2 695.9,686.0 697.1,688.9 698.3,691.7 699.6,694.5 700.8,697.3 702.0,700.2 703.3,703.0 704.5,705.8 705.8,708.6 707.0,711.5 708.2,714.3 709.5,717.1 710.7,719.9 712.0,722.8 713.2,725.6 714.4,728.4 715.7,731.3 716.9,734.1 718.1,736.9 719.4,739.7 720.6,742.6 721.9,745.4 723.1,748.2 724.3,751.0 725.6,753.9 726.8,756.7 728.1,759.5 729.3,762.3 730.5,765.2 730.4,768.0 727.2,770.8" fill="url(#g32)" stroke="#fbfcfb" stroke-width="1.1" stroke-linejoin="round"/>
<polygon points="768.8,618.2 768.0,615.4 767.3,612.5 766.6,609.7 765.9,606.9 765.1,604.1 764.4,601.2 763.7,598.4 763.0,595.6 762.3,592.7 761.5,589.9 760.8,587.1 760.1,584.3 759.4,581.4 758.6,578.6 757.9,575.8 757.2,573.0 756.5,570.1 755.8,567.3 755.0,564.5 754.7,561.7 756.8,558.8 758.9,556.0 761.0,553.2 763.2,550.3 765.3,547.5 767.4,544.7 769.5,541.9 771.7,539.0 864.5,539.0 863.9,541.9 863.3,544.7 862.6,547.5 862.0,550.3 861.3,553.2 860.5,556.0 859.8,558.8 859.0,561.7 858.3,564.5 857.4,567.3 856.6,570.1 855.8,573.0 854.9,575.8 854.0,578.6 853.1,581.4 852.2,584.3 849.3,587.1 842.3,589.9 835.4,592.7 828.5,595.6 821.6,598.4 814.6,601.2 807.7,604.1 800.8,606.9 793.9,609.7 786.9,612.5 780.0,615.4 773.1,618.2" fill="url(#g33)" stroke="#fbfcfb" stroke-width="1.1" stroke-linejoin="round"/>
<polygon points="620.5,123.5 618.6,120.7 616.7,117.9 614.8,115.0 612.9,112.2 611.0,109.4 609.1,106.6 607.2,103.7 605.3,100.9 603.4,98.1 601.5,95.3 599.6,92.4 597.7,89.6 595.8,86.8 593.9,83.9 592.0,81.1 590.1,78.3 588.2,75.5 586.3,72.6 584.4,69.8 582.5,67.0 581.6,64.2 581.2,61.3 580.8,58.5 580.4,55.7 580.1,52.9 579.7,50.0 579.3,47.2 582.4,47.2 590.7,50.0 598.5,52.9 605.8,55.7 612.8,58.5 619.5,61.3 625.8,64.2 631.9,67.0 637.7,69.8 643.3,72.6 648.7,75.5 654.0,78.3 659.1,81.1 664.0,83.9 668.7,86.8 673.4,89.6 677.9,92.4 682.2,95.3 686.5,98.1 690.6,100.9 694.7,103.7 698.6,106.6 702.5,109.4 706.3,112.2 710.0,115.0 713.6,117.9 717.1,120.7 651.5,123.5" fill="url(#g34)" stroke="#fbfcfb" stroke-width="1.1" stroke-linejoin="round"/>
<polygon points="430.3,86.8 433.1,83.9 436.0,81.1 438.9,78.3 441.8,75.5 444.6,72.6 447.5,69.8 450.4,67.0 453.3,64.2 456.2,61.3 459.0,58.5 461.9,55.7 464.8,52.9 467.7,50.0 470.5,47.2 473.4,44.4 476.3,41.5 479.2,38.7 482.0,35.9 484.9,33.1 487.8,30.2 509.8,30.2 527.1,33.1 541.1,35.9 553.1,38.7 563.8,41.5 573.5,44.4 579.3,47.2 579.7,50.0 580.1,52.9 580.4,55.7 580.8,58.5 581.2,61.3 581.6,64.2 574.4,67.0 555.5,69.8 536.6,72.6 517.6,75.5 498.7,78.3 479.7,81.1 460.8,83.9 441.9,86.8" fill="url(#g35)" stroke="#fbfcfb" stroke-width="1.1" stroke-linejoin="round"/>
<polygon points="730.5,765.2 729.3,762.3 728.1,759.5 726.8,756.7 725.6,753.9 724.3,751.0 723.1,748.2 721.9,745.4 720.6,742.6 719.4,739.7 718.1,736.9 716.9,734.1 715.7,731.3 714.4,728.4 713.2,725.6 712.0,722.8 710.7,719.9 709.5,717.1 708.2,714.3 707.0,711.5 705.8,708.6 704.5,705.8 703.3,703.0 702.0,700.2 700.8,697.3 699.6,694.5 698.3,691.7 697.1,688.9 695.9,686.0 699.3,683.2 703.4,680.4 707.5,677.5 711.6,674.7 715.6,671.9 719.7,669.1 723.8,666.2 727.9,663.4 732.0,660.6 736.1,657.8 740.1,654.9 744.2,652.1 748.3,649.3 752.4,646.5 756.5,643.6 756.8,643.6 757.1,646.5 757.3,649.3 757.6,652.1 757.8,654.9 758.1,657.8 758.4,660.6 758.6,663.4 758.9,666.2 759.1,669.1 759.4,671.9 759.7,674.7 759.9,677.5 760.2,680.4 760.5,683.2 760.7,686.0 761.0,688.9 761.2,691.7 761.5,694.5 761.8,697.3 762.0,700.2 762.3,703.0 762.6,705.8 762.8,708.6 763.1,711.5 763.3,714.3 763.6,717.1 763.9,719.9 764.1,722.8 764.4,725.6 764.6,728.4 764.9,731.3 764.8,734.1 762.2,736.9 759.6,739.7 756.9,742.6 754.2,745.4 751.4,748.2 748.6,751.0 745.7,753.9 742.8,756.7 739.8,759.5 736.7,762.3 733.6,765.2" fill="url(#g36)" stroke="#fbfcfb" stroke-width="1.1" stroke-linejoin="round"/>
<polygon points="186.4,782.1 182.9,779.3 179.5,776.5 176.1,773.7 172.8,770.8 169.6,768.0 166.4,765.2 163.3,762.3 160.2,759.5 157.2,756.7 154.3,753.9 151.4,751.0 148.6,748.2 145.8,745.4 143.1,742.6 140.4,739.7 137.8,736.9 135.2,734.1 132.7,731.3 130.2,728.4 127.8,725.6 125.4,722.8 123.0,719.9 120.7,717.1 118.5,714.3 116.2,711.5 114.0,708.6 111.9,705.8 109.7,703.0 107.7,700.2 105.6,697.3 103.6,694.5 101.6,691.7 99.7,688.9 97.8,686.0 95.9,683.2 94.0,680.4 92.2,677.5 90.4,674.7 102.2,674.7 115.9,677.5 129.6,680.4 143.3,683.2 157.1,686.0 162.0,688.9 164.6,691.7 167.1,694.5 169.6,697.3 172.1,700.2 174.6,703.0 177.1,705.8 179.5,708.6 179.8,711.5 180.0,714.3 180.3,717.1 180.6,719.9 180.9,722.8 181.2,725.6 181.4,728.4 181.7,731.3 182.0,734.1 182.3,736.9 182.5,739.7 182.8,742.6 183.1,745.4 183.4,748.2 183.7,751.0 183.9,753.9 184.2,756.7 184.5,759.5 184.8,762.3 185.1,765.2 185.3,768.0 185.6,770.8 185.9,773.7 186.2,776.5 186.5,779.3 186.7,782.1" fill="url(#g37)" stroke="#fbfcfb" stroke-width="1.1" stroke-linejoin="round"/>
<polygon points="384.7,573.0 379.8,570.1 374.8,567.3 369.8,564.5 370.8,561.7 372.9,558.8 374.9,556.0 377.0,553.2 379.0,550.3 381.1,547.5 383.1,544.7 385.2,541.9 387.2,539.0 389.3,536.2 391.3,533.4 393.4,530.6 395.4,527.7 397.5,524.9 399.5,522.1 401.6,519.3 403.6,516.4 405.7,513.6 407.7,510.8 409.8,507.9 411.8,505.1 413.9,502.3 415.9,499.5 418.0,496.6 420.0,493.8 422.1,491.0 424.1,488.2 426.2,485.3 428.2,482.5 430.3,479.7 432.3,476.9 434.4,474.0 436.4,471.2 438.5,468.4 440.5,465.5 442.6,462.7 444.6,459.9 446.7,457.1 448.7,454.2 450.8,451.4 451.2,451.4 456.9,454.2 457.9,457.1 458.8,459.9 459.8,462.7 460.7,465.5 461.7,468.4 462.6,471.2 463.6,474.0 464.5,476.9 465.5,479.7 466.4,482.5 467.3,485.3 468.3,488.2 469.2,491.0 470.2,493.8 471.1,496.6 471.9,499.5 470.4,502.3 467.2,505.1 463.9,507.9 460.7,510.8 457.5,513.6 454.3,516.4 451.1,519.3 447.9,522.1 444.6,524.9 441.4,527.7 438.2,530.6 435.0,533.4 431.8,536.2 428.5,539.0 425.3,541.9 422.1,544.7 418.9,547.5 415.7,550.3 412.5,553.2 409.2,556.0 406.0,558.8 402.8,561.7 399.6,564.5 396.4,567.3 393.1,570.1 389.9,573.0" fill="url(#g38)" stroke="#fbfcfb" stroke-width="1.1" stroke-linejoin="round"/>
<polygon points="471.1,496.6 470.2,493.8 469.2,491.0 468.3,488.2 467.3,485.3 466.4,482.5 465.5,479.7 464.5,476.9 463.6,474.0 462.6,471.2 461.7,468.4 460.7,465.5 459.8,462.7 458.8,459.9 457.9,457.1 456.9,454.2 461.0,451.4 474.7,448.6 512.8,445.8 550.8,442.9 588.9,440.1 627.0,437.3 633.1,437.3 625.7,440.1 618.4,442.9 611.0,445.8 603.7,448.6 596.3,451.4 589.0,454.2 581.6,457.1 574.3,459.9 566.9,462.7 559.6,465.5 552.3,468.4 544.9,471.2 537.6,474.0 530.2,476.9 522.9,479.7 515.5,482.5 508.2,485.3 500.8,488.2 493.5,491.0 486.1,493.8 478.8,496.6" fill="url(#g39)" stroke="#fbfcfb" stroke-width="1.1" stroke-linejoin="round"/>
<circle cx="450.0" cy="450.0" r="424.0" fill="url(#lit)"/>
<circle cx="450.0" cy="450.0" r="424.0" fill="url(#rim)"/>
<g text-anchor="middle" fill="#16180f" style="text-shadow:0 1px 2px rgba(0,0,0,.45)">
<text x="187.1" y="421.5" font-size="26.0" font-weight="700">Andy Burnham</text>
<text x="187.1" y="450.6" font-size="26.0" font-weight="700">conference speech</text>
<text x="187.1" y="478.4" font-size="17.2" font-weight="600" font-family="monospace" opacity="0.92">-0.2</text>
</g>
<g text-anchor="middle" fill="#16180f" style="text-shadow:0 1px 2px rgba(0,0,0,.45)">
<text x="486.7" y="245.4" font-size="19.7" font-weight="700">RAF Fairford</text>
<text x="486.7" y="267.5" font-size="19.7" font-weight="700">security incident</text>
<text x="486.7" y="288.6" font-size="13.0" font-weight="600" font-family="monospace" opacity="0.92">-0.1</text>
</g>
<g text-anchor="middle" fill="#16180f" style="text-shadow:0 1px 2px rgba(0,0,0,.45)">
<text x="604.8" y="522.9" font-size="19.1" font-weight="700">Earl Spencer Diana</text>
<text x="605.5" y="544.3" font-size="19.1" font-weight="700">book theft</text>
<text x="605.5" y="564.8" font-size="12.6" font-weight="600" font-family="monospace" opacity="0.92">-0.2</text>
</g>
<g text-anchor="middle" fill="#16180f" style="text-shadow:0 1px 2px rgba(0,0,0,.45)">
<text x="599.8" y="344.9" font-size="17.4" font-weight="700">Triple lock</text>
<text x="599.8" y="364.4" font-size="17.4" font-weight="700">social care</text>
<text x="599.8" y="383.8" font-size="17.4" font-weight="700">funding</text>
<text x="599.8" y="402.4" font-size="11.5" font-weight="600" font-family="monospace" opacity="0.92">-0.1</text>
</g>
<g text-anchor="middle" fill="#16180f" style="text-shadow:0 1px 2px rgba(0,0,0,.45)">
<text x="345.4" y="133.9" font-size="17.8" font-weight="700">Labour debate on</text>
<text x="345.4" y="153.8" font-size="17.8" font-weight="700">rejoining EU</text>
<text x="345.4" y="172.8" font-size="11.7" font-weight="600" font-family="monospace" opacity="0.92">-0.0</text>
</g>
<g text-anchor="middle" fill="#fbf9f0" style="text-shadow:0 1px 2px rgba(0,0,0,.45)">
<text x="520.7" y="739.1" font-size="17.3" font-weight="700">Death row inmate</text>
<text x="520.7" y="758.5" font-size="17.3" font-weight="700">Christa Pike</text>
<text x="520.7" y="777.0" font-size="11.4" font-weight="600" font-family="monospace" opacity="0.92">-0.4</text>
</g>
<g text-anchor="middle" fill="#fbf9f0" style="text-shadow:0 1px 2px rgba(0,0,0,.45)">
<text x="322.8" y="637.7" font-size="16.8" font-weight="700">FlyDubai cockpit</text>
<text x="322.8" y="656.6" font-size="16.8" font-weight="700">brawl diversion</text>
<text x="322.8" y="674.6" font-size="11.1" font-weight="600" font-family="monospace" opacity="0.92">-1.3</text>
</g>
<g text-anchor="middle" fill="#16180f" style="text-shadow:0 1px 2px rgba(0,0,0,.45)">
<text x="464.1" y="586.6" font-size="17.1" font-weight="700">Putin refuses to</text>
<text x="464.1" y="605.8" font-size="17.1" font-weight="700">end Ukraine war</text>
<text x="464.1" y="624.1" font-size="11.3" font-weight="600" font-family="monospace" opacity="0.92">+0.6</text>
</g>
<g text-anchor="middle" fill="#16180f" style="text-shadow:0 1px 2px rgba(0,0,0,.45)">
<text x="559.6" y="101.9" font-size="15.3" font-weight="700">AI risks and</text>
<text x="530.6" y="119.0" font-size="15.3" font-weight="700">international regulation</text>
<text x="560.2" y="135.3" font-size="10.1" font-weight="600" font-family="monospace" opacity="0.92">+0.2</text>
</g>
<g text-anchor="middle" fill="#16180f" style="text-shadow:0 1px 2px rgba(0,0,0,.45)">
<text x="270.7" y="762.3" font-size="16.6" font-weight="700">Late September</text>
<text x="271.9" y="780.9" font-size="16.6" font-weight="700">warm weather</text>
<text x="271.9" y="798.7" font-size="11.0" font-weight="600" font-family="monospace" opacity="0.92">+0.3</text>
</g>
<g text-anchor="middle" fill="#16180f" style="text-shadow:0 1px 2px rgba(0,0,0,.45)">
<text x="701.6" y="154.1" font-size="16.3" font-weight="700">Ranulph</text>
<text x="701.6" y="172.4" font-size="16.3" font-weight="700">Fiennes care</text>
<text x="701.6" y="190.7" font-size="16.3" font-weight="700">inquiry calls</text>
<text x="701.6" y="208.1" font-size="10.8" font-weight="600" font-family="monospace" opacity="0.92">+0.8</text>
</g>
<g text-anchor="middle" fill="#fbf9f0" style="text-shadow:0 1px 2px rgba(0,0,0,.45)">
<text x="396.3" y="432.5" font-size="15.3" font-weight="700">Esther</text>
<text x="396.3" y="449.6" font-size="15.3" font-weight="700">Rantzen</text>
<text x="396.3" y="466.8" font-size="15.3" font-weight="700">dies</text>
<text x="396.3" y="483.1" font-size="10.1" font-weight="600" font-family="monospace" opacity="0.92">+1.1</text>
</g>
<g text-anchor="middle" fill="#16180f" style="text-shadow:0 1px 2px rgba(0,0,0,.45)">
<text x="204.1" y="212.0" font-size="15.3" font-weight="700">Man City</text>
<text x="204.1" y="229.1" font-size="15.3" font-weight="700">financial</text>
<text x="204.1" y="246.3" font-size="15.3" font-weight="700">breaches hearing</text>
<text x="204.1" y="262.7" font-size="10.1" font-weight="600" font-family="monospace" opacity="0.92">+0.4</text>
</g>
<g text-anchor="middle" fill="#fbf9f0" style="text-shadow:0 1px 2px rgba(0,0,0,.45)">
<text x="713.0" y="363.9" font-size="15.8" font-weight="700">Trump US</text>
<text x="712.9" y="381.7" font-size="15.8" font-weight="700">diesel</text>
<text x="712.9" y="399.4" font-size="15.8" font-weight="700">export ban</text>
<text x="712.9" y="416.3" font-size="10.4" font-weight="600" font-family="monospace" opacity="0.92">-0.6</text>
</g>
<g text-anchor="middle" fill="#16180f" style="text-shadow:0 1px 2px rgba(0,0,0,.45)">
<text x="729.8" y="487.3" font-size="14.0" font-weight="700">River Wear</text>
<text x="729.8" y="502.9" font-size="14.0" font-weight="700">car deaths</text>
<text x="729.8" y="517.9" font-size="9.2" font-weight="600" font-family="monospace" opacity="0.92">+0.0</text>
</g>
<g text-anchor="middle" fill="#fbf9f0" style="text-shadow:0 1px 2px rgba(0,0,0,.45)">
<text x="350.0" y="240.1" font-size="15.3" font-weight="700">Early</text>
<text x="345.4" y="257.3" font-size="15.3" font-weight="700">prison</text>
<text x="345.4" y="274.4" font-size="15.3" font-weight="700">release</text>
<text x="345.4" y="291.5" font-size="15.3" font-weight="700">domestic</text>
<text x="345.8" y="308.6" font-size="15.3" font-weight="700">abusers</text>
<text x="345.4" y="324.9" font-size="10.1" font-weight="600" font-family="monospace" opacity="0.92">-1.1</text>
</g>
<g text-anchor="middle" fill="#fbf9f0" style="text-shadow:0 1px 2px rgba(0,0,0,.45)">
<text x="376.8" y="726.7" font-size="15.1" font-weight="700">Christa Pike</text>
<text x="373.7" y="743.6" font-size="15.1" font-weight="700">execution</text>
<text x="373.7" y="760.5" font-size="15.1" font-weight="700">date</text>
<text x="373.7" y="776.7" font-size="10.0" font-weight="600" font-family="monospace" opacity="0.92">-0.4</text>
</g>
<g text-anchor="middle" fill="#16180f" style="text-shadow:0 1px 2px rgba(0,0,0,.45)">
<text x="407.0" y="838.2" font-size="13.5" font-weight="700">Labour spending</text>
<text x="418.9" y="853.3" font-size="13.5" font-weight="700">warnings</text>
<text x="418.9" y="867.7" font-size="8.9" font-weight="600" font-family="monospace" opacity="0.92">-0.1</text>
</g>
<g text-anchor="middle" fill="#fbf9f0" style="text-shadow:0 1px 2px rgba(0,0,0,.45)">
<text x="731.6" y="589.4" font-size="14.5" font-weight="700">French</text>
<text x="729.8" y="605.6" font-size="14.5" font-weight="700">student</text>
<text x="729.8" y="621.8" font-size="14.5" font-weight="700">protests</text>
<text x="720.2" y="638.1" font-size="14.5" font-weight="700">and clashes</text>
<text x="729.8" y="653.6" font-size="9.6" font-weight="600" font-family="monospace" opacity="0.92">-1.2</text>
</g>
<g text-anchor="middle" fill="#fbf9f0" style="text-shadow:0 1px 2px rgba(0,0,0,.45)">
<text x="797.7" y="398.6" font-size="12.9" font-weight="700">Fuel</text>
<text x="797.7" y="413.0" font-size="12.9" font-weight="700">prices</text>
<text x="797.7" y="427.5" font-size="12.9" font-weight="700">near</text>
<text x="797.7" y="442.0" font-size="12.9" font-weight="700">four-year</text>
<text x="797.7" y="456.4" font-size="12.9" font-weight="700">highs</text>
<text x="792.5" y="470.3" font-size="8.5" font-weight="600" font-family="monospace" opacity="0.92">-1.1</text>
</g>
<g text-anchor="middle" fill="#16180f" style="text-shadow:0 1px 2px rgba(0,0,0,.45)">
<text x="836.0" y="333.4" font-size="12.4" font-weight="700">Clancy</text>
<text x="837.3" y="347.2" font-size="12.4" font-weight="700">case</text>
<text x="837.3" y="361.0" font-size="12.4" font-weight="700">juror</text>
<text x="837.3" y="374.9" font-size="12.4" font-weight="700">safety</text>
<text x="837.3" y="388.1" font-size="8.2" font-weight="600" font-family="monospace" opacity="0.92">+0.7</text>
</g>
<g text-anchor="middle" fill="#fbf9f0" style="text-shadow:0 1px 2px rgba(0,0,0,.45)">
<text x="611.1" y="673.3" font-size="14.7" font-weight="700">Farage border</text>
<text x="611.1" y="689.8" font-size="14.7" font-weight="700">control remarks</text>
<text x="611.1" y="705.5" font-size="9.7" font-weight="600" font-family="monospace" opacity="0.92">-0.8</text>
</g>
<g text-anchor="middle" fill="#16180f" style="text-shadow:0 1px 2px rgba(0,0,0,.45)">
<text x="797.7" y="251.8" font-size="10.6" font-weight="700">Cornell</text>
<text x="797.7" y="263.7" font-size="10.6" font-weight="700">fraternity</text>
<text x="797.7" y="275.6" font-size="10.6" font-weight="700">rape</text>
<text x="797.7" y="287.6" font-size="10.6" font-weight="700">investigation</text>
<text x="797.7" y="299.0" font-size="7.0" font-weight="600" font-family="monospace" opacity="0.92">-0.2</text>
</g>
<g text-anchor="middle" fill="#16180f" style="text-shadow:0 1px 2px rgba(0,0,0,.45)">
<text x="265.6" y="88.4" font-size="13.4" font-weight="700">Burnham</text>
<text x="245.5" y="103.3" font-size="13.4" font-weight="700">comments</text>
<text x="232.3" y="118.3" font-size="13.4" font-weight="700">on Man</text>
<text x="232.3" y="133.3" font-size="13.4" font-weight="700">City</text>
<text x="225.5" y="147.6" font-size="8.8" font-weight="600" font-family="monospace" opacity="0.92">+0.5</text>
</g>
<g text-anchor="middle" fill="#16180f" style="text-shadow:0 1px 2px rgba(0,0,0,.45)">
<text x="565.9" y="822.3" font-size="12.1" font-weight="700">National</text>
<text x="551.3" y="835.8" font-size="12.1" font-weight="700">Lottery draw results</text>
<text x="565.9" y="848.8" font-size="8.0" font-weight="600" font-family="monospace" opacity="0.92">+0.2</text>
</g>
<g text-anchor="middle" fill="#16180f" style="text-shadow:0 1px 2px rgba(0,0,0,.45)">
<text x="430.2" y="673.8" font-size="14.1" font-weight="700">Morgan Earl</text>
<text x="430.2" y="689.5" font-size="14.1" font-weight="700">Spencer dispute</text>
<text x="430.2" y="704.6" font-size="9.3" font-weight="600" font-family="monospace" opacity="0.92">+0.0</text>
</g>
<g text-anchor="middle" fill="#fbf9f0" style="text-shadow:0 1px 2px rgba(0,0,0,.45)">
<text x="413.3" y="46.5" font-size="13.7" font-weight="700">Energy price cap</text>
<text x="413.3" y="61.9" font-size="13.7" font-weight="700">rise forecasts</text>
<text x="413.3" y="76.6" font-size="9.1" font-weight="600" font-family="monospace" opacity="0.92">-1.0</text>
</g>
<g text-anchor="middle" fill="#16180f" style="text-shadow:0 1px 2px rgba(0,0,0,.45)">
<text x="837.3" y="478.5" font-size="14.7" font-weight="700">Pension</text>
<text x="837.3" y="495.0" font-size="14.7" font-weight="700">cuts for</text>
<text x="831.9" y="511.4" font-size="14.7" font-weight="700">social care</text>
<text x="837.3" y="527.2" font-size="9.7" font-weight="600" font-family="monospace" opacity="0.92">+0.0</text>
</g>
<g text-anchor="middle" fill="#fbf9f0" style="text-shadow:0 1px 2px rgba(0,0,0,.45)">
<text x="792.0" y="626.1" font-size="14.2" font-weight="700">Cyclist</text>
<text x="792.0" y="642.0" font-size="14.2" font-weight="700">killed in</text>
<text x="792.0" y="658.0" font-size="14.2" font-weight="700">crash</text>
<text x="792.0" y="673.3" font-size="9.4" font-weight="600" font-family="monospace" opacity="0.92">-0.7</text>
</g>
<g text-anchor="middle" fill="#fbf9f0" style="text-shadow:0 1px 2px rgba(0,0,0,.45)">
<text x="628.8" y="787.6" font-size="13.0" font-weight="700">Teenagers</text>
<text x="629.3" y="802.2" font-size="13.0" font-weight="700">injured in road</text>
<text x="628.1" y="816.9" font-size="13.0" font-weight="700">crashes</text>
</g>
<g text-anchor="middle" fill="#16180f" style="text-shadow:0 1px 2px rgba(0,0,0,.45)">
<text x="174.1" y="167.0" font-size="10.9" font-weight="700">Burnham Great</text>
<text x="156.0" y="179.2" font-size="10.9" font-weight="700">British Grid</text>
<text x="153.2" y="191.4" font-size="10.9" font-weight="700">plan</text>
<text x="153.2" y="203.1" font-size="7.2" font-weight="600" font-family="monospace" opacity="0.92">+0.4</text>
</g>
<g text-anchor="middle" fill="#16180f" style="text-shadow:0 1px 2px rgba(0,0,0,.45)">
<text x="724.2" y="244.1" font-size="14.7" font-weight="700">Newborn</text>
<text x="724.2" y="260.6" font-size="14.7" font-weight="700">baby</text>
<text x="724.2" y="277.1" font-size="14.7" font-weight="700">shoreline</text>
<text x="724.2" y="293.5" font-size="14.7" font-weight="700">death</text>
<text x="724.2" y="309.3" font-size="9.7" font-weight="600" font-family="monospace" opacity="0.92">+0.5</text>
</g>
<g text-anchor="middle" fill="#16180f" style="text-shadow:0 1px 2px rgba(0,0,0,.45)">
<text x="673.3" y="709.7" font-size="10.6" font-weight="700">Burnham</text>
<text x="673.3" y="721.6" font-size="10.6" font-weight="700">Labour</text>
<text x="673.3" y="733.6" font-size="10.6" font-weight="700">conference</text>
<text x="673.3" y="745.5" font-size="10.6" font-weight="700">speech</text>
<text x="673.3" y="756.9" font-size="7.0" font-weight="600" font-family="monospace" opacity="0.92">+0.8</text>
</g>
<g text-anchor="middle" fill="#fbf9f0" style="text-shadow:0 1px 2px rgba(0,0,0,.45)">
<text x="793.5" y="552.5" font-size="14.4" font-weight="700">Russian</text>
<text x="792.0" y="568.5" font-size="14.4" font-weight="700">military</text>
<text x="793.5" y="584.6" font-size="14.4" font-weight="700">expansion</text>
<text x="792.0" y="600.0" font-size="9.5" font-weight="600" font-family="monospace" opacity="0.92">-1.2</text>
</g>
<g text-anchor="middle" fill="#16180f" style="text-shadow:0 1px 2px rgba(0,0,0,.45)">
<text x="633.7" y="90.5" font-size="8.0" font-weight="700">Sandie Peggie</text>
<text x="633.7" y="99.5" font-size="8.0" font-weight="700">tribunal</text>
<text x="633.7" y="108.0" font-size="5.3" font-weight="600" font-family="monospace" opacity="0.92">+0.2</text>
</g>
<g text-anchor="middle" fill="#fbf9f0" style="text-shadow:0 1px 2px rgba(0,0,0,.45)">
<text x="514.1" y="45.5" font-size="7.7" font-weight="700">RAF Fairford suspects</text>
<text x="498.1" y="54.1" font-size="7.7" font-weight="700">bailed</text>
<text x="498.1" y="62.4" font-size="5.1" font-weight="600" font-family="monospace" opacity="0.92">-0.4</text>
</g>
<g text-anchor="middle" fill="#fbf9f0" style="text-shadow:0 1px 2px rgba(0,0,0,.45)">
<text x="734.3" y="676.8" font-size="10.1" font-weight="700">Flydubai</text>
<text x="729.8" y="688.1" font-size="10.1" font-weight="700">cockpit</text>
<text x="729.8" y="699.5" font-size="10.1" font-weight="700">attack</text>
<text x="729.8" y="710.8" font-size="10.1" font-weight="700">account</text>
<text x="729.8" y="721.6" font-size="6.7" font-weight="600" font-family="monospace" opacity="0.92">+1.5</text>
</g>
<g text-anchor="middle" fill="#16180f" style="text-shadow:0 1px 2px rgba(0,0,0,.45)">
<text x="132.5" y="692.3" font-size="10.9" font-weight="700">Merseyside</text>
<text x="143.1" y="704.5" font-size="10.9" font-weight="700">fire caused</text>
<text x="147.5" y="716.7" font-size="10.9" font-weight="700">by e-bike</text>
<text x="147.5" y="728.9" font-size="10.9" font-weight="700">battery</text>
<text x="147.5" y="740.6" font-size="7.2" font-weight="600" font-family="monospace" opacity="0.92">+0.0</text>
</g>
<g text-anchor="middle" fill="#fbf9f0" style="text-shadow:0 1px 2px rgba(0,0,0,.45)">
<text x="447.1" y="482.0" font-size="8.5" font-weight="700">Graeme</text>
<text x="443.6" y="491.5" font-size="8.5" font-weight="700">Dott child</text>
<text x="441.5" y="501.0" font-size="8.5" font-weight="700">abuse</text>
<text x="441.5" y="510.6" font-size="8.5" font-weight="700">sentencing</text>
<text x="441.5" y="519.7" font-size="5.6" font-weight="600" font-family="monospace" opacity="0.92">-2.0</text>
</g>
<g text-anchor="middle" fill="#16180f" style="text-shadow:0 1px 2px rgba(0,0,0,.45)">
<text x="535.2" y="454.3" font-size="12.8" font-weight="700">UK-France migrant</text>
<text x="503.7" y="468.6" font-size="12.8" font-weight="700">deal</text>
<text x="503.7" y="482.3" font-size="8.5" font-weight="600" font-family="monospace" opacity="0.92">-0.1</text>
</g>
</g>
<text x="26" y="26" font-size="13" fill="#4b5654" font-weight="600">Front Page Monitor &#183; 40 stories, 1256 articles</text><text x="26" y="43" font-size="11" fill="#7c8785">2026-10-02 16:45 UTC &#183; last 48h &#183; 39 of 40 scored</text>
</svg>