<svg xmlns="http://www.w3.org/2000/svg" width="900" height="900" viewBox="0 0 900 900" font-family="Helvetica Neue, Arial, sans-serif">
<rect width="900" height="900" fill="#eef1f0"/>
<defs>
<linearGradient id="g0" x1="0" y1="0" x2="1" y2="0"><stop offset="0" stop-color="#d8e0cc"/><stop offset="1" stop-color="#e8cdc1"/></linearGradient>
<linearGradient id="g1" x1="0" y1="0" x2="1" y2="0"><stop offset="0" stop-color="#e9cabf"/><stop offset="1" stop-color="#eda49d"/></linearGradient>
<linearGradient id="g2" x1="0" y1="0" x2="1" y2="0"><stop offset="0" stop-color="#f4706f"/><stop offset="1" stop-color="#e6dfd1"/></linearGradient>
<linearGradient id="g3" x1="0" y1="0" x2="1" y2="0"><stop offset="0" stop-color="#99d5a5"/><stop offset="1" stop-color="#edaaa2"/></linearGradient>
<linearGradient id="g4" x1="0" y1="0" x2="1" y2="0"><stop offset="0" stop-color="#f1827f"/><stop offset="1" stop-color="#f46060"/></linearGradient>
<linearGradient id="g5" x1="0" y1="0" x2="1" y2="0"><stop offset="0" stop-color="#79d092"/><stop offset="1" stop-color="#f18682"/></linearGradient>
<linearGradient id="g6" x1="0" y1="0" x2="1" y2="0"><stop offset="0" stop-color="#eac0b6"/><stop offset="1" stop-color="#dce0ce"/></linearGradient>
<linearGradient id="g7" x1="0" y1="0" x2="1" y2="0"><stop offset="0" stop-color="#24a154"/><stop offset="1" stop-color="#e7d7cb"/></linearGradient>
<linearGradient id="g8" x1="0" y1="0" x2="1" y2="0"><stop offset="0" stop-color="#e6e2d4"/><stop offset="1" stop-color="#b9dab8"/></linearGradient>
<linearGradient id="g9" x1="0" y1="0" x2="1" y2="0"><stop offset="0" stop-color="#56ca7c"/><stop offset="1" stop-color="#7cd094"/></linearGradient>
<linearGradient id="g10" x1="0" y1="0" x2="1" y2="0"><stop offset="0" stop-color="#74cf8e"/><stop offset="1" stop-color="#e6e2d4"/></linearGradient>
<linearGradient id="g11" x1="0" y1="0" x2="1" y2="0"><stop offset="0" stop-color="#f18783"/><stop offset="1" stop-color="#f08b87"/></linearGradient>
<linearGradient id="g12" x1="0" y1="0" x2="1" y2="0"><stop offset="0" stop-color="#40b96b"/><stop offset="1" stop-color="#52c97a"/></linearGradient>
<linearGradient id="g13" x1="0" y1="0" x2="1" y2="0"><stop offset="0" stop-color="#ee9c96"/><stop offset="1" stop-color="#e9c5ba"/></linearGradient>
<linearGradient id="g14" x1="0" y1="0" x2="1" y2="0"><stop offset="0" stop-color="#f08a86"/><stop offset="1" stop-color="#e52e2e"/></linearGradient>
<linearGradient id="g15" x1="0" y1="0" x2="1" y2="0"><stop offset="0" stop-color="#e6e2d4"/><stop offset="1" stop-color="#e6e2d4"/></linearGradient>
<linearGradient id="g16" x1="0" y1="0" x2="1" y2="0"><stop offset="0" stop-color="#f18581"/><stop offset="1" stop-color="#ee4c4c"/></linearGradient>
<linearGradient id="g17" x1="0" y1="0" x2="1" y2="0"><stop offset="0" stop-color="#d9e0cc"/><stop offset="1" stop-color="#e6dfd1"/></linearGradient>
<linearGradient id="g18" x1="0" y1="0" x2="1" y2="0"><stop offset="0" stop-color="#f46b6a"/><stop offset="1" stop-color="#f15757"/></linearGradient>
<linearGradient id="g19" x1="0" y1="0" x2="1" y2="0"><stop offset="0" stop-color="#dae0cc"/><stop offset="1" stop-color="#e7dccf"/></linearGradient>
<linearGradient id="g20" x1="0" y1="0" x2="1" y2="0"><stop offset="0" stop-color="#8ad29c"/><stop offset="1" stop-color="#b2d9b4"/></linearGradient>
<linearGradient id="g21" x1="0" y1="0" x2="1" y2="0"><stop offset="0" stop-color="#8ed39e"/><stop offset="1" stop-color="#f08f8b"/></linearGradient>
<linearGradient id="g22" x1="0" y1="0" x2="1" y2="0"><stop offset="0" stop-color="#61cb83"/><stop offset="1" stop-color="#e3e1d2"/></linearGradient>
<linearGradient id="g23" x1="0" y1="0" x2="1" y2="0"><stop offset="0" stop-color="#a1d6aa"/><stop offset="1" stop-color="#6bcd89"/></linearGradient>
<linearGradient id="g24" x1="0" y1="0" x2="1" y2="0"><stop offset="0" stop-color="#4bc374"/><stop offset="1" stop-color="#dae0cd"/></linearGradient>
<linearGradient id="g25" x1="0" y1="0" x2="1" y2="0"><stop offset="0" stop-color="#f56464"/><stop offset="1" stop-color="#f56464"/></linearGradient>
<linearGradient id="g26" x1="0" y1="0" x2="1" y2="0"><stop offset="0" stop-color="#eda69f"/><stop offset="1" stop-color="#eac4b9"/></linearGradient>
<linearGradient id="g27" x1="0" y1="0" x2="1" y2="0"><stop offset="0" stop-color="#e6e2d4"/><stop offset="1" stop-color="#e6e2d4"/></linearGradient>
<linearGradient id="g28" x1="0" y1="0" x2="1" y2="0"><stop offset="0" stop-color="#f35d5d"/><stop offset="1" stop-color="#ebbbb2"/></linearGradient>
<linearGradient id="g29" x1="0" y1="0" x2="1" y2="0"><stop offset="0" stop-color="#ecafa7"/><stop offset="1" stop-color="#e83838"/></linearGradient>
<linearGradient id="g30" x1="0" y1="0" x2="1" y2="0"><stop offset="0" stop-color="#e4e2d3"/><stop offset="1" stop-color="#eda9a1"/></linearGradient>
<linearGradient id="g31" x1="0" y1="0" x2="1" y2="0"><stop offset="0" stop-color="#bcbeba"/><stop offset="1" stop-color="#bcbeba"/></linearGradient>
<linearGradient id="g32" x1="0" y1="0" x2="1" y2="0"><stop offset="0" stop-color="#bcbeba"/><stop offset="1" stop-color="#bcbeba"/></linearGradient>
<linearGradient id="g33" x1="0" y1="0" x2="1" y2="0"><stop offset="0" stop-color="#f46a69"/><stop offset="1" stop-color="#f46c6b"/></linearGradient>
<linearGradient id="g34" x1="0" y1="0" x2="1" y2="0"><stop offset="0" stop-color="#e9c5ba"/><stop offset="1" stop-color="#ecafa6"/></linearGradient>
<linearGradient id="g35" x1="0" y1="0" x2="1" y2="0"><stop offset="0" stop-color="#ebbbb1"/><stop offset="1" stop-color="#bbdbba"/></linearGradient>
<linearGradient id="g36" x1="0" y1="0" x2="1" y2="0"><stop offset="0" stop-color="#e7d7ca"/><stop offset="1" stop-color="#bbdbba"/></linearGradient>
<linearGradient id="g37" x1="0" y1="0" x2="1" y2="0"><stop offset="0" stop-color="#ebbab0"/><stop offset="1" stop-color="#ebb6ad"/></linearGradient>
<linearGradient id="g38" x1="0" y1="0" x2="1" y2="0"><stop offset="0" stop-color="#dae0cd"/><stop offset="1" stop-color="#d2dfc8"/></linearGradient>
<linearGradient id="g39" x1="0" y1="0" x2="1" y2="0"><stop offset="0" stop-color="#e83939"/><stop offset="1" stop-color="#9bd5a7"/></linearGradient>
<radialGradient id="lit" cx="0.34" cy="0.28" r="0.78"><stop offset="0" stop-color="#ffffff" stop-opacity="0.42"/><stop offset="0.55" stop-color="#ffffff" stop-opacity="0.05"/><stop offset="1" stop-color="#1a1608" stop-opacity="0.42"/></radialGradient><radialGradient id="rim" cx="0.5" cy="0.5" r="0.5"><stop offset="0.86" stop-color="#000000" stop-opacity="0"/><stop offset="1" stop-color="#000000" stop-opacity="0.30"/></radialGradient><clipPath id="disc"><circle cx="450.0" cy="450.0" r="424.0"/></clipPath></defs>
<g clip-path="url(#disc)">
<polygon points="90.4,674.7 88.7,671.9 87.0,669.1 85.3,666.2 83.6,663.4 82.0,660.6 80.4,657.8 78.8,654.9 77.3,652.1 75.7,649.3 74.3,646.5 72.8,643.6 71.4,640.8 69.9,638.0 68.6,635.1 67.2,632.3 65.9,629.5 64.6,626.7 63.3,623.8 62.0,621.0 60.8,618.2 59.6,615.4 58.4,612.5 57.2,609.7 56.1,606.9 55.0,604.1 53.9,601.2 52.8,598.4 51.8,595.6 50.8,592.7 49.8,589.9 48.8,587.1 47.8,584.3 46.9,581.4 46.0,578.6 45.1,575.8 44.2,573.0 43.4,570.1 42.6,567.3 41.7,564.5 41.0,561.7 40.2,558.8 39.5,556.0 38.7,553.2 38.0,550.3 37.4,547.5 36.7,544.7 36.1,541.9 35.5,539.0 34.9,536.2 34.3,533.4 33.7,530.6 33.2,527.7 32.7,524.9 32.2,522.1 31.7,519.3 31.2,516.4 30.8,513.6 30.4,510.8 30.0,507.9 29.6,505.1 29.2,502.3 28.9,499.5 28.6,496.6 28.3,493.8 28.0,491.0 27.7,488.2 27.5,485.3 27.2,482.5 27.0,479.7 26.9,476.9 26.7,474.0 26.5,471.2 26.4,468.4 26.3,465.5 26.2,462.7 26.1,459.9 26.1,457.1 26.0,454.2 26.0,451.4 26.0,448.6 26.0,445.8 26.1,442.9 26.1,440.1 26.2,437.3 26.3,434.5 26.4,431.6 26.5,428.8 26.7,426.0 26.9,423.1 27.0,420.3 27.2,417.5 27.5,414.7 27.7,411.8 28.0,409.0 28.3,406.2 28.6,403.4 28.9,400.5 29.2,397.7 29.6,394.9 30.0,392.1 30.4,389.2 36.4,389.2 47.3,392.1 58.3,394.9 69.2,397.7 80.2,400.5 91.1,403.4 102.0,406.2 113.0,409.0 123.9,411.8 134.8,414.7 145.8,417.5 156.7,420.3 167.7,423.1 178.6,426.0 189.5,428.8 200.5,431.6 211.4,434.5 222.3,437.3 233.3,440.1 244.2,442.9 255.2,445.8 266.1,448.6 277.0,451.4 288.0,454.2 290.6,457.1 289.7,459.9 288.9,462.7 288.0,465.5 287.2,468.4 286.3,471.2 285.5,474.0 284.6,476.9 283.7,479.7 282.9,482.5 282.0,485.3 281.2,488.2 280.3,491.0 279.5,493.8 278.6,496.6 277.8,499.5 276.9,502.3 276.0,505.1 275.2,507.9 274.3,510.8 273.5,513.6 272.6,516.4 271.8,519.3 270.9,522.1 270.0,524.9 269.2,527.7 268.3,530.6 267.5,533.4 266.6,536.2 265.8,539.0 264.9,541.9 264.1,544.7 263.2,547.5 262.3,550.3 261.5,553.2 260.6,556.0 259.8,558.8 258.9,561.7 258.1,564.5 257.2,567.3 256.4,570.1 255.5,573.0 254.6,575.8 253.8,578.6 252.9,581.4 252.1,584.3 251.2,587.1 248.8,589.9 243.5,592.7 238.3,595.6 233.1,598.4 227.8,601.2 222.6,604.1 217.4,606.9 212.1,609.7 206.9,612.5 201.7,615.4 196.4,618.2 191.2,621.0 186.0,623.8 180.7,626.7 175.5,629.5 170.3,632.3 165.0,635.1 159.8,638.0 154.6,640.8 149.3,643.6 144.1,646.5 138.9,649.3 133.6,652.1 128.4,654.9 123.2,657.8 117.9,660.6 112.7,663.4 107.5,666.2 102.2,669.1 97.0,671.9 91.8,674.7" fill="url(#g0)" stroke="#fbfcfb" stroke-width="1.1" stroke-linejoin="round"/>
<polygon points="538.7,773.7 524.0,770.8 509.3,768.0 494.7,765.2 480.0,762.3 465.4,759.5 450.7,756.7 436.1,753.9 428.1,751.0 425.3,748.2 422.4,745.4 419.6,742.6 416.7,739.7 413.8,736.9 411.0,734.1 408.1,731.3 405.3,728.4 402.4,725.6 399.6,722.8 396.7,719.9 393.9,717.1 391.0,714.3 388.1,711.5 386.2,708.6 388.6,705.8 391.0,703.0 393.5,700.2 395.9,697.3 398.3,694.5 400.7,691.7 403.2,688.9 405.6,686.0 408.0,683.2 410.4,680.4 412.9,677.5 415.3,674.7 417.7,671.9 420.1,669.1 422.6,666.2 425.0,663.4 427.4,660.6 429.8,657.8 432.3,654.9 434.7,652.1 437.1,649.3 439.5,646.5 442.0,643.6 444.4,640.8 446.8,638.0 449.2,635.1 451.7,632.3 454.1,629.5 456.5,626.7 458.9,623.8 461.4,621.0 463.8,618.2 466.2,615.4 468.6,612.5 471.1,609.7 473.5,606.9 475.9,604.1 478.3,601.2 478.9,601.2 494.9,604.1 511.0,606.9 527.0,609.7 543.1,612.5 559.1,615.4 575.2,618.2 591.2,621.0 607.3,623.8 623.3,626.7 639.3,629.5 655.4,632.3 671.4,635.1 687.5,638.0 688.5,640.8 689.0,643.6 689.4,646.5 688.6,649.3 687.9,652.1 687.1,654.9 686.3,657.8 685.5,660.6 684.7,663.4 683.9,666.2 683.2,669.1 682.4,671.9 681.6,674.7 680.8,677.5 680.0,680.4 679.3,683.2 678.5,686.0 677.7,688.9 676.9,691.7 676.1,694.5 675.4,697.3 674.6,700.2 673.8,703.0 673.0,705.8 672.2,708.6 671.4,711.5 670.7,714.3 669.9,717.1 669.1,719.9 668.3,722.8 667.5,725.6 666.8,728.4 666.0,731.3 665.2,734.1 664.4,736.9 661.6,739.7 653.0,742.6 644.5,745.4 635.9,748.2 627.4,751.0 618.8,753.9 610.3,756.7 601.7,759.5 593.1,762.3 584.6,765.2 576.0,768.0 567.5,770.8 558.9,773.7" fill="url(#g1)" stroke="#fbfcfb" stroke-width="1.1" stroke-linejoin="round"/>
<polygon points="687.5,638.0 671.4,635.1 655.4,632.3 639.3,629.5 623.3,626.7 607.3,623.8 591.2,621.0 575.2,618.2 559.1,615.4 543.1,612.5 527.0,609.7 511.0,606.9 494.9,604.1 478.9,601.2 476.9,598.4 475.3,595.6 473.8,592.7 472.2,589.9 470.7,587.1 469.1,584.3 467.6,581.4 466.0,578.6 464.5,575.8 462.9,573.0 461.3,570.1 459.8,567.3 458.2,564.5 456.7,561.7 455.1,558.8 453.6,556.0 452.0,553.2 450.5,550.3 448.9,547.5 447.3,544.7 445.8,541.9 444.2,539.0 442.7,536.2 441.1,533.4 439.6,530.6 438.0,527.7 436.5,524.9 434.9,522.1 433.3,519.3 431.8,516.4 430.2,513.6 428.7,510.8 431.1,507.9 436.1,505.1 441.1,502.3 446.1,499.5 451.1,496.6 456.1,493.8 461.1,491.0 466.1,488.2 471.1,485.3 476.1,482.5 481.1,479.7 486.1,476.9 491.2,474.0 496.2,471.2 501.2,468.4 506.2,465.5 511.2,462.7 516.2,459.9 521.2,457.1 526.2,454.2 531.2,451.4 536.2,448.6 541.2,445.8 546.2,442.9 551.2,440.1 556.2,437.3 561.2,434.5 566.2,431.6 569.7,431.6 572.6,434.5 575.5,437.3 578.4,440.1 581.3,442.9 584.2,445.8 587.1,448.6 590.0,451.4 593.0,454.2 595.9,457.1 598.8,459.9 601.7,462.7 604.6,465.5 607.5,468.4 610.4,471.2 613.3,474.0 616.3,476.9 619.2,479.7 622.1,482.5 625.0,485.3 627.9,488.2 630.8,491.0 633.7,493.8 636.6,496.6 639.5,499.5 642.5,502.3 645.4,505.1 648.3,507.9 651.2,510.8 654.1,513.6 657.0,516.4 659.9,519.3 662.8,522.1 665.8,524.9 668.7,527.7 671.6,530.6 674.5,533.4 677.4,536.2 680.3,539.0 683.2,541.9 686.1,544.7 689.1,547.5 692.0,550.3 694.9,553.2 697.8,556.0 700.7,558.8 703.6,561.7 706.5,564.5 709.4,567.3 712.4,570.1 713.6,573.0 712.5,575.8 711.4,578.6 710.3,581.4 709.2,584.3 708.1,587.1 707.0,589.9 705.8,592.7 704.7,595.6 703.6,598.4 702.5,601.2 701.4,604.1 700.3,606.9 699.2,609.7 698.0,612.5 696.9,615.4 695.8,618.2 694.7,621.0 693.6,623.8 692.5,626.7 691.4,629.5 690.3,632.3 689.1,635.1 688.0,638.0" fill="url(#g2)" stroke="#fbfcfb" stroke-width="1.1" stroke-linejoin="round"/>
<polygon points="331.4,284.6 329.7,281.8 328.0,279.0 326.3,276.2 324.5,273.3 322.8,270.5 321.1,267.7 319.4,264.9 317.6,262.0 315.9,259.2 314.2,256.4 312.5,253.5 310.7,250.7 309.0,247.9 307.3,245.1 305.6,242.2 303.8,239.4 302.1,236.6 300.4,233.8 298.7,230.9 296.9,228.1 295.2,225.3 293.5,222.5 291.8,219.6 290.0,216.8 288.3,214.0 286.6,211.1 284.9,208.3 283.1,205.5 281.4,202.7 279.7,199.8 278.0,197.0 276.2,194.2 274.5,191.4 272.8,188.5 271.1,185.7 269.3,182.9 267.6,180.1 265.9,177.2 264.2,174.4 262.4,171.6 263.5,168.7 265.6,165.9 267.7,163.1 269.8,160.3 271.8,157.4 273.9,154.6 276.0,151.8 278.1,149.0 280.2,146.1 282.3,143.3 284.4,140.5 286.5,137.7 288.6,134.8 290.6,132.0 292.7,129.2 295.1,126.3 300.4,123.5 305.6,120.7 310.9,117.9 316.2,115.0 321.4,112.2 326.7,109.4 332.0,106.6 337.2,103.7 342.5,100.9 347.8,98.1 353.0,95.3 358.3,92.4 363.6,89.6 368.8,86.8 374.1,83.9 379.4,81.1 384.6,78.3 389.9,75.5 435.0,72.6 461.4,72.6 461.7,75.5 461.9,78.3 462.2,81.1 462.4,83.9 462.7,86.8 462.9,89.6 463.2,92.4 463.4,95.3 463.7,98.1 463.9,100.9 464.2,103.7 464.4,106.6 464.7,109.4 464.9,112.2 465.2,115.0 465.4,117.9 465.7,120.7 465.9,123.5 466.2,126.3 466.4,129.2 466.7,132.0 466.9,134.8 467.2,137.7 467.4,140.5 467.7,143.3 468.0,146.1 468.2,149.0 468.5,151.8 468.7,154.6 469.0,157.4 469.2,160.3 469.5,163.1 469.7,165.9 470.0,168.7 470.2,171.6 470.5,174.4 470.7,177.2 471.0,180.1 471.2,182.9 471.5,185.7 471.7,188.5 472.0,191.4 472.2,194.2 472.5,197.0 472.7,199.8 473.0,202.7 473.2,205.5 473.5,208.3 473.7,211.1 474.0,214.0 474.3,216.8 474.5,219.6 474.8,222.5 475.0,225.3 475.3,228.1 475.5,230.9 475.8,233.8 476.0,236.6 476.3,239.4 476.5,242.2 476.8,245.1 477.0,247.9 477.3,250.7 477.5,253.5 477.8,256.4 478.0,259.2 478.3,262.0 478.5,264.9 478.8,267.7 479.0,270.5 479.3,273.3 479.5,276.2 466.1,279.0 399.1,281.8 332.0,284.6" fill="url(#g3)" stroke="#fbfcfb" stroke-width="1.1" stroke-linejoin="round"/>
<polygon points="288.0,454.2 277.0,451.4 266.1,448.6 255.2,445.8 244.2,442.9 233.3,440.1 222.3,437.3 211.4,434.5 200.5,431.6 189.5,428.8 178.6,426.0 167.7,423.1 156.7,420.3 145.8,417.5 134.8,414.7 123.9,411.8 113.0,409.0 102.0,406.2 91.1,403.4 80.2,400.5 69.2,397.7 58.3,394.9 47.3,392.1 36.4,389.2 30.8,386.4 31.2,383.6 31.7,380.7 32.2,377.9 32.7,375.1 33.9,372.3 36.6,369.4 39.4,366.6 42.2,363.8 44.9,361.0 47.7,358.1 50.5,355.3 53.2,352.5 56.0,349.7 58.8,346.8 61.5,344.0 64.3,341.2 67.1,338.3 69.8,335.5 72.6,332.7 75.4,329.9 78.1,327.0 80.9,324.2 83.7,321.4 86.4,318.6 89.2,315.7 92.0,312.9 94.7,310.1 97.5,307.3 100.3,304.4 103.1,301.6 105.8,298.8 111.3,295.9 118.1,293.1 124.9,290.3 131.8,287.5 138.6,284.6 145.4,281.8 152.2,279.0 160.8,279.0 167.7,281.8 174.6,284.6 181.4,287.5 188.3,290.3 195.2,293.1 202.1,295.9 208.9,298.8 215.8,301.6 222.7,304.4 229.6,307.3 236.5,310.1 243.3,312.9 250.2,315.7 257.1,318.6 264.0,321.4 270.8,324.2 277.7,327.0 284.6,329.9 291.5,332.7 298.3,335.5 305.2,338.3 308.4,341.2 309.8,344.0 311.2,346.8 312.7,349.7 314.1,352.5 315.5,355.3 317.0,358.1 318.4,361.0 319.8,363.8 321.2,366.6 322.7,369.4 324.1,372.3 325.5,375.1 327.0,377.9 328.4,380.7 329.8,383.6 330.9,386.4 330.6,389.2 330.2,392.1 329.9,394.9 329.5,397.7 329.1,400.5 328.8,403.4 328.4,406.2 328.0,409.0 327.7,411.8 327.3,414.7 327.0,417.5 326.6,420.3 326.2,423.1 325.9,426.0 325.5,428.8 325.1,431.6 321.4,434.5 317.3,437.3 313.1,440.1 309.0,442.9 304.9,445.8 300.7,448.6 296.6,451.4 292.4,454.2" fill="url(#g4)" stroke="#fbfcfb" stroke-width="1.1" stroke-linejoin="round"/>
<polygon points="712.4,570.1 709.4,567.3 706.5,564.5 703.6,561.7 700.7,558.8 697.8,556.0 694.9,553.2 692.0,550.3 689.1,547.5 686.1,544.7 683.2,541.9 680.3,539.0 677.4,536.2 674.5,533.4 671.6,530.6 668.7,527.7 665.8,524.9 662.8,522.1 659.9,519.3 657.0,516.4 654.1,513.6 651.2,510.8 648.3,507.9 645.4,505.1 642.5,502.3 639.5,499.5 636.6,496.6 633.7,493.8 630.8,491.0 627.9,488.2 625.0,485.3 622.1,482.5 619.2,479.7 616.3,476.9 613.3,474.0 610.4,471.2 607.5,468.4 604.6,465.5 601.7,462.7 598.8,459.9 595.9,457.1 593.0,454.2 590.0,451.4 587.1,448.6 584.2,445.8 581.3,442.9 578.4,440.1 575.5,437.3 572.6,434.5 569.7,431.6 568.2,428.8 567.9,426.0 567.5,423.1 567.2,420.3 566.8,417.5 566.7,414.7 568.7,411.8 570.8,409.0 572.8,406.2 574.9,403.4 577.0,400.5 579.0,397.7 581.1,394.9 583.2,392.1 585.2,389.2 587.3,386.4 589.3,383.6 591.4,380.7 593.5,377.9 595.5,375.1 597.6,372.3 599.6,369.4 601.7,366.6 603.8,363.8 605.8,361.0 607.9,358.1 609.9,355.3 612.0,352.5 614.1,349.7 616.1,346.8 623.4,346.8 642.4,349.7 661.3,352.5 680.2,355.3 699.1,358.1 718.0,361.0 736.9,363.8 755.8,366.6 764.2,369.4 766.8,372.3 769.4,375.1 772.1,377.9 774.7,380.7 777.3,383.6 779.4,386.4 780.4,389.2 781.3,392.1 782.3,394.9 783.2,397.7 783.7,400.5 783.5,403.4 783.3,406.2 783.1,409.0 782.9,411.8 782.7,414.7 782.5,417.5 782.3,420.3 782.1,423.1 781.9,426.0 781.7,428.8 781.5,431.6 781.3,434.5 781.1,437.3 780.9,440.1 780.7,442.9 780.5,445.8 780.3,448.6 780.1,451.4 779.9,454.2 779.7,457.1 779.5,459.9 779.3,462.7 779.1,465.5 778.9,468.4 778.8,471.2 778.6,474.0 778.4,476.9 778.2,479.7 778.0,482.5 776.8,485.3 775.1,488.2 773.4,491.0 771.7,493.8 769.9,496.6 768.2,499.5 766.5,502.3 764.8,505.1 763.1,507.9 761.4,510.8 759.7,513.6 758.0,516.4 756.3,519.3 754.6,522.1 752.9,524.9 751.2,527.7 749.5,530.6 747.8,533.4 746.1,536.2 744.4,539.0 742.6,541.9 740.9,544.7 739.2,547.5 737.5,550.3 735.8,553.2 734.1,556.0 731.9,558.8 728.0,561.7 724.2,564.5 720.3,567.3 716.4,570.1" fill="url(#g5)" stroke="#fbfcfb" stroke-width="1.1" stroke-linejoin="round"/>
<polygon points="186.4,782.1 182.9,779.3 179.5,776.5 176.1,773.7 172.8,770.8 169.6,768.0 166.4,765.2 163.3,762.3 160.2,759.5 157.2,756.7 154.3,753.9 151.4,751.0 148.6,748.2 145.8,745.4 143.1,742.6 140.4,739.7 137.8,736.9 135.2,734.1 132.7,731.3 130.2,728.4 127.8,725.6 125.4,722.8 123.0,719.9 120.7,717.1 118.5,714.3 116.2,711.5 114.0,708.6 111.9,705.8 109.7,703.0 107.7,700.2 105.6,697.3 103.6,694.5 101.6,691.7 99.7,688.9 97.8,686.0 95.9,683.2 94.0,680.4 92.2,677.5 91.8,674.7 97.0,671.9 102.2,669.1 107.5,666.2 112.7,663.4 117.9,660.6 123.2,657.8 128.4,654.9 133.6,652.1 138.9,649.3 144.1,646.5 149.3,643.6 154.6,640.8 159.8,638.0 165.0,635.1 170.3,632.3 175.5,629.5 180.7,626.7 186.0,623.8 191.2,621.0 196.4,618.2 201.7,615.4 206.9,612.5 212.1,609.7 217.4,606.9 222.6,604.1 227.8,601.2 233.1,598.4 238.3,595.6 243.5,592.7 248.8,589.9 289.0,589.9 314.3,592.7 314.9,595.6 315.6,598.4 316.2,601.2 316.8,604.1 317.4,606.9 318.1,609.7 318.7,612.5 319.3,615.4 319.9,618.2 320.6,621.0 321.2,623.8 321.8,626.7 322.4,629.5 323.1,632.3 323.7,635.1 324.3,638.0 324.9,640.8 325.6,643.6 326.2,646.5 326.8,649.3 327.4,652.1 328.1,654.9 328.7,657.8 329.3,660.6 329.9,663.4 330.6,666.2 331.2,669.1 331.8,671.9 332.4,674.7 333.1,677.5 333.7,680.4 334.3,683.2 335.0,686.0 335.6,688.9 336.2,691.7 336.8,694.5 337.5,697.3 338.1,700.2 334.7,703.0 330.8,705.8 326.9,708.6 323.1,711.5 319.2,714.3 315.4,717.1 311.5,719.9 307.6,722.8 303.8,725.6 299.9,728.4 296.1,731.3 292.2,734.1 288.3,736.9 284.5,739.7 280.6,742.6 276.8,745.4 272.9,748.2 269.0,751.0 265.2,753.9 261.3,756.7 257.5,759.5 253.6,762.3 249.7,765.2 245.9,768.0 242.0,770.8 238.2,773.7 226.4,776.5 214.1,779.3 201.8,782.1" fill="url(#g6)" stroke="#fbfcfb" stroke-width="1.1" stroke-linejoin="round"/>
<polygon points="383.1,708.6 367.6,705.8 352.1,703.0 338.1,700.2 337.5,697.3 336.8,694.5 336.2,691.7 335.6,688.9 335.0,686.0 334.3,683.2 333.7,680.4 333.1,677.5 332.4,674.7 331.8,671.9 331.2,669.1 330.6,666.2 329.9,663.4 329.3,660.6 328.7,657.8 328.1,654.9 327.4,652.1 326.8,649.3 326.2,646.5 325.6,643.6 324.9,640.8 324.3,638.0 323.7,635.1 323.1,632.3 322.4,629.5 321.8,626.7 321.2,623.8 320.6,621.0 319.9,618.2 319.3,615.4 318.7,612.5 318.1,609.7 317.4,606.9 316.8,604.1 316.2,601.2 315.6,598.4 314.9,595.6 314.3,592.7 314.3,589.9 316.6,587.1 318.8,584.3 321.0,581.4 323.2,578.6 325.4,575.8 327.6,573.0 329.8,570.1 332.1,567.3 334.3,564.5 336.5,561.7 338.7,558.8 340.9,556.0 343.1,553.2 345.3,550.3 347.5,547.5 349.8,544.7 352.0,541.9 354.2,539.0 356.4,536.2 358.6,533.4 360.8,530.6 363.0,527.7 365.3,524.9 367.5,522.1 369.7,519.3 371.9,516.4 374.1,513.6 376.3,510.8 378.5,507.9 380.7,505.1 383.0,502.3 385.2,499.5 387.4,496.6 389.6,493.8 394.1,493.8 400.1,496.6 406.2,499.5 412.3,502.3 418.3,505.1 424.4,507.9 428.7,510.8 430.2,513.6 431.8,516.4 433.3,519.3 434.9,522.1 436.5,524.9 438.0,527.7 439.6,530.6 441.1,533.4 442.7,536.2 444.2,539.0 445.8,541.9 447.3,544.7 448.9,547.5 450.5,550.3 452.0,553.2 453.6,556.0 455.1,558.8 456.7,561.7 458.2,564.5 459.8,567.3 461.3,570.1 462.9,573.0 464.5,575.8 466.0,578.6 467.6,581.4 469.1,584.3 470.7,587.1 472.2,589.9 473.8,592.7 475.3,595.6 476.9,598.4 478.3,601.2 475.9,604.1 473.5,606.9 471.1,609.7 468.6,612.5 466.2,615.4 463.8,618.2 461.4,621.0 458.9,623.8 456.5,626.7 454.1,629.5 451.7,632.3 449.2,635.1 446.8,638.0 444.4,640.8 442.0,643.6 439.5,646.5 437.1,649.3 434.7,652.1 432.3,654.9 429.8,657.8 427.4,660.6 425.0,663.4 422.6,666.2 420.1,669.1 417.7,671.9 415.3,674.7 412.9,677.5 410.4,680.4 408.0,683.2 405.6,686.0 403.2,688.9 400.7,691.7 398.3,694.5 395.9,697.3 393.5,700.2 391.0,703.0 388.6,705.8 386.2,708.6" fill="url(#g7)" stroke="#fbfcfb" stroke-width="1.1" stroke-linejoin="round"/>
<polygon points="484.8,281.8 480.6,279.0 479.5,276.2 479.3,273.3 479.0,270.5 478.8,267.7 478.5,264.9 478.3,262.0 478.0,259.2 477.8,256.4 477.5,253.5 477.3,250.7 477.0,247.9 476.8,245.1 476.5,242.2 476.3,239.4 476.0,236.6 475.8,233.8 475.5,230.9 475.3,228.1 475.0,225.3 474.8,222.5 474.5,219.6 474.3,216.8 474.0,214.0 473.7,211.1 473.5,208.3 473.2,205.5 473.0,202.7 472.7,199.8 472.5,197.0 472.2,194.2 472.0,191.4 471.7,188.5 471.5,185.7 471.2,182.9 471.0,180.1 470.7,177.2 470.5,174.4 470.2,171.6 470.0,168.7 469.7,165.9 469.5,163.1 469.2,160.3 469.0,157.4 468.7,154.6 468.5,151.8 468.2,149.0 468.0,146.1 467.7,143.3 467.4,140.5 467.2,137.7 466.9,134.8 466.7,132.0 466.4,129.2 466.2,126.3 465.9,123.5 465.7,120.7 465.4,117.9 465.2,115.0 464.9,112.2 464.7,109.4 464.4,106.6 464.2,103.7 463.9,100.9 463.7,98.1 463.4,95.3 463.2,92.4 462.9,89.6 462.7,86.8 462.4,83.9 462.2,81.1 461.9,78.3 461.7,75.5 461.4,72.6 465.9,69.8 474.8,67.0 483.8,64.2 492.8,61.3 501.8,58.5 510.8,55.7 516.7,55.7 518.5,58.5 520.2,61.3 522.0,64.2 523.8,67.0 525.5,69.8 527.3,72.6 529.0,75.5 530.8,78.3 532.5,81.1 534.3,83.9 536.0,86.8 537.8,89.6 539.5,92.4 541.3,95.3 543.0,98.1 544.8,100.9 546.6,103.7 548.3,106.6 550.1,109.4 551.8,112.2 553.6,115.0 555.3,117.9 557.1,120.7 558.8,123.5 560.6,126.3 562.3,129.2 564.1,132.0 565.8,134.8 567.6,137.7 569.4,140.5 571.1,143.3 572.9,146.1 574.6,149.0 576.4,151.8 578.1,154.6 579.0,157.4 578.8,160.3 578.6,163.1 578.5,165.9 578.3,168.7 578.2,171.6 578.0,174.4 577.8,177.2 577.7,180.1 577.5,182.9 577.4,185.7 577.1,188.5 574.4,191.4 571.8,194.2 569.1,197.0 566.4,199.8 563.8,202.7 561.1,205.5 558.5,208.3 555.8,211.1 553.2,214.0 550.5,216.8 547.8,219.6 545.2,222.5 542.5,225.3 539.9,228.1 537.2,230.9 534.6,233.8 531.9,236.6 529.3,239.4 526.6,242.2 523.9,245.1 521.3,247.9 518.6,250.7 516.0,253.5 513.3,256.4 510.7,259.2 508.0,262.0 505.4,264.9 502.7,267.7 500.0,270.5 497.4,273.3 494.7,276.2 492.1,279.0 489.4,281.8" fill="url(#g8)" stroke="#fbfcfb" stroke-width="1.1" stroke-linejoin="round"/>
<polygon points="600.5,290.3 600.6,287.5 600.7,284.6 600.8,281.8 600.9,279.0 601.0,276.2 601.1,273.3 601.2,270.5 601.3,267.7 601.4,264.9 601.5,262.0 601.6,259.2 601.7,256.4 601.8,253.5 601.9,250.7 602.0,247.9 602.1,245.1 602.2,242.2 602.3,239.4 602.4,236.6 602.5,233.8 602.6,230.9 602.7,228.1 602.8,225.3 603.9,222.5 609.0,219.6 614.1,216.8 619.1,214.0 624.2,211.1 629.2,208.3 634.3,205.5 639.4,202.7 644.4,199.8 649.5,197.0 654.6,194.2 659.6,191.4 664.7,188.5 669.7,185.7 674.8,182.9 679.9,180.1 684.9,177.2 690.0,174.4 695.0,171.6 700.1,168.7 705.2,165.9 710.2,163.1 726.1,163.1 745.7,165.9 765.4,168.7 769.8,171.6 772.2,174.4 774.6,177.2 777.0,180.1 779.3,182.9 781.5,185.7 781.5,188.5 780.5,191.4 779.5,194.2 778.5,197.0 777.6,199.8 776.6,202.7 775.6,205.5 774.6,208.3 773.7,211.1 772.7,214.0 771.7,216.8 770.7,219.6 769.8,222.5 768.8,225.3 767.8,228.1 766.8,230.9 765.9,233.8 764.9,236.6 763.9,239.4 762.9,242.2 762.0,245.1 761.0,247.9 760.0,250.7 759.0,253.5 758.1,256.4 757.1,259.2 756.1,262.0 755.1,264.9 754.2,267.7 753.2,270.5 752.2,273.3 733.9,276.2 708.4,279.0 682.8,281.8 657.3,284.6 631.7,287.5 606.2,290.3" fill="url(#g9)" stroke="#fbfcfb" stroke-width="1.1" stroke-linejoin="round"/>
<polygon points="305.2,338.3 298.3,335.5 291.5,332.7 284.6,329.9 277.7,327.0 270.8,324.2 264.0,321.4 257.1,318.6 250.2,315.7 243.3,312.9 236.5,310.1 229.6,307.3 222.7,304.4 215.8,301.6 208.9,298.8 202.1,295.9 195.2,293.1 188.3,290.3 181.4,287.5 174.6,284.6 167.7,281.8 160.8,279.0 157.3,276.2 159.3,273.3 161.3,270.5 163.3,267.7 165.3,264.9 167.3,262.0 169.3,259.2 171.4,256.4 173.4,253.5 175.4,250.7 177.4,247.9 179.4,245.1 181.4,242.2 183.4,239.4 185.5,236.6 187.5,233.8 189.5,230.9 191.5,228.1 193.5,225.3 195.5,222.5 197.5,219.6 199.5,216.8 201.6,214.0 203.6,211.1 205.6,208.3 207.6,205.5 209.6,202.7 211.6,199.8 213.6,197.0 215.7,194.2 217.7,191.4 219.7,188.5 226.2,185.7 233.0,182.9 239.8,180.1 246.6,177.2 253.3,174.4 260.1,171.6 262.4,171.6 264.2,174.4 265.9,177.2 267.6,180.1 269.3,182.9 271.1,185.7 272.8,188.5 274.5,191.4 276.2,194.2 278.0,197.0 279.7,199.8 281.4,202.7 283.1,205.5 284.9,208.3 286.6,211.1 288.3,214.0 290.0,216.8 291.8,219.6 293.5,222.5 295.2,225.3 296.9,228.1 298.7,230.9 300.4,233.8 302.1,236.6 303.8,239.4 305.6,242.2 307.3,245.1 309.0,247.9 310.7,250.7 312.5,253.5 314.2,256.4 315.9,259.2 317.6,262.0 319.4,264.9 321.1,267.7 322.8,270.5 324.5,273.3 326.3,276.2 328.0,279.0 329.7,281.8 331.4,284.6 330.2,287.5 329.0,290.3 327.7,293.1 326.5,295.9 325.2,298.8 324.0,301.6 322.7,304.4 321.5,307.3 320.2,310.1 319.0,312.9 317.8,315.7 316.5,318.6 315.3,321.4 314.0,324.2 312.8,327.0 311.5,329.9 310.3,332.7 309.0,335.5 307.8,338.3" fill="url(#g10)" stroke="#fbfcfb" stroke-width="1.1" stroke-linejoin="round"/>
<polygon points="565.3,414.7 550.8,411.8 536.2,409.0 521.6,406.2 507.1,403.4 492.5,400.5 477.9,397.7 463.4,394.9 448.8,392.1 444.7,389.2 444.2,386.4 444.0,383.6 445.4,380.7 446.8,377.9 448.2,375.1 449.6,372.3 451.0,369.4 452.4,366.6 453.8,363.8 455.2,361.0 456.6,358.1 458.0,355.3 459.3,352.5 460.7,349.7 462.1,346.8 463.5,344.0 464.9,341.2 466.3,338.3 467.7,335.5 469.1,332.7 470.5,329.9 471.9,327.0 473.2,324.2 474.6,321.4 476.0,318.6 477.4,315.7 478.8,312.9 480.2,310.1 481.6,307.3 483.0,304.4 484.4,301.6 485.8,298.8 487.2,295.9 488.5,293.1 562.9,293.1 599.4,295.9 600.3,298.8 601.3,301.6 602.3,304.4 603.3,307.3 604.3,310.1 605.3,312.9 606.3,315.7 607.3,318.6 608.3,321.4 609.3,324.2 610.3,327.0 611.2,329.9 612.2,332.7 613.2,335.5 614.2,338.3 615.2,341.2 616.2,344.0 616.1,346.8 614.1,349.7 612.0,352.5 609.9,355.3 607.9,358.1 605.8,361.0 603.8,363.8 601.7,366.6 599.6,369.4 597.6,372.3 595.5,375.1 593.5,377.9 591.4,380.7 589.3,383.6 587.3,386.4 585.2,389.2 583.2,392.1 581.1,394.9 579.0,397.7 577.0,400.5 574.9,403.4 572.8,406.2 570.8,409.0 568.7,411.8 566.7,414.7" fill="url(#g11)" stroke="#fbfcfb" stroke-width="1.1" stroke-linejoin="round"/>
<polygon points="329.8,383.6 328.4,380.7 327.0,377.9 325.5,375.1 324.1,372.3 322.7,369.4 321.2,366.6 319.8,363.8 318.4,361.0 317.0,358.1 315.5,355.3 314.1,352.5 312.7,349.7 311.2,346.8 309.8,344.0 308.4,341.2 307.8,338.3 309.0,335.5 310.3,332.7 311.5,329.9 312.8,327.0 314.0,324.2 315.3,321.4 316.5,318.6 317.8,315.7 319.0,312.9 320.2,310.1 321.5,307.3 322.7,304.4 324.0,301.6 325.2,298.8 326.5,295.9 327.7,293.1 329.0,290.3 330.2,287.5 332.0,284.6 399.1,281.8 466.1,279.0 480.6,279.0 484.8,281.8 487.9,284.6 488.7,287.5 489.5,290.3 488.5,293.1 487.2,295.9 485.8,298.8 484.4,301.6 483.0,304.4 481.6,307.3 480.2,310.1 478.8,312.9 477.4,315.7 476.0,318.6 474.6,321.4 473.2,324.2 471.9,327.0 470.5,329.9 469.1,332.7 467.7,335.5 466.3,338.3 464.9,341.2 463.5,344.0 462.1,346.8 460.7,349.7 459.3,352.5 458.0,355.3 456.6,358.1 455.2,361.0 453.8,363.8 452.4,366.6 451.0,369.4 449.6,372.3 448.2,375.1 446.8,377.9 445.4,380.7 444.0,383.6" fill="url(#g12)" stroke="#fbfcfb" stroke-width="1.1" stroke-linejoin="round"/>
<polygon points="289.0,589.9 251.2,587.1 252.1,584.3 252.9,581.4 253.8,578.6 254.6,575.8 255.5,573.0 256.4,570.1 257.2,567.3 258.1,564.5 258.9,561.7 259.8,558.8 260.6,556.0 261.5,553.2 262.3,550.3 263.2,547.5 264.1,544.7 264.9,541.9 265.8,539.0 266.6,536.2 267.5,533.4 268.3,530.6 269.2,527.7 270.0,524.9 270.9,522.1 271.8,519.3 272.6,516.4 273.5,513.6 274.3,510.8 275.2,507.9 276.0,505.1 276.9,502.3 277.8,499.5 278.6,496.6 279.5,493.8 280.3,491.0 281.2,488.2 282.0,485.3 282.9,482.5 283.7,479.7 284.6,476.9 285.5,474.0 286.3,471.2 287.2,468.4 288.0,465.5 288.9,462.7 289.7,459.9 290.6,457.1 292.4,454.2 296.6,451.4 300.7,448.6 304.9,445.8 309.0,442.9 313.1,440.1 317.3,437.3 321.4,434.5 328.1,434.5 331.4,437.3 334.7,440.1 338.1,442.9 341.4,445.8 344.8,448.6 348.1,451.4 351.4,454.2 354.8,457.1 358.1,459.9 361.4,462.7 364.8,465.5 368.1,468.4 371.5,471.2 374.8,474.0 378.1,476.9 381.5,479.7 384.8,482.5 388.2,485.3 390.4,488.2 390.7,491.0 389.6,493.8 387.4,496.6 385.2,499.5 383.0,502.3 380.7,505.1 378.5,507.9 376.3,510.8 374.1,513.6 371.9,516.4 369.7,519.3 367.5,522.1 365.3,524.9 363.0,527.7 360.8,530.6 358.6,533.4 356.4,536.2 354.2,539.0 352.0,541.9 349.8,544.7 347.5,547.5 345.3,550.3 343.1,553.2 340.9,556.0 338.7,558.8 336.5,561.7 334.3,564.5 332.1,567.3 329.8,570.1 327.6,573.0 325.4,575.8 323.2,578.6 321.0,581.4 318.8,584.3 316.6,587.1 314.3,589.9" fill="url(#g13)" stroke="#fbfcfb" stroke-width="1.1" stroke-linejoin="round"/>
<polygon points="362.5,807.6 352.1,804.7 341.6,801.9 331.2,799.1 320.8,796.3 310.3,793.4 299.9,790.6 289.5,787.8 279.0,785.0 268.6,782.1 258.2,779.3 247.7,776.5 238.2,773.7 242.0,770.8 245.9,768.0 249.7,765.2 253.6,762.3 257.5,759.5 261.3,756.7 265.2,753.9 269.0,751.0 272.9,748.2 276.8,745.4 280.6,742.6 284.5,739.7 288.3,736.9 292.2,734.1 296.1,731.3 299.9,728.4 303.8,725.6 307.6,722.8 311.5,719.9 315.4,717.1 319.2,714.3 323.1,711.5 326.9,708.6 330.8,705.8 334.7,703.0 352.1,703.0 367.6,705.8 383.1,708.6 388.1,711.5 391.0,714.3 393.9,717.1 396.7,719.9 399.6,722.8 402.4,725.6 405.3,728.4 408.1,731.3 411.0,734.1 413.8,736.9 416.7,739.7 419.6,742.6 422.4,745.4 425.3,748.2 428.1,751.0 428.4,753.9 425.2,756.7 422.1,759.5 418.9,762.3 415.8,765.2 412.6,768.0 409.5,770.8 406.3,773.7 403.2,776.5 400.0,779.3 396.9,782.1 393.7,785.0 390.6,787.8 387.4,790.6 384.3,793.4 381.1,796.3 378.0,799.1 374.8,801.9 371.7,804.7 367.3,807.6" fill="url(#g14)" stroke="#fbfcfb" stroke-width="1.1" stroke-linejoin="round"/>
<polygon points="424.4,507.9 418.3,505.1 412.3,502.3 406.2,499.5 400.1,496.6 394.1,493.8 390.7,491.0 390.4,488.2 391.3,485.3 392.9,482.5 394.5,479.7 396.2,476.9 397.8,474.0 399.4,471.2 401.0,468.4 402.6,465.5 404.2,462.7 405.9,459.9 407.5,457.1 409.1,454.2 410.7,451.4 412.3,448.6 414.0,445.8 415.6,442.9 417.2,440.1 418.8,437.3 420.4,434.5 422.0,431.6 423.7,428.8 425.3,426.0 426.9,423.1 428.5,420.3 430.1,417.5 431.7,414.7 433.4,411.8 435.0,409.0 436.6,406.2 438.2,403.4 439.8,400.5 441.4,397.7 443.1,394.9 444.7,392.1 448.8,392.1 463.4,394.9 477.9,397.7 492.5,400.5 507.1,403.4 521.6,406.2 536.2,409.0 550.8,411.8 565.3,414.7 566.8,417.5 567.2,420.3 567.5,423.1 567.9,426.0 568.2,428.8 566.2,431.6 561.2,434.5 556.2,437.3 551.2,440.1 546.2,442.9 541.2,445.8 536.2,448.6 531.2,451.4 526.2,454.2 521.2,457.1 516.2,459.9 511.2,462.7 506.2,465.5 501.2,468.4 496.2,471.2 491.2,474.0 486.1,476.9 481.1,479.7 476.1,482.5 471.1,485.3 466.1,488.2 461.1,491.0 456.1,493.8 451.1,496.6 446.1,499.5 441.1,502.3 436.1,505.1 431.1,507.9" fill="url(#g15)" stroke="#fbfcfb" stroke-width="1.1" stroke-linejoin="round"/>
<polygon points="755.8,366.6 736.9,363.8 718.0,361.0 699.1,358.1 680.2,355.3 661.3,352.5 642.4,349.7 623.4,346.8 616.2,344.0 615.2,341.2 614.2,338.3 613.2,335.5 612.2,332.7 611.2,329.9 610.3,327.0 609.3,324.2 608.3,321.4 607.3,318.6 606.3,315.7 605.3,312.9 604.3,310.1 603.3,307.3 602.3,304.4 601.3,301.6 600.3,298.8 599.4,295.9 599.3,293.1 606.2,290.3 631.7,287.5 657.3,284.6 682.8,281.8 708.4,279.0 733.9,276.2 752.1,276.2 752.5,279.0 752.8,281.8 753.1,284.6 753.4,287.5 753.7,290.3 754.1,293.1 754.4,295.9 754.7,298.8 755.0,301.6 755.3,304.4 755.7,307.3 756.0,310.1 756.3,312.9 756.6,315.7 756.9,318.6 757.2,321.4 757.6,324.2 757.9,327.0 758.2,329.9 758.5,332.7 758.8,335.5 759.2,338.3 759.5,341.2 759.8,344.0 760.1,346.8 760.4,349.7 760.7,352.5 761.1,355.3 761.4,358.1 761.7,361.0 762.0,363.8 762.3,366.6" fill="url(#g16)" stroke="#fbfcfb" stroke-width="1.1" stroke-linejoin="round"/>
<polygon points="845.2,541.9 842.0,539.0 838.7,536.2 835.4,533.4 832.2,530.6 828.9,527.7 825.7,524.9 822.4,522.1 819.2,519.3 815.9,516.4 812.6,513.6 809.4,510.8 806.1,507.9 802.9,505.1 799.6,502.3 796.4,499.5 793.1,496.6 789.8,493.8 786.6,491.0 783.3,488.2 780.1,485.3 778.0,482.5 778.2,479.7 778.4,476.9 778.6,474.0 778.8,471.2 778.9,468.4 779.1,465.5 779.3,462.7 779.5,459.9 779.7,457.1 779.9,454.2 780.1,451.4 780.3,448.6 780.5,445.8 780.7,442.9 780.9,440.1 781.1,437.3 781.3,434.5 781.5,431.6 781.7,428.8 781.9,426.0 782.1,423.1 782.3,420.3 782.5,417.5 782.7,414.7 782.9,411.8 783.1,409.0 783.3,406.2 783.5,403.4 783.7,400.5 788.7,400.5 799.3,403.4 809.9,406.2 820.5,409.0 831.1,411.8 841.7,414.7 852.3,417.5 862.8,420.3 873.1,423.1 873.3,426.0 873.5,428.8 873.6,431.6 873.7,434.5 873.8,437.3 873.9,440.1 873.9,442.9 874.0,445.8 874.0,448.6 874.0,451.4 874.0,454.2 873.9,457.1 873.9,459.9 873.8,462.7 873.7,465.5 873.6,468.4 873.5,471.2 873.3,474.0 873.1,476.9 873.0,479.7 872.8,482.5 872.5,485.3 872.3,488.2 872.0,491.0 871.7,493.8 871.4,496.6 871.1,499.5 870.8,502.3 870.4,505.1 870.0,507.9 869.6,510.8 869.2,513.6 868.8,516.4 868.3,519.3 867.8,522.1 867.3,524.9 866.8,527.7 866.3,530.6 865.7,533.4 865.1,536.2 864.5,539.0 850.8,541.9" fill="url(#g17)" stroke="#fbfcfb" stroke-width="1.1" stroke-linejoin="round"/>
<polygon points="777.3,383.6 774.7,380.7 772.1,377.9 769.4,375.1 766.8,372.3 764.2,369.4 762.3,366.6 762.0,363.8 761.7,361.0 761.4,358.1 761.1,355.3 760.7,352.5 760.4,349.7 760.1,346.8 759.8,344.0 759.5,341.2 759.2,338.3 758.8,335.5 758.5,332.7 758.2,329.9 757.9,327.0 757.6,324.2 757.2,321.4 756.9,318.6 756.6,315.7 756.3,312.9 756.0,310.1 755.7,307.3 755.3,304.4 755.0,301.6 754.7,298.8 754.4,295.9 754.1,293.1 753.7,290.3 753.4,287.5 753.1,284.6 752.8,281.8 752.5,279.0 752.1,276.2 752.2,273.3 753.2,270.5 754.2,267.7 755.1,264.9 756.1,262.0 757.1,259.2 758.1,256.4 759.0,253.5 760.0,250.7 761.0,247.9 762.0,245.1 762.9,242.2 763.9,239.4 764.9,236.6 765.9,233.8 766.8,230.9 767.8,228.1 768.8,225.3 769.8,222.5 770.7,219.6 771.7,216.8 772.7,214.0 773.7,211.1 774.6,208.3 775.6,205.5 776.6,202.7 777.6,199.8 778.5,197.0 779.5,194.2 780.5,191.4 781.5,188.5 783.8,188.5 786.0,191.4 788.1,194.2 790.3,197.0 792.3,199.8 794.4,202.7 796.4,205.5 798.4,208.3 800.3,211.1 802.2,214.0 804.1,216.8 806.0,219.6 807.8,222.5 809.6,225.3 811.3,228.1 813.0,230.9 814.7,233.8 816.4,236.6 818.0,239.4 819.6,242.2 821.2,245.1 822.7,247.9 824.3,250.7 825.7,253.5 827.2,256.4 828.6,259.2 830.1,262.0 831.4,264.9 832.8,267.7 834.1,270.5 834.3,273.3 832.9,276.2 831.5,279.0 830.1,281.8 828.7,284.6 827.3,287.5 826.0,290.3 824.6,293.1 823.2,295.9 821.8,298.8 820.4,301.6 819.0,304.4 817.6,307.3 816.2,310.1 814.8,312.9 813.4,315.7 812.0,318.6 810.6,321.4 809.2,324.2 807.8,327.0 806.4,329.9 805.1,332.7 803.7,335.5 802.3,338.3 800.9,341.2 799.5,344.0 798.1,346.8 796.7,349.7 795.3,352.5 793.9,355.3 792.5,358.1 791.1,361.0 789.7,363.8 788.3,366.6 786.9,369.4 785.6,372.3 784.2,375.1 782.8,377.9 781.4,380.7 780.0,383.6" fill="url(#g18)" stroke="#fbfcfb" stroke-width="1.1" stroke-linejoin="round"/>
<polygon points="415.4,872.6 390.2,869.8 372.9,866.9 358.9,864.1 346.9,861.3 339.8,858.5 341.2,855.6 342.6,852.8 344.1,850.0 345.5,847.1 346.9,844.3 348.3,841.5 349.8,838.7 351.2,835.8 352.6,833.0 354.1,830.2 355.5,827.4 356.9,824.5 358.4,821.7 359.8,818.9 361.2,816.1 362.6,813.2 364.1,810.4 367.3,807.6 377.7,807.6 418.0,810.4 458.4,813.2 498.8,816.1 505.1,818.9 504.0,821.7 503.0,824.5 502.0,827.4 500.9,830.2 499.9,833.0 498.8,835.8 497.8,838.7 496.8,841.5 495.7,844.3 494.7,847.1 493.6,850.0 492.6,852.8 491.6,855.6 490.5,858.5 489.5,861.3 488.4,864.1 487.4,866.9 486.3,869.8 484.6,872.6" fill="url(#g19)" stroke="#fbfcfb" stroke-width="1.1" stroke-linejoin="round"/>
<polygon points="293.7,126.3 283.7,123.5 273.8,120.7 263.9,117.9 253.9,115.0 244.0,112.2 234.1,109.4 224.1,106.6 214.2,103.7 209.4,100.9 213.5,98.1 217.8,95.3 222.1,92.4 226.6,89.6 231.3,86.8 236.0,83.9 240.9,81.1 246.0,78.3 251.3,75.5 256.7,72.6 262.3,69.8 268.1,67.0 274.2,64.2 280.5,61.3 287.2,58.5 294.2,55.7 301.5,52.9 309.3,50.0 317.6,47.2 326.5,44.4 336.2,41.5 346.9,38.7 358.9,35.9 372.9,33.1 374.1,33.1 375.2,35.9 376.3,38.7 377.5,41.5 378.6,44.4 379.7,47.2 380.8,50.0 382.0,52.9 383.1,55.7 384.2,58.5 385.4,61.3 386.5,64.2 387.6,67.0 388.7,69.8 389.9,72.6 389.9,75.5 384.6,78.3 379.4,81.1 374.1,83.9 368.8,86.8 363.6,89.6 358.3,92.4 353.0,95.3 347.8,98.1 342.5,100.9 337.2,103.7 332.0,106.6 326.7,109.4 321.4,112.2 316.2,115.0 310.9,117.9 305.6,120.7 300.4,123.5 295.1,126.3" fill="url(#g20)" stroke="#fbfcfb" stroke-width="1.1" stroke-linejoin="round"/>
<polygon points="107.3,295.9 108.0,293.1 108.8,290.3 109.5,287.5 110.3,284.6 111.0,281.8 111.8,279.0 112.5,276.2 113.3,273.3 114.0,270.5 114.8,267.7 115.5,264.9 116.3,262.0 117.1,259.2 117.8,256.4 118.6,253.5 119.3,250.7 120.1,247.9 120.8,245.1 121.6,242.2 122.3,239.4 123.1,236.6 123.8,233.8 124.6,230.9 125.3,228.1 126.1,225.3 126.8,222.5 127.6,219.6 128.3,216.8 129.1,214.0 129.9,211.1 130.6,208.3 131.4,205.5 132.1,202.7 132.9,199.8 133.6,197.0 134.4,194.2 135.1,191.4 135.9,188.5 136.6,185.7 137.4,182.9 138.1,180.1 138.9,177.2 139.6,174.4 140.4,171.6 141.2,168.7 141.9,165.9 142.7,163.1 143.4,160.3 144.2,157.4 145.8,154.6 148.6,151.8 151.4,149.0 154.3,146.1 161.0,146.1 164.9,149.0 168.9,151.8 172.8,154.6 176.7,157.4 180.7,160.3 184.6,163.1 188.6,165.9 192.5,168.7 196.4,171.6 200.4,174.4 204.3,177.2 208.2,180.1 212.2,182.9 216.1,185.7 219.7,188.5 217.7,191.4 215.7,194.2 213.6,197.0 211.6,199.8 209.6,202.7 207.6,205.5 205.6,208.3 203.6,211.1 201.6,214.0 199.5,216.8 197.5,219.6 195.5,222.5 193.5,225.3 191.5,228.1 189.5,230.9 187.5,233.8 185.5,236.6 183.4,239.4 181.4,242.2 179.4,245.1 177.4,247.9 175.4,250.7 173.4,253.5 171.4,256.4 169.3,259.2 167.3,262.0 165.3,264.9 163.3,267.7 161.3,270.5 159.3,273.3 157.3,276.2 152.2,279.0 145.4,281.8 138.6,284.6 131.8,287.5 124.9,290.3 118.1,293.1 111.3,295.9" fill="url(#g21)" stroke="#fbfcfb" stroke-width="1.1" stroke-linejoin="round"/>
<polygon points="486.3,869.8 487.4,866.9 488.4,864.1 489.5,861.3 490.5,858.5 491.6,855.6 492.6,852.8 493.6,850.0 494.7,847.1 495.7,844.3 496.8,841.5 497.8,838.7 498.8,835.8 499.9,833.0 500.9,830.2 502.0,827.4 503.0,824.5 504.0,821.7 505.1,818.9 506.7,816.1 511.2,813.2 515.7,810.4 520.1,807.6 524.6,804.7 529.0,801.9 533.5,799.1 538.0,796.3 542.4,793.4 548.2,793.4 563.8,796.3 579.3,799.1 594.9,801.9 610.4,804.7 625.9,807.6 641.5,810.4 657.0,813.2 664.0,816.1 659.1,818.9 654.0,821.7 648.7,824.5 643.3,827.4 637.7,830.2 631.9,833.0 625.8,835.8 619.5,838.7 612.8,841.5 605.8,844.3 598.5,847.1 590.7,850.0 582.4,852.8 573.5,855.6 563.8,858.5 553.1,861.3 541.1,864.1 527.1,866.9 509.8,869.8" fill="url(#g22)" stroke="#fbfcfb" stroke-width="1.1" stroke-linejoin="round"/>
<polygon points="862.8,420.3 852.3,417.5 841.7,414.7 831.1,411.8 820.5,409.0 809.9,406.2 799.3,403.4 788.7,400.5 783.2,397.7 782.3,394.9 781.3,392.1 780.4,389.2 779.4,386.4 780.0,383.6 781.4,380.7 782.8,377.9 784.2,375.1 785.6,372.3 786.9,369.4 788.3,366.6 789.7,363.8 791.1,361.0 792.5,358.1 793.9,355.3 795.3,352.5 796.7,349.7 798.1,346.8 799.5,344.0 800.9,341.2 802.3,338.3 803.7,335.5 805.1,332.7 806.4,329.9 807.8,327.0 809.2,324.2 810.6,321.4 812.0,318.6 813.4,315.7 814.8,312.9 816.2,310.1 817.6,307.3 819.0,304.4 820.4,301.6 821.8,298.8 823.2,295.9 824.6,293.1 826.0,290.3 827.3,287.5 828.7,284.6 830.1,281.8 831.5,279.0 832.9,276.2 834.3,273.3 835.4,273.3 836.7,276.2 838.0,279.0 839.2,281.8 840.4,284.6 841.6,287.5 842.8,290.3 843.9,293.1 845.0,295.9 846.1,298.8 847.2,301.6 848.2,304.4 849.2,307.3 850.2,310.1 851.2,312.9 852.2,315.7 853.1,318.6 854.0,321.4 854.9,324.2 855.8,327.0 856.6,329.9 857.4,332.7 858.3,335.5 859.0,338.3 859.8,341.2 860.5,344.0 861.3,346.8 862.0,349.7 862.6,352.5 863.3,355.3 863.9,358.1 864.5,361.0 865.1,363.8 865.7,366.6 866.3,369.4 866.8,372.3 867.3,375.1 867.8,377.9 868.3,380.7 868.8,383.6 869.2,386.4 869.6,389.2 870.0,392.1 870.4,394.9 870.8,397.7 871.1,400.5 871.4,403.4 871.7,406.2 872.0,409.0 872.3,411.8 872.5,414.7 872.8,417.5 873.0,420.3" fill="url(#g23)" stroke="#fbfcfb" stroke-width="1.1" stroke-linejoin="round"/>
<polygon points="602.5,222.5 600.4,219.6 598.3,216.8 596.2,214.0 594.1,211.1 592.0,208.3 589.9,205.5 587.8,202.7 585.7,199.8 583.6,197.0 581.5,194.2 579.4,191.4 577.3,188.5 577.4,185.7 577.5,182.9 577.7,180.1 577.8,177.2 578.0,174.4 578.2,171.6 578.3,168.7 578.5,165.9 578.6,163.1 578.8,160.3 579.0,157.4 581.0,154.6 584.7,151.8 588.4,149.0 592.1,146.1 595.9,143.3 599.6,140.5 603.3,137.7 607.0,134.8 610.8,132.0 614.5,129.2 618.2,126.3 621.9,123.5 625.7,120.7 629.4,117.9 634.3,117.9 639.4,120.7 644.6,123.5 649.7,126.3 654.9,129.2 660.0,132.0 665.2,134.8 670.4,137.7 675.5,140.5 680.7,143.3 685.8,146.1 691.0,149.0 696.1,151.8 701.3,154.6 706.5,157.4 711.6,160.3 710.2,163.1 705.2,165.9 700.1,168.7 695.0,171.6 690.0,174.4 684.9,177.2 679.9,180.1 674.8,182.9 669.7,185.7 664.7,188.5 659.6,191.4 654.6,194.2 649.5,197.0 644.4,199.8 639.4,202.7 634.3,205.5 629.2,208.3 624.2,211.1 619.1,214.0 614.1,216.8 609.0,219.6 603.9,222.5" fill="url(#g24)" stroke="#fbfcfb" stroke-width="1.1" stroke-linejoin="round"/>
<polygon points="578.1,154.6 576.4,151.8 574.6,149.0 572.9,146.1 571.1,143.3 569.4,140.5 567.6,137.7 565.8,134.8 564.1,132.0 562.3,129.2 560.6,126.3 558.8,123.5 557.1,120.7 555.3,117.9 553.6,115.0 551.8,112.2 550.1,109.4 548.3,106.6 546.6,103.7 544.8,100.9 543.0,98.1 541.3,95.3 539.5,92.4 537.8,89.6 536.0,86.8 534.3,83.9 532.5,81.1 530.8,78.3 529.0,75.5 527.3,72.6 525.5,69.8 523.8,67.0 522.0,64.2 520.2,61.3 518.5,58.5 516.7,55.7 517.3,52.9 520.7,50.0 524.1,47.2 527.6,44.4 531.0,41.5 534.4,38.7 537.8,35.9 541.1,35.9 553.1,38.7 563.8,41.5 573.5,44.4 582.4,47.2 590.7,50.0 598.5,52.9 605.8,55.7 611.0,58.5 612.0,61.3 613.0,64.2 614.0,67.0 615.0,69.8 616.0,72.6 617.0,75.5 618.0,78.3 619.0,81.1 620.0,83.9 621.0,86.8 622.0,89.6 623.0,92.4 624.0,95.3 625.0,98.1 626.0,100.9 627.0,103.7 628.0,106.6 629.0,109.4 630.0,112.2 631.0,115.0 629.4,117.9 625.7,120.7 621.9,123.5 618.2,126.3 614.5,129.2 610.8,132.0 607.0,134.8 603.3,137.7 599.6,140.5 595.9,143.3 592.1,146.1 588.4,149.0 584.7,151.8 581.0,154.6" fill="url(#g25)" stroke="#fbfcfb" stroke-width="1.1" stroke-linejoin="round"/>
<polygon points="388.2,485.3 384.8,482.5 381.5,479.7 378.1,476.9 374.8,474.0 371.5,471.2 368.1,468.4 364.8,465.5 361.4,462.7 358.1,459.9 354.8,457.1 351.4,454.2 348.1,451.4 344.8,448.6 341.4,445.8 338.1,442.9 334.7,440.1 331.4,437.3 328.1,434.5 325.1,431.6 325.5,428.8 325.9,426.0 326.2,423.1 326.6,420.3 327.0,417.5 327.3,414.7 327.7,411.8 328.0,409.0 328.4,406.2 328.8,403.4 329.1,400.5 329.5,397.7 329.9,394.9 330.2,392.1 330.6,389.2 330.9,386.4 444.2,386.4 444.7,389.2 444.7,392.1 443.1,394.9 441.4,397.7 439.8,400.5 438.2,403.4 436.6,406.2 435.0,409.0 433.4,411.8 431.7,414.7 430.1,417.5 428.5,420.3 426.9,423.1 425.3,426.0 423.7,428.8 422.0,431.6 420.4,434.5 418.8,437.3 417.2,440.1 415.6,442.9 414.0,445.8 412.3,448.6 410.7,451.4 409.1,454.2 407.5,457.1 405.9,459.9 404.2,462.7 402.6,465.5 401.0,468.4 399.4,471.2 397.8,474.0 396.2,476.9 394.5,479.7 392.9,482.5 391.3,485.3" fill="url(#g26)" stroke="#fbfcfb" stroke-width="1.1" stroke-linejoin="round"/>
<polygon points="498.8,816.1 458.4,813.2 418.0,810.4 377.7,807.6 371.7,804.7 374.8,801.9 378.0,799.1 381.1,796.3 384.3,793.4 387.4,790.6 390.6,787.8 393.7,785.0 396.9,782.1 400.0,779.3 403.2,776.5 406.3,773.7 409.5,770.8 412.6,768.0 415.8,765.2 418.9,762.3 422.1,759.5 425.2,756.7 428.4,753.9 436.1,753.9 450.7,756.7 465.4,759.5 480.0,762.3 494.7,765.2 509.3,768.0 524.0,770.8 538.7,773.7 551.3,776.5 550.0,779.3 548.6,782.1 547.3,785.0 546.0,787.8 544.7,790.6 542.4,793.4 538.0,796.3 533.5,799.1 529.0,801.9 524.6,804.7 520.1,807.6 515.7,810.4 511.2,813.2 506.7,816.1" fill="url(#g27)" stroke="#fbfcfb" stroke-width="1.1" stroke-linejoin="round"/>
<polygon points="336.2,858.5 326.5,855.6 317.6,852.8 309.3,850.0 301.5,847.1 294.2,844.3 287.2,841.5 280.5,838.7 274.2,835.8 268.1,833.0 262.3,830.2 256.7,827.4 251.3,824.5 246.0,821.7 240.9,818.9 236.0,816.1 231.3,813.2 226.6,810.4 222.1,807.6 217.8,804.7 213.5,801.9 209.4,799.1 205.3,796.3 201.4,793.4 197.5,790.6 193.7,787.8 190.0,785.0 201.8,782.1 214.1,779.3 226.4,776.5 247.7,776.5 258.2,779.3 268.6,782.1 279.0,785.0 289.5,787.8 299.9,790.6 310.3,793.4 320.8,796.3 331.2,799.1 341.6,801.9 352.1,804.7 362.5,807.6 364.1,810.4 362.6,813.2 361.2,816.1 359.8,818.9 358.4,821.7 356.9,824.5 355.5,827.4 354.1,830.2 352.6,833.0 351.2,835.8 349.8,838.7 348.3,841.5 346.9,844.3 345.5,847.1 344.1,850.0 342.6,852.8 341.2,855.6 339.8,858.5" fill="url(#g28)" stroke="#fbfcfb" stroke-width="1.1" stroke-linejoin="round"/>
<polygon points="678.7,751.0 675.2,748.2 671.7,745.4 668.2,742.6 664.7,739.7 664.4,736.9 665.2,734.1 666.0,731.3 666.8,728.4 667.5,725.6 668.3,722.8 669.1,719.9 669.9,717.1 670.7,714.3 671.4,711.5 672.2,708.6 673.0,705.8 673.8,703.0 674.6,700.2 675.4,697.3 676.1,694.5 676.9,691.7 677.7,688.9 678.5,686.0 679.3,683.2 680.0,680.4 680.8,677.5 681.6,674.7 682.4,671.9 683.2,669.1 683.9,666.2 684.7,663.4 685.5,660.6 686.3,657.8 687.1,654.9 687.9,652.1 688.6,649.3 689.4,646.5 761.4,643.6 772.6,643.6 774.2,646.5 775.9,649.3 777.6,652.1 779.2,654.9 780.9,657.8 782.5,660.6 784.2,663.4 785.8,666.2 785.8,669.1 782.2,671.9 778.6,674.7 774.9,677.5 771.3,680.4 767.7,683.2 764.0,686.0 760.4,688.9 756.8,691.7 753.2,694.5 749.5,697.3 745.9,700.2 742.3,703.0 738.6,705.8 735.0,708.6 731.4,711.5 727.8,714.3 724.1,717.1 720.5,719.9 716.9,722.8 713.3,725.6 709.6,728.4 706.0,731.3 702.4,734.1 698.7,736.9 695.1,739.7 691.5,742.6 687.9,745.4 684.2,748.2 680.6,751.0" fill="url(#g29)" stroke="#fbfcfb" stroke-width="1.1" stroke-linejoin="round"/>
<polygon points="562.9,293.1 489.5,290.3 488.7,287.5 487.9,284.6 489.4,281.8 492.1,279.0 494.7,276.2 497.4,273.3 500.0,270.5 502.7,267.7 505.4,264.9 508.0,262.0 510.7,259.2 513.3,256.4 516.0,253.5 518.6,250.7 521.3,247.9 523.9,245.1 526.6,242.2 529.3,239.4 531.9,236.6 534.6,233.8 537.2,230.9 539.9,228.1 542.5,225.3 545.2,222.5 547.8,219.6 550.5,216.8 553.2,214.0 555.8,211.1 558.5,208.3 561.1,205.5 563.8,202.7 566.4,199.8 569.1,197.0 571.8,194.2 574.4,191.4 577.1,188.5 577.3,188.5 579.4,191.4 581.5,194.2 583.6,197.0 585.7,199.8 587.8,202.7 589.9,205.5 592.0,208.3 594.1,211.1 596.2,214.0 598.3,216.8 600.4,219.6 602.5,222.5 602.8,225.3 602.7,228.1 602.6,230.9 602.5,233.8 602.4,236.6 602.3,239.4 602.2,242.2 602.1,245.1 602.0,247.9 601.9,250.7 601.8,253.5 601.7,256.4 601.6,259.2 601.5,262.0 601.4,264.9 601.3,267.7 601.2,270.5 601.1,273.3 601.0,276.2 600.9,279.0 600.8,281.8 600.7,284.6 600.6,287.5 600.5,290.3 599.3,293.1" fill="url(#g30)" stroke="#fbfcfb" stroke-width="1.1" stroke-linejoin="round"/>
<polygon points="657.0,813.2 641.5,810.4 625.9,807.6 610.4,804.7 594.9,801.9 579.3,799.1 563.8,796.3 548.2,793.4 544.7,790.6 546.0,787.8 547.3,785.0 548.6,782.1 550.0,779.3 551.3,776.5 558.9,773.7 567.5,770.8 576.0,768.0 584.6,765.2 593.1,762.3 601.7,759.5 610.3,756.7 618.8,753.9 627.4,751.0 635.9,748.2 644.5,745.4 653.0,742.6 661.6,739.7 664.7,739.7 668.2,742.6 671.7,745.4 675.2,748.2 678.7,751.0 680.2,753.9 681.1,756.7 682.0,759.5 682.8,762.3 683.7,765.2 684.5,768.0 685.4,770.8 686.3,773.7 687.1,776.5 688.0,779.3 688.8,782.1 689.7,785.0 690.6,787.8 691.4,790.6 692.3,793.4 693.1,796.3 690.6,799.1 686.5,801.9 682.2,804.7 677.9,807.6 673.4,810.4 668.7,813.2" fill="url(#g31)" stroke="#fbfcfb" stroke-width="1.1" stroke-linejoin="round"/>
<polygon points="33.2,372.3 33.7,369.4 34.3,366.6 34.9,363.8 35.5,361.0 36.1,358.1 36.7,355.3 37.4,352.5 38.0,349.7 38.7,346.8 39.5,344.0 40.2,341.2 41.0,338.3 41.7,335.5 42.6,332.7 43.4,329.9 44.2,327.0 45.1,324.2 46.0,321.4 46.9,318.6 47.8,315.7 48.8,312.9 49.8,310.1 50.8,307.3 51.8,304.4 52.8,301.6 53.9,298.8 55.0,295.9 56.1,293.1 57.2,290.3 58.4,287.5 59.6,284.6 60.8,281.8 62.0,279.0 63.3,276.2 64.6,273.3 65.9,270.5 67.2,267.7 68.6,264.9 69.9,262.0 71.4,259.2 72.8,256.4 74.3,253.5 75.7,250.7 77.3,247.9 78.8,245.1 80.4,242.2 82.0,239.4 83.6,236.6 85.3,233.8 87.0,230.9 88.7,228.1 90.4,225.3 92.2,222.5 94.0,219.6 95.9,216.8 97.8,214.0 99.7,211.1 101.6,208.3 103.6,205.5 105.6,202.7 107.7,199.8 109.7,197.0 111.9,194.2 114.0,191.4 116.2,188.5 118.5,185.7 120.7,182.9 123.0,180.1 125.4,177.2 127.8,174.4 130.2,171.6 132.7,168.7 135.2,165.9 137.8,163.1 140.4,160.3 143.1,157.4 144.2,157.4 143.4,160.3 142.7,163.1 141.9,165.9 141.2,168.7 140.4,171.6 139.6,174.4 138.9,177.2 138.1,180.1 137.4,182.9 136.6,185.7 135.9,188.5 135.1,191.4 134.4,194.2 133.6,197.0 132.9,199.8 132.1,202.7 131.4,205.5 130.6,208.3 129.9,211.1 129.1,214.0 128.3,216.8 127.6,219.6 126.8,222.5 126.1,225.3 125.3,228.1 124.6,230.9 123.8,233.8 123.1,236.6 122.3,239.4 121.6,242.2 120.8,245.1 120.1,247.9 119.3,250.7 118.6,253.5 117.8,256.4 117.1,259.2 116.3,262.0 115.5,264.9 114.8,267.7 114.0,270.5 113.3,273.3 112.5,276.2 111.8,279.0 111.0,281.8 110.3,284.6 109.5,287.5 108.8,290.3 108.0,293.1 107.3,295.9 105.8,298.8 103.1,301.6 100.3,304.4 97.5,307.3 94.7,310.1 92.0,312.9 89.2,315.7 86.4,318.6 83.7,321.4 80.9,324.2 78.1,327.0 75.4,329.9 72.6,332.7 69.8,335.5 67.1,338.3 64.3,341.2 61.5,344.0 58.8,346.8 56.0,349.7 53.2,352.5 50.5,355.3 47.7,358.1 44.9,361.0 42.2,363.8 39.4,366.6 36.6,369.4 33.9,372.3" fill="url(#g32)" stroke="#fbfcfb" stroke-width="1.1" stroke-linejoin="round"/>
<polygon points="216.1,185.7 212.2,182.9 208.2,180.1 204.3,177.2 200.4,174.4 196.4,171.6 192.5,168.7 188.6,165.9 184.6,163.1 180.7,160.3 176.7,157.4 172.8,154.6 168.9,151.8 164.9,149.0 161.0,146.1 157.2,143.3 160.2,140.5 163.3,137.7 166.4,134.8 169.6,132.0 172.8,129.2 176.1,126.3 179.5,123.5 182.9,120.7 186.4,117.9 190.0,115.0 193.7,112.2 197.5,109.4 201.4,106.6 205.3,103.7 214.2,103.7 224.1,106.6 234.1,109.4 244.0,112.2 253.9,115.0 263.9,117.9 273.8,120.7 283.7,123.5 293.7,126.3 292.7,129.2 290.6,132.0 288.6,134.8 286.5,137.7 284.4,140.5 282.3,143.3 280.2,146.1 278.1,149.0 276.0,151.8 273.9,154.6 271.8,157.4 269.8,160.3 267.7,163.1 265.6,165.9 263.5,168.7 260.1,171.6 253.3,174.4 246.6,177.2 239.8,180.1 233.0,182.9 226.2,185.7" fill="url(#g33)" stroke="#fbfcfb" stroke-width="1.1" stroke-linejoin="round"/>
<polygon points="689.0,643.6 688.5,640.8 688.0,638.0 689.1,635.1 690.3,632.3 691.4,629.5 692.5,626.7 693.6,623.8 694.7,621.0 695.8,618.2 696.9,615.4 698.0,612.5 699.2,609.7 700.3,606.9 701.4,604.1 702.5,601.2 703.6,598.4 704.7,595.6 705.8,592.7 707.0,589.9 708.1,587.1 709.2,584.3 710.3,581.4 711.4,578.6 712.5,575.8 713.6,573.0 716.4,570.1 720.3,567.3 724.2,564.5 728.0,561.7 731.9,558.8 734.3,558.8 740.7,561.7 747.2,564.5 753.7,567.3 760.2,570.1 766.7,573.0 773.2,575.8 779.7,578.6 786.2,581.4 791.1,584.3 790.2,587.1 789.3,589.9 788.4,592.7 787.5,595.6 786.6,598.4 785.7,601.2 784.8,604.1 783.9,606.9 783.0,609.7 782.1,612.5 781.2,615.4 780.3,618.2 779.4,621.0 778.5,623.8 777.6,626.7 776.7,629.5 775.8,632.3 774.9,635.1 774.0,638.0 773.1,640.8 761.4,643.6" fill="url(#g34)" stroke="#fbfcfb" stroke-width="1.1" stroke-linejoin="round"/>
<polygon points="793.1,669.1 785.8,666.2 784.2,663.4 782.5,660.6 780.9,657.8 779.2,654.9 777.6,652.1 775.9,649.3 774.2,646.5 772.6,643.6 773.1,640.8 774.0,638.0 774.9,635.1 775.8,632.3 776.7,629.5 777.6,626.7 778.5,623.8 779.4,621.0 780.3,618.2 781.2,615.4 782.1,612.5 783.0,609.7 783.9,606.9 784.8,604.1 785.7,601.2 786.6,598.4 787.5,595.6 788.4,592.7 789.3,589.9 790.2,587.1 791.1,584.3 794.2,581.4 798.0,578.6 801.7,575.8 805.4,573.0 809.1,570.1 812.8,567.3 816.6,564.5 820.3,561.7 824.0,558.8 827.7,556.0 831.5,553.2 835.2,550.3 838.9,547.5 842.6,544.7 850.8,541.9 863.9,541.9 863.3,544.7 862.6,547.5 862.0,550.3 861.3,553.2 860.5,556.0 859.8,558.8 859.0,561.7 858.3,564.5 857.4,567.3 856.6,570.1 855.8,573.0 854.9,575.8 854.0,578.6 853.1,581.4 852.2,584.3 851.2,587.1 850.2,589.9 849.2,592.7 848.2,595.6 847.2,598.4 846.1,601.2 845.0,604.1 843.9,606.9 842.8,609.7 841.6,612.5 840.4,615.4 839.2,618.2 838.0,621.0 836.7,623.8 835.4,626.7 834.1,629.5 832.8,632.3 831.4,635.1 830.1,638.0 828.6,640.8 827.2,643.6 825.7,646.5 824.3,649.3 822.7,652.1 821.2,654.9 819.6,657.8 818.0,660.6 816.4,663.4 814.7,666.2 813.0,669.1" fill="url(#g35)" stroke="#fbfcfb" stroke-width="1.1" stroke-linejoin="round"/>
<polygon points="765.4,168.7 745.7,165.9 726.1,163.1 711.6,160.3 706.5,157.4 701.3,154.6 696.1,151.8 691.0,149.0 685.8,146.1 680.7,143.3 675.5,140.5 670.4,137.7 665.2,134.8 660.0,132.0 654.9,129.2 649.7,126.3 644.6,123.5 639.4,120.7 634.3,117.9 631.0,115.0 630.0,112.2 629.0,109.4 628.0,106.6 627.0,103.7 626.0,100.9 625.0,98.1 624.0,95.3 623.0,92.4 622.0,89.6 621.0,86.8 620.0,83.9 619.0,81.1 618.0,78.3 617.0,75.5 616.0,72.6 615.0,69.8 614.0,67.0 613.0,64.2 612.0,61.3 611.0,58.5 612.8,58.5 619.5,61.3 625.8,64.2 631.9,67.0 637.7,69.8 643.3,72.6 648.7,75.5 654.0,78.3 659.1,81.1 664.0,83.9 668.7,86.8 673.4,89.6 677.9,92.4 682.2,95.3 686.5,98.1 690.6,100.9 694.7,103.7 698.6,106.6 702.5,109.4 706.3,112.2 710.0,115.0 713.6,117.9 717.1,120.7 720.5,123.5 723.9,126.3 727.2,129.2 730.4,132.0 733.6,134.8 736.7,137.7 739.8,140.5 742.8,143.3 745.7,146.1 748.6,149.0 751.4,151.8 754.2,154.6 756.9,157.4 759.6,160.3 762.2,163.1 764.8,165.9 767.3,168.7" fill="url(#g36)" stroke="#fbfcfb" stroke-width="1.1" stroke-linejoin="round"/>
<polygon points="786.2,581.4 779.7,578.6 773.2,575.8 766.7,573.0 760.2,570.1 753.7,567.3 747.2,564.5 740.7,561.7 734.3,558.8 734.1,556.0 735.8,553.2 737.5,550.3 739.2,547.5 740.9,544.7 742.6,541.9 744.4,539.0 746.1,536.2 747.8,533.4 749.5,530.6 751.2,527.7 752.9,524.9 754.6,522.1 756.3,519.3 758.0,516.4 759.7,513.6 761.4,510.8 763.1,507.9 764.8,505.1 766.5,502.3 768.2,499.5 769.9,496.6 771.7,493.8 773.4,491.0 775.1,488.2 776.8,485.3 780.1,485.3 783.3,488.2 786.6,491.0 789.8,493.8 793.1,496.6 796.4,499.5 799.6,502.3 802.9,505.1 806.1,507.9 809.4,510.8 812.6,513.6 815.9,516.4 819.2,519.3 822.4,522.1 825.7,524.9 828.9,527.7 832.2,530.6 835.4,533.4 838.7,536.2 842.0,539.0 845.2,541.9 842.6,544.7 838.9,547.5 835.2,550.3 831.5,553.2 827.7,556.0 824.0,558.8 820.3,561.7 816.6,564.5 812.8,567.3 809.1,570.1 805.4,573.0 801.7,575.8 798.0,578.6 794.2,581.4" fill="url(#g37)" stroke="#fbfcfb" stroke-width="1.1" stroke-linejoin="round"/>
<polygon points="389.9,72.6 388.7,69.8 387.6,67.0 386.5,64.2 385.4,61.3 384.2,58.5 383.1,55.7 382.0,52.9 380.8,50.0 379.7,47.2 378.6,44.4 377.5,41.5 376.3,38.7 375.2,35.9 374.1,33.1 390.2,30.2 415.4,27.4 484.6,27.4 509.8,30.2 527.1,33.1 537.8,35.9 534.4,38.7 531.0,41.5 527.6,44.4 524.1,47.2 520.7,50.0 517.3,52.9 510.8,55.7 501.8,58.5 492.8,61.3 483.8,64.2 474.8,67.0 465.9,69.8 435.0,72.6" fill="url(#g38)" stroke="#fbfcfb" stroke-width="1.1" stroke-linejoin="round"/>
<polygon points="693.1,796.3 692.3,793.4 691.4,790.6 690.6,787.8 689.7,785.0 688.8,782.1 688.0,779.3 687.1,776.5 686.3,773.7 685.4,770.8 684.5,768.0 683.7,765.2 682.8,762.3 682.0,759.5 681.1,756.7 680.2,753.9 680.6,751.0 684.2,748.2 687.9,745.4 691.5,742.6 695.1,739.7 698.7,736.9 702.4,734.1 706.0,731.3 709.6,728.4 713.3,725.6 716.9,722.8 720.5,719.9 724.1,717.1 727.8,714.3 731.4,711.5 735.0,708.6 738.6,705.8 742.3,703.0 745.9,700.2 749.5,697.3 753.2,694.5 756.8,691.7 760.4,688.9 764.0,686.0 767.7,683.2 771.3,680.4 774.9,677.5 778.6,674.7 782.2,671.9 785.8,669.1 793.1,669.1 811.3,671.9 809.6,674.7 807.8,677.5 806.0,680.4 804.1,683.2 802.2,686.0 800.3,688.9 798.4,691.7 796.4,694.5 794.4,697.3 792.3,700.2 790.3,703.0 788.1,705.8 786.0,708.6 783.8,711.5 781.5,714.3 779.3,717.1 777.0,719.9 774.6,722.8 772.2,725.6 769.8,728.4 767.3,731.3 764.8,734.1 762.2,736.9 759.6,739.7 756.9,742.6 754.2,745.4 751.4,748.2 748.6,751.0 745.7,753.9 742.8,756.7 739.8,759.5 736.7,762.3 733.6,765.2 730.4,768.0 727.2,770.8 723.9,773.7 720.5,776.5 717.1,779.3 713.6,782.1 710.0,785.0 706.3,787.8 702.5,790.6 698.6,793.4 694.7,796.3" fill="url(#g39)" stroke="#fbfcfb" stroke-width="1.1" stroke-linejoin="round"/>
<circle cx="450.0" cy="450.0" r="424.0" fill="url(#lit)"/>
<circle cx="450.0" cy="450.0" r="424.0" fill="url(#rim)"/>
<g text-anchor="middle" fill="#16180f" style="text-shadow:0 1px 2px rgba(0,0,0,.45)">
<text x="141.9" y="508.1" font-size="23.6" font-weight="700">RAF Fairford</text>
<text x="141.9" y="534.6" font-size="23.6" font-weight="700">security incident</text>
<text x="141.9" y="559.9" font-size="15.6" font-weight="600" font-family="monospace" opacity="0.92">-0.0</text>
</g>
<g text-anchor="middle" fill="#fbf9f0" style="text-shadow:0 1px 2px rgba(0,0,0,.45)">
<text x="531.5" y="675.8" font-size="18.8" font-weight="700">Death row inmate Christa</text>
<text x="526.3" y="696.8" font-size="18.8" font-weight="700">Pike</text>
<text x="526.3" y="716.9" font-size="12.4" font-weight="600" font-family="monospace" opacity="0.92">-0.4</text>
</g>
<g text-anchor="middle" fill="#16180f" style="text-shadow:0 1px 2px rgba(0,0,0,.45)">
<text x="554.6" y="517.4" font-size="18.9" font-weight="700">Earl Spencer Diana</text>
<text x="554.6" y="538.6" font-size="18.9" font-weight="700">book theft</text>
<text x="554.6" y="558.8" font-size="12.5" font-weight="600" font-family="monospace" opacity="0.92">-0.2</text>
</g>
<g text-anchor="middle" fill="#16180f" style="text-shadow:0 1px 2px rgba(0,0,0,.45)">
<text x="373.7" y="166.0" font-size="20.1" font-weight="700">Labour debate on</text>
<text x="373.7" y="188.5" font-size="20.1" font-weight="700">rejoining EU</text>
<text x="373.7" y="209.9" font-size="13.2" font-weight="600" font-family="monospace" opacity="0.92">+0.0</text>
</g>
<g text-anchor="middle" fill="#fbf9f0" style="text-shadow:0 1px 2px rgba(0,0,0,.45)">
<text x="171.7" y="337.4" font-size="17.8" font-weight="700">FlyDubai cockpit brawl</text>
<text x="158.9" y="357.3" font-size="17.8" font-weight="700">diversion</text>
<text x="158.9" y="376.3" font-size="11.7" font-weight="600" font-family="monospace" opacity="0.92">-0.9</text>
</g>
<g text-anchor="middle" fill="#16180f" style="text-shadow:0 1px 2px rgba(0,0,0,.45)">
<text x="695.9" y="427.0" font-size="18.9" font-weight="700">Burnham Labour</text>
<text x="695.9" y="448.1" font-size="18.9" font-weight="700">conference speech</text>
<text x="695.9" y="468.3" font-size="12.5" font-weight="600" font-family="monospace" opacity="0.92">+0.0</text>
</g>
<g text-anchor="middle" fill="#16180f" style="text-shadow:0 1px 2px rgba(0,0,0,.45)">
<text x="226.7" y="670.4" font-size="18.5" font-weight="700">Triple lock social care</text>
<text x="226.7" y="691.1" font-size="18.5" font-weight="700">funding</text>
<text x="226.7" y="710.8" font-size="12.2" font-weight="600" font-family="monospace" opacity="0.92">-0.1</text>
</g>
<g text-anchor="middle" fill="#16180f" style="text-shadow:0 1px 2px rgba(0,0,0,.45)">
<text x="396.3" y="570.8" font-size="17.6" font-weight="700">Putin refuses</text>
<text x="396.3" y="590.5" font-size="17.6" font-weight="700">to end Ukraine</text>
<text x="396.3" y="610.1" font-size="17.6" font-weight="700">war</text>
<text x="396.3" y="628.9" font-size="11.6" font-weight="600" font-family="monospace" opacity="0.92">+0.6</text>
</g>
<g text-anchor="middle" fill="#16180f" style="text-shadow:0 1px 2px rgba(0,0,0,.45)">
<text x="520.7" y="142.8" font-size="16.3" font-weight="700">AI risks and</text>
<text x="520.7" y="161.1" font-size="16.3" font-weight="700">international</text>
<text x="520.7" y="179.4" font-size="16.3" font-weight="700">regulation</text>
<text x="520.7" y="196.8" font-size="10.8" font-weight="600" font-family="monospace" opacity="0.92">+0.2</text>
</g>
<g text-anchor="middle" fill="#16180f" style="text-shadow:0 1px 2px rgba(0,0,0,.45)">
<text x="701.6" y="214.1" font-size="16.3" font-weight="700">Ranulph Fiennes</text>
<text x="701.6" y="232.4" font-size="16.3" font-weight="700">care inquiry calls</text>
<text x="701.6" y="249.9" font-size="10.8" font-weight="600" font-family="monospace" opacity="0.92">+0.8</text>
</g>
<g text-anchor="middle" fill="#16180f" style="text-shadow:0 1px 2px rgba(0,0,0,.45)">
<text x="243.7" y="232.7" font-size="16.7" font-weight="700">Man City</text>
<text x="243.7" y="251.5" font-size="16.7" font-weight="700">financial</text>
<text x="243.7" y="270.2" font-size="16.7" font-weight="700">breaches hearing</text>
<text x="243.7" y="288.1" font-size="11.0" font-weight="600" font-family="monospace" opacity="0.92">+0.4</text>
</g>
<g text-anchor="middle" fill="#fbf9f0" style="text-shadow:0 1px 2px rgba(0,0,0,.45)">
<text x="537.6" y="338.1" font-size="16.8" font-weight="700">Trump US</text>
<text x="537.6" y="357.0" font-size="16.8" font-weight="700">diesel export ban</text>
<text x="537.6" y="375.0" font-size="11.1" font-weight="600" font-family="monospace" opacity="0.92">-0.7</text>
</g>
<g text-anchor="middle" fill="#fbf9f0" style="text-shadow:0 1px 2px rgba(0,0,0,.45)">
<text x="375.7" y="321.6" font-size="16.3" font-weight="700">Esther Rantzen</text>
<text x="373.7" y="339.8" font-size="16.3" font-weight="700">dies</text>
<text x="373.7" y="357.2" font-size="10.7" font-weight="600" font-family="monospace" opacity="0.92">+1.2</text>
</g>
<g text-anchor="middle" fill="#fbf9f0" style="text-shadow:0 1px 2px rgba(0,0,0,.45)">
<text x="322.8" y="477.1" font-size="15.7" font-weight="700">Drumcree</text>
<text x="322.8" y="494.7" font-size="15.7" font-weight="700">parade ban</text>
<text x="322.8" y="512.4" font-size="15.7" font-weight="700">overturned</text>
<text x="322.8" y="529.2" font-size="10.4" font-weight="600" font-family="monospace" opacity="0.92">-0.4</text>
</g>
<g text-anchor="middle" fill="#fbf9f0" style="text-shadow:0 1px 2px rgba(0,0,0,.45)">
<text x="351.1" y="731.4" font-size="15.8" font-weight="700">French</text>
<text x="351.1" y="749.1" font-size="15.8" font-weight="700">student protests</text>
<text x="351.1" y="766.9" font-size="15.8" font-weight="700">and clashes</text>
<text x="351.1" y="783.8" font-size="10.4" font-weight="600" font-family="monospace" opacity="0.92">-1.4</text>
</g>
<g text-anchor="middle" fill="#16180f" style="text-shadow:0 1px 2px rgba(0,0,0,.45)">
<text x="477.1" y="429.9" font-size="15.1" font-weight="700">River Wear car</text>
<text x="464.1" y="446.8" font-size="15.1" font-weight="700">deaths</text>
<text x="464.1" y="462.9" font-size="10.0" font-weight="600" font-family="monospace" opacity="0.92">+0.0</text>
</g>
<g text-anchor="middle" fill="#fbf9f0" style="text-shadow:0 1px 2px rgba(0,0,0,.45)">
<text x="686.3" y="305.8" font-size="14.7" font-weight="700">Early prison release</text>
<text x="694.9" y="322.3" font-size="14.7" font-weight="700">domestic abusers</text>
<text x="718.5" y="338.0" font-size="9.7" font-weight="600" font-family="monospace" opacity="0.92">-1.1</text>
</g>
<g text-anchor="middle" fill="#16180f" style="text-shadow:0 1px 2px rgba(0,0,0,.45)">
<text x="825.9" y="437.2" font-size="14.2" font-weight="700">Cornell</text>
<text x="825.9" y="453.2" font-size="14.2" font-weight="700">fraternity</text>
<text x="825.9" y="469.1" font-size="14.2" font-weight="700">rape</text>
<text x="825.9" y="485.1" font-size="14.2" font-weight="700">investigation</text>
<text x="825.9" y="500.3" font-size="9.4" font-weight="600" font-family="monospace" opacity="0.92">+0.0</text>
</g>
<g text-anchor="middle" fill="#fbf9f0" style="text-shadow:0 1px 2px rgba(0,0,0,.45)">
<text x="792.0" y="233.8" font-size="13.3" font-weight="700">Fuel</text>
<text x="792.0" y="248.6" font-size="13.3" font-weight="700">prices</text>
<text x="792.0" y="263.5" font-size="13.3" font-weight="700">near</text>
<text x="792.0" y="278.3" font-size="13.3" font-weight="700">four-year</text>
<text x="792.0" y="293.2" font-size="13.3" font-weight="700">highs</text>
<text x="792.0" y="307.4" font-size="8.8" font-weight="600" font-family="monospace" opacity="0.92">-1.1</text>
</g>
<g text-anchor="middle" fill="#16180f" style="text-shadow:0 1px 2px rgba(0,0,0,.45)">
<text x="447.2" y="832.0" font-size="14.1" font-weight="700">Labour spending</text>
<text x="458.5" y="847.8" font-size="14.1" font-weight="700">warnings</text>
<text x="458.5" y="862.9" font-size="9.3" font-weight="600" font-family="monospace" opacity="0.92">+0.0</text>
</g>
<g text-anchor="middle" fill="#16180f" style="text-shadow:0 1px 2px rgba(0,0,0,.45)">
<text x="298.5" y="72.1" font-size="14.2" font-weight="700">Burnham</text>
<text x="300.8" y="88.0" font-size="14.2" font-weight="700">comments on Man</text>
<text x="288.9" y="104.0" font-size="14.2" font-weight="700">City</text>
<text x="288.9" y="119.2" font-size="9.4" font-weight="600" font-family="monospace" opacity="0.92">+0.5</text>
</g>
<g text-anchor="middle" fill="#16180f" style="text-shadow:0 1px 2px rgba(0,0,0,.45)">
<text x="164.5" y="188.5" font-size="11.7" font-weight="700">Burnham</text>
<text x="167.3" y="201.6" font-size="11.7" font-weight="700">Great British</text>
<text x="164.5" y="214.8" font-size="11.7" font-weight="700">Grid plan</text>
<text x="164.5" y="227.3" font-size="7.8" font-weight="600" font-family="monospace" opacity="0.92">+0.1</text>
</g>
<g text-anchor="middle" fill="#16180f" style="text-shadow:0 1px 2px rgba(0,0,0,.45)">
<text x="568.1" y="815.1" font-size="14.1" font-weight="700">National Lottery</text>
<text x="554.6" y="830.9" font-size="14.1" font-weight="700">draw results</text>
<text x="554.6" y="846.0" font-size="9.3" font-weight="600" font-family="monospace" opacity="0.92">+0.2</text>
</g>
<g text-anchor="middle" fill="#16180f" style="text-shadow:0 1px 2px rgba(0,0,0,.45)">
<text x="828.1" y="340.2" font-size="14.7" font-weight="700">Clancy</text>
<text x="825.9" y="356.7" font-size="14.7" font-weight="700">case</text>
<text x="825.9" y="373.2" font-size="14.7" font-weight="700">juror</text>
<text x="825.9" y="389.7" font-size="14.7" font-weight="700">safety</text>
<text x="825.9" y="405.5" font-size="9.7" font-weight="600" font-family="monospace" opacity="0.92">+0.7</text>
</g>
<g text-anchor="middle" fill="#16180f" style="text-shadow:0 1px 2px rgba(0,0,0,.45)">
<text x="633.1" y="144.9" font-size="14.7" font-weight="700">Newborn</text>
<text x="631.5" y="161.4" font-size="14.7" font-weight="700">baby shoreline</text>
<text x="628.1" y="177.9" font-size="14.7" font-weight="700">death</text>
<text x="628.1" y="193.7" font-size="9.7" font-weight="600" font-family="monospace" opacity="0.92">+0.5</text>
</g>
<g text-anchor="middle" fill="#fbf9f0" style="text-shadow:0 1px 2px rgba(0,0,0,.45)">
<text x="574.0" y="67.7" font-size="13.3" font-weight="700">Energy price</text>
<text x="577.2" y="82.6" font-size="13.3" font-weight="700">cap rise</text>
<text x="577.2" y="97.4" font-size="13.3" font-weight="700">forecasts</text>
<text x="577.2" y="111.6" font-size="8.8" font-weight="600" font-family="monospace" opacity="0.92">-1.0</text>
</g>
<g text-anchor="middle" fill="#16180f" style="text-shadow:0 1px 2px rgba(0,0,0,.45)">
<text x="379.3" y="407.0" font-size="13.2" font-weight="700">Widdecombe</text>
<text x="379.3" y="421.8" font-size="13.2" font-weight="700">suspect terror</text>
<text x="379.3" y="436.6" font-size="13.2" font-weight="700">charges</text>
<text x="379.3" y="450.8" font-size="8.7" font-weight="600" font-family="monospace" opacity="0.92">-0.3</text>
</g>
<g text-anchor="middle" fill="#16180f" style="text-shadow:0 1px 2px rgba(0,0,0,.45)">
<text x="492.4" y="783.6" font-size="10.9" font-weight="700">Morgan Earl Spencer</text>
<text x="492.4" y="795.8" font-size="10.9" font-weight="700">dispute</text>
<text x="492.4" y="807.5" font-size="7.2" font-weight="600" font-family="monospace" opacity="0.92">+0.0</text>
</g>
<g text-anchor="middle" fill="#fbf9f0" style="text-shadow:0 1px 2px rgba(0,0,0,.45)">
<text x="322.8" y="816.5" font-size="12.3" font-weight="700">Farage border</text>
<text x="310.7" y="830.2" font-size="12.3" font-weight="700">control remarks</text>
<text x="322.8" y="843.4" font-size="8.1" font-weight="600" font-family="monospace" opacity="0.92">-0.8</text>
</g>
<g text-anchor="middle" fill="#fbf9f0" style="text-shadow:0 1px 2px rgba(0,0,0,.45)">
<text x="718.5" y="660.2" font-size="14.1" font-weight="700">Russian</text>
<text x="718.5" y="676.0" font-size="14.1" font-weight="700">military</text>
<text x="718.5" y="691.8" font-size="14.1" font-weight="700">expansion</text>
<text x="718.5" y="706.9" font-size="9.3" font-weight="600" font-family="monospace" opacity="0.92">-1.2</text>
</g>
<g text-anchor="middle" fill="#16180f" style="text-shadow:0 1px 2px rgba(0,0,0,.45)">
<text x="567.6" y="235.0" font-size="10.6" font-weight="700">Manchester</text>
<text x="560.2" y="246.8" font-size="10.6" font-weight="700">Jewish</text>
<text x="560.2" y="258.7" font-size="10.6" font-weight="700">community</text>
<text x="560.2" y="270.5" font-size="10.6" font-weight="700">terror charges</text>
<text x="560.2" y="281.8" font-size="7.0" font-weight="600" font-family="monospace" opacity="0.92">-0.2</text>
</g>
<g text-anchor="middle" fill="#fbf9f0" style="text-shadow:0 1px 2px rgba(0,0,0,.45)">
<text x="646.8" y="764.2" font-size="14.1" font-weight="700">Teenagers</text>
<text x="639.4" y="780.0" font-size="14.1" font-weight="700">injured in road</text>
<text x="650.7" y="795.8" font-size="14.1" font-weight="700">crashes</text>
</g>
<g text-anchor="middle" fill="#fbf9f0" style="text-shadow:0 1px 2px rgba(0,0,0,.45)">
<text x="93.0" y="259.5" font-size="9.5" font-weight="700">Celebrity</text>
<text x="85.4" y="270.2" font-size="9.5" font-weight="700">Traitors</text>
<text x="85.4" y="280.9" font-size="9.5" font-weight="700">and</text>
<text x="85.4" y="291.6" font-size="9.5" font-weight="700">licence</text>
<text x="85.4" y="302.3" font-size="9.5" font-weight="700">fee</text>
</g>
<g text-anchor="middle" fill="#fbf9f0" style="text-shadow:0 1px 2px rgba(0,0,0,.45)">
<text x="215.4" y="117.1" font-size="13.1" font-weight="700">Greens</text>
<text x="215.4" y="131.8" font-size="13.1" font-weight="700">Holborn</text>
<text x="215.4" y="146.5" font-size="13.1" font-weight="700">by-election</text>
<text x="215.4" y="161.2" font-size="13.1" font-weight="700">campaign</text>
<text x="215.4" y="175.3" font-size="8.7" font-weight="600" font-family="monospace" opacity="0.92">-0.9</text>
</g>
<g text-anchor="middle" fill="#16180f" style="text-shadow:0 1px 2px rgba(0,0,0,.45)">
<text x="744.2" y="585.9" font-size="14.7" font-weight="700">Trump US</text>
<text x="741.1" y="602.4" font-size="14.7" font-weight="700">weapons</text>
<text x="741.1" y="618.8" font-size="14.7" font-weight="700">offer to Xi</text>
<text x="741.1" y="634.6" font-size="9.7" font-weight="600" font-family="monospace" opacity="0.92">-0.3</text>
</g>
<g text-anchor="middle" fill="#16180f" style="text-shadow:0 1px 2px rgba(0,0,0,.45)">
<text x="821.6" y="581.7" font-size="12.6" font-weight="700">Pension</text>
<text x="814.6" y="595.8" font-size="12.6" font-weight="700">cuts for</text>
<text x="814.6" y="609.9" font-size="12.6" font-weight="700">social</text>
<text x="814.6" y="624.0" font-size="12.6" font-weight="700">care</text>
<text x="814.6" y="637.5" font-size="8.3" font-weight="600" font-family="monospace" opacity="0.92">+0.0</text>
</g>
<g text-anchor="middle" fill="#16180f" style="text-shadow:0 1px 2px rgba(0,0,0,.45)">
<text x="672.2" y="107.7" font-size="13.0" font-weight="700">Sandie</text>
<text x="690.3" y="122.2" font-size="13.0" font-weight="700">Peggie</text>
<text x="690.3" y="136.7" font-size="13.0" font-weight="700">tribunal</text>
<text x="699.1" y="150.6" font-size="8.6" font-weight="600" font-family="monospace" opacity="0.92">+0.2</text>
</g>
<g text-anchor="middle" fill="#16180f" style="text-shadow:0 1px 2px rgba(0,0,0,.45)">
<text x="786.4" y="520.3" font-size="13.0" font-weight="700">Christa</text>
<text x="786.4" y="534.9" font-size="13.0" font-weight="700">Pike</text>
<text x="786.4" y="549.5" font-size="13.0" font-weight="700">execution date</text>
<text x="786.4" y="563.5" font-size="8.6" font-weight="600" font-family="monospace" opacity="0.92">-0.3</text>
</g>
<g text-anchor="middle" fill="#16180f" style="text-shadow:0 1px 2px rgba(0,0,0,.45)">
<text x="443.1" y="41.4" font-size="13.0" font-weight="700">Terrorism arrests near</text>
<text x="418.0" y="56.0" font-size="13.0" font-weight="700">RAF airbase</text>
<text x="401.9" y="69.9" font-size="8.6" font-weight="600" font-family="monospace" opacity="0.92">+0.1</text>
</g>
<g text-anchor="middle" fill="#fbf9f0" style="text-shadow:0 1px 2px rgba(0,0,0,.45)">
<text x="755.9" y="708.1" font-size="8.5" font-weight="700">Flydubai</text>
<text x="746.8" y="717.6" font-size="8.5" font-weight="700">cockpit</text>
<text x="746.8" y="727.2" font-size="8.5" font-weight="700">attack</text>
<text x="746.8" y="736.7" font-size="8.5" font-weight="700">response</text>
<text x="746.8" y="745.8" font-size="5.6" font-weight="600" font-family="monospace" opacity="0.92">-1.1</text>
</g>
</g>
<text x="26" y="26" font-size="13" fill="#4b5654" font-weight="600">Front Page Monitor &#183; 40 stories, 1174 articles</text><text x="26" y="43" font-size="11" fill="#7c8785">2026-10-03 15:19 UTC &#183; last 48h &#183; 38 of 40 scored</text>
</svg>