<svg xmlns="http://www.w3.org/2000/svg" width="900" height="900" viewBox="0 0 900 900" font-family="Helvetica Neue, Arial, sans-serif">
<rect width="900" height="900" fill="#eef1f0"/>
<defs>
<linearGradient id="g0" x1="0" y1="0" x2="1" y2="0"><stop offset="0" stop-color="#dae0cd"/><stop offset="1" stop-color="#e9cdc1"/></linearGradient>
<linearGradient id="g1" x1="0" y1="0" x2="1" y2="0"><stop offset="0" stop-color="#e8d2c6"/><stop offset="1" stop-color="#ee9c96"/></linearGradient>
<linearGradient id="g2" x1="0" y1="0" x2="1" y2="0"><stop offset="0" stop-color="#a7d7ae"/><stop offset="1" stop-color="#ebb6ad"/></linearGradient>
<linearGradient id="g3" x1="0" y1="0" x2="1" y2="0"><stop offset="0" stop-color="#6ece8b"/><stop offset="1" stop-color="#e8cec2"/></linearGradient>
<linearGradient id="g4" x1="0" y1="0" x2="1" y2="0"><stop offset="0" stop-color="#e93b3b"/><stop offset="1" stop-color="#eb4444"/></linearGradient>
<linearGradient id="g5" x1="0" y1="0" x2="1" y2="0"><stop offset="0" stop-color="#7bd093"/><stop offset="1" stop-color="#f08b87"/></linearGradient>
<linearGradient id="g6" x1="0" y1="0" x2="1" y2="0"><stop offset="0" stop-color="#24a154"/><stop offset="1" stop-color="#e7d7cb"/></linearGradient>
<linearGradient id="g7" x1="0" y1="0" x2="1" y2="0"><stop offset="0" stop-color="#f56363"/><stop offset="1" stop-color="#ea3f3f"/></linearGradient>
<linearGradient id="g8" x1="0" y1="0" x2="1" y2="0"><stop offset="0" stop-color="#ef928d"/><stop offset="1" stop-color="#73cf8e"/></linearGradient>
<linearGradient id="g9" x1="0" y1="0" x2="1" y2="0"><stop offset="0" stop-color="#ee9f98"/><stop offset="1" stop-color="#f56565"/></linearGradient>
<linearGradient id="g10" x1="0" y1="0" x2="1" y2="0"><stop offset="0" stop-color="#c9ddc3"/><stop offset="1" stop-color="#b1d9b4"/></linearGradient>
<linearGradient id="g11" x1="0" y1="0" x2="1" y2="0"><stop offset="0" stop-color="#56ca7c"/><stop offset="1" stop-color="#7cd094"/></linearGradient>
<linearGradient id="g12" x1="0" y1="0" x2="1" y2="0"><stop offset="0" stop-color="#71ce8d"/><stop offset="1" stop-color="#abd8b0"/></linearGradient>
<linearGradient id="g13" x1="0" y1="0" x2="1" y2="0"><stop offset="0" stop-color="#ee9b95"/><stop offset="1" stop-color="#f37977"/></linearGradient>
<linearGradient id="g14" x1="0" y1="0" x2="1" y2="0"><stop offset="0" stop-color="#f18380"/><stop offset="1" stop-color="#eb4242"/></linearGradient>
<linearGradient id="g15" x1="0" y1="0" x2="1" y2="0"><stop offset="0" stop-color="#b5dab6"/><stop offset="1" stop-color="#e8d2c6"/></linearGradient>
<linearGradient id="g16" x1="0" y1="0" x2="1" y2="0"><stop offset="0" stop-color="#ef938d"/><stop offset="1" stop-color="#e63131"/></linearGradient>
<linearGradient id="g17" x1="0" y1="0" x2="1" y2="0"><stop offset="0" stop-color="#ecafa6"/><stop offset="1" stop-color="#f56666"/></linearGradient>
<linearGradient id="g18" x1="0" y1="0" x2="1" y2="0"><stop offset="0" stop-color="#d2dfc8"/><stop offset="1" stop-color="#f27e7b"/></linearGradient>
<linearGradient id="g19" x1="0" y1="0" x2="1" y2="0"><stop offset="0" stop-color="#f35d5d"/><stop offset="1" stop-color="#c6ddc0"/></linearGradient>
<linearGradient id="g20" x1="0" y1="0" x2="1" y2="0"><stop offset="0" stop-color="#d7e0cb"/><stop offset="1" stop-color="#ebb8ae"/></linearGradient>
<linearGradient id="g21" x1="0" y1="0" x2="1" y2="0"><stop offset="0" stop-color="#bcbeba"/><stop offset="1" stop-color="#bcbeba"/></linearGradient>
<linearGradient id="g22" x1="0" y1="0" x2="1" y2="0"><stop offset="0" stop-color="#ef5151"/><stop offset="1" stop-color="#e8d2c6"/></linearGradient>
<linearGradient id="g23" x1="0" y1="0" x2="1" y2="0"><stop offset="0" stop-color="#61cb83"/><stop offset="1" stop-color="#e3e1d2"/></linearGradient>
<linearGradient id="g24" x1="0" y1="0" x2="1" y2="0"><stop offset="0" stop-color="#e52e2e"/><stop offset="1" stop-color="#ea4040"/></linearGradient>
<linearGradient id="g25" x1="0" y1="0" x2="1" y2="0"><stop offset="0" stop-color="#4cc475"/><stop offset="1" stop-color="#d8e0cc"/></linearGradient>
<linearGradient id="g26" x1="0" y1="0" x2="1" y2="0"><stop offset="0" stop-color="#a8d8af"/><stop offset="1" stop-color="#dde0cf"/></linearGradient>
<linearGradient id="g27" x1="0" y1="0" x2="1" y2="0"><stop offset="0" stop-color="#eda9a2"/><stop offset="1" stop-color="#edaaa2"/></linearGradient>
<linearGradient id="g28" x1="0" y1="0" x2="1" y2="0"><stop offset="0" stop-color="#ef948f"/><stop offset="1" stop-color="#ecaca4"/></linearGradient>
<linearGradient id="g29" x1="0" y1="0" x2="1" y2="0"><stop offset="0" stop-color="#e4e2d3"/><stop offset="1" stop-color="#eda9a1"/></linearGradient>
<linearGradient id="g30" x1="0" y1="0" x2="1" y2="0"><stop offset="0" stop-color="#5ecb81"/><stop offset="1" stop-color="#e0e1d0"/></linearGradient>
<linearGradient id="g31" x1="0" y1="0" x2="1" y2="0"><stop offset="0" stop-color="#63cc84"/><stop offset="1" stop-color="#52c97a"/></linearGradient>
<linearGradient id="g32" x1="0" y1="0" x2="1" y2="0"><stop offset="0" stop-color="#e01e1e"/><stop offset="1" stop-color="#e01e1e"/></linearGradient>
<linearGradient id="g33" x1="0" y1="0" x2="1" y2="0"><stop offset="0" stop-color="#f46c6b"/><stop offset="1" stop-color="#e8d4c8"/></linearGradient>
<linearGradient id="g34" x1="0" y1="0" x2="1" y2="0"><stop offset="0" stop-color="#e9c5ba"/><stop offset="1" stop-color="#ecafa6"/></linearGradient>
<linearGradient id="g35" x1="0" y1="0" x2="1" y2="0"><stop offset="0" stop-color="#ef948f"/><stop offset="1" stop-color="#f18884"/></linearGradient>
<linearGradient id="g36" x1="0" y1="0" x2="1" y2="0"><stop offset="0" stop-color="#bcbeba"/><stop offset="1" stop-color="#bcbeba"/></linearGradient>
<linearGradient id="g37" x1="0" y1="0" x2="1" y2="0"><stop offset="0" stop-color="#f37271"/><stop offset="1" stop-color="#54c97b"/></linearGradient>
<linearGradient id="g38" x1="0" y1="0" x2="1" y2="0"><stop offset="0" stop-color="#e6e2d4"/><stop offset="1" stop-color="#e6e2d4"/></linearGradient>
<linearGradient id="g39" x1="0" y1="0" x2="1" y2="0"><stop offset="0" stop-color="#e6e2d4"/><stop offset="1" stop-color="#e6e2d4"/></linearGradient>
<radialGradient id="lit" cx="0.34" cy="0.28" r="0.78"><stop offset="0" stop-color="#ffffff" stop-opacity="0.42"/><stop offset="0.55" stop-color="#ffffff" stop-opacity="0.05"/><stop offset="1" stop-color="#1a1608" stop-opacity="0.42"/></radialGradient><radialGradient id="rim" cx="0.5" cy="0.5" r="0.5"><stop offset="0.86" stop-color="#000000" stop-opacity="0"/><stop offset="1" stop-color="#000000" stop-opacity="0.30"/></radialGradient><clipPath id="disc"><circle cx="450.0" cy="450.0" r="424.0"/></clipPath></defs>
<g clip-path="url(#disc)">
<polygon points="123.0,595.6 120.9,592.7 118.8,589.9 116.7,587.1 114.5,584.3 112.4,581.4 110.3,578.6 108.2,575.8 106.1,573.0 104.0,570.1 101.9,567.3 99.8,564.5 97.7,561.7 95.6,558.8 93.5,556.0 91.3,553.2 89.2,550.3 87.1,547.5 85.0,544.7 82.9,541.9 80.8,539.0 78.7,536.2 76.6,533.4 74.5,530.6 72.4,527.7 70.2,524.9 68.1,522.1 66.0,519.3 63.9,516.4 61.8,513.6 60.7,510.8 60.9,507.9 61.0,505.1 61.1,502.3 61.2,499.5 61.4,496.6 61.5,493.8 61.6,491.0 61.7,488.2 61.9,485.3 62.0,482.5 62.1,479.7 62.2,476.9 62.4,474.0 62.5,471.2 62.6,468.4 62.7,465.5 62.9,462.7 63.0,459.9 63.1,457.1 63.2,454.2 63.4,451.4 63.5,448.6 63.6,445.8 63.7,442.9 63.8,440.1 64.0,437.3 64.1,434.5 64.2,431.6 64.3,428.8 64.5,426.0 64.6,423.1 64.7,420.3 64.8,417.5 65.0,414.7 65.1,411.8 65.2,409.0 65.3,406.2 65.5,403.4 65.6,400.5 65.7,397.7 65.8,394.9 66.0,392.1 66.1,389.2 66.2,386.4 66.3,383.6 66.5,380.7 66.6,377.9 66.7,375.1 66.8,372.3 67.0,369.4 67.1,366.6 67.2,363.8 67.3,361.0 67.5,358.1 67.6,355.3 67.7,352.5 67.8,349.7 68.0,346.8 68.1,344.0 68.2,341.2 69.6,338.3 76.1,335.5 87.4,332.7 96.4,332.7 103.3,335.5 110.3,338.3 117.3,341.2 124.3,344.0 131.3,346.8 138.2,349.7 145.2,352.5 152.2,355.3 159.2,358.1 166.1,361.0 173.1,363.8 180.1,366.6 187.1,369.4 194.0,372.3 201.0,375.1 208.0,377.9 215.0,380.7 221.9,383.6 228.9,386.4 235.9,389.2 242.9,392.1 249.8,394.9 256.8,397.7 263.8,400.5 270.8,403.4 277.8,406.2 284.7,409.0 291.7,411.8 298.7,414.7 305.7,417.5 312.6,420.3 319.6,423.1 326.6,426.0 333.6,428.8 340.5,431.6 347.5,434.5 346.3,437.3 344.6,440.1 342.9,442.9 341.2,445.8 339.5,448.6 337.8,451.4 336.1,454.2 334.4,457.1 332.7,459.9 331.0,462.7 329.3,465.5 327.6,468.4 325.9,471.2 324.2,474.0 322.5,476.9 320.8,479.7 319.1,482.5 317.4,485.3 315.7,488.2 314.0,491.0 312.3,493.8 310.6,496.6 308.9,499.5 307.2,502.3 305.5,505.1 303.8,507.9 302.1,510.8 300.4,513.6 298.7,516.4 297.0,519.3 295.3,522.1 293.6,524.9 291.9,527.7 290.2,530.6 287.6,533.4 283.4,536.2 279.2,539.0 275.0,541.9 270.8,544.7 266.5,547.5 262.3,550.3 258.1,553.2 253.9,556.0 249.7,558.8 245.4,561.7 241.2,564.5 237.0,567.3 232.8,570.1 228.6,573.0 224.3,575.8 220.1,578.6 208.6,581.4 193.3,584.3 177.9,587.1 162.6,589.9 147.3,592.7 132.0,595.6" fill="url(#g0)" stroke="#fbfcfb" stroke-width="1.1" stroke-linejoin="round"/>
<polygon points="274.2,835.8 268.1,833.0 262.3,830.2 256.7,827.4 251.3,824.5 246.0,821.7 240.9,818.9 236.0,816.1 231.3,813.2 226.6,810.4 222.1,807.6 217.8,804.7 213.5,801.9 209.4,799.1 205.3,796.3 201.4,793.4 197.5,790.6 193.7,787.8 190.0,785.0 186.4,782.1 182.9,779.3 179.5,776.5 176.1,773.7 172.8,770.8 169.6,768.0 166.4,765.2 163.3,762.3 160.2,759.5 157.2,756.7 154.3,753.9 151.4,751.0 148.6,748.2 145.8,745.4 143.1,742.6 140.4,739.7 137.8,736.9 135.2,734.1 132.7,731.3 130.2,728.4 127.8,725.6 125.4,722.8 123.0,719.9 120.7,717.1 118.5,714.3 116.2,711.5 114.0,708.6 111.9,705.8 109.7,703.0 107.7,700.2 105.6,697.3 103.6,694.5 104.2,691.7 104.8,688.9 105.3,686.0 105.9,683.2 106.5,680.4 107.1,677.5 107.7,674.7 108.3,671.9 108.9,669.1 109.5,666.2 110.1,663.4 110.7,660.6 111.3,657.8 111.9,654.9 112.5,652.1 113.1,649.3 113.7,646.5 114.3,643.6 114.9,640.8 115.5,638.0 116.1,635.1 116.6,632.3 117.2,629.5 117.8,626.7 118.4,623.8 119.0,621.0 119.6,618.2 120.2,615.4 120.8,612.5 121.4,609.7 122.0,606.9 122.6,604.1 123.2,601.2 123.8,598.4 132.0,595.6 147.3,592.7 162.6,589.9 177.9,587.1 193.3,584.3 208.6,581.4 220.9,581.4 224.2,584.3 227.6,587.1 230.9,589.9 234.3,592.7 237.6,595.6 241.0,598.4 244.3,601.2 247.7,604.1 251.0,606.9 254.4,609.7 257.7,612.5 261.1,615.4 264.4,618.2 267.8,621.0 271.1,623.8 274.5,626.7 277.8,629.5 281.2,632.3 284.5,635.1 287.8,638.0 291.2,640.8 294.5,643.6 297.9,646.5 301.2,649.3 304.6,652.1 307.9,654.9 311.3,657.8 314.6,660.6 318.0,663.4 321.3,666.2 324.7,669.1 328.0,671.9 331.4,674.7 334.7,677.5 338.1,680.4 341.4,683.2 344.8,686.0 348.1,688.9 351.5,691.7 354.8,694.5 358.2,697.3 361.5,700.2 364.9,703.0 368.2,705.8 371.6,708.6 374.9,711.5 375.5,714.3 375.1,717.1 374.8,719.9 374.5,722.8 374.1,725.6 373.8,728.4 373.5,731.3 373.1,734.1 372.8,736.9 372.5,739.7 372.1,742.6 371.8,745.4 371.5,748.2 371.1,751.0 370.8,753.9 370.5,756.7 370.1,759.5 369.8,762.3 369.5,765.2 369.1,768.0 368.8,770.8 368.5,773.7 367.4,776.5 363.4,779.3 359.5,782.1 355.5,785.0 351.5,787.8 347.6,790.6 343.6,793.4 339.7,796.3 335.7,799.1 331.8,801.9 327.8,804.7 323.8,807.6 319.9,810.4 315.9,813.2 312.0,816.1 308.0,818.9 304.0,821.7 300.1,824.5 296.1,827.4 292.2,830.2 288.2,833.0 284.3,835.8" fill="url(#g1)" stroke="#fbfcfb" stroke-width="1.1" stroke-linejoin="round"/>
<polygon points="576.2,253.5 558.8,250.7 541.4,247.9 523.9,245.1 506.5,242.2 489.1,239.4 471.7,236.6 454.3,233.8 436.8,230.9 419.4,228.1 414.5,225.3 412.6,222.5 410.8,219.6 408.9,216.8 407.1,214.0 405.2,211.1 403.4,208.3 401.6,205.5 399.7,202.7 397.9,199.8 396.0,197.0 394.2,194.2 392.3,191.4 390.5,188.5 388.6,185.7 386.8,182.9 385.0,180.1 383.1,177.2 381.3,174.4 379.4,171.6 377.6,168.7 375.7,165.9 373.9,163.1 372.0,160.3 370.2,157.4 368.3,154.6 366.5,151.8 367.3,149.0 369.5,146.1 371.8,143.3 374.0,140.5 376.3,137.7 378.5,134.8 380.8,132.0 383.0,129.2 385.3,126.3 387.5,123.5 389.8,120.7 392.0,117.9 394.3,115.0 396.5,112.2 398.8,109.4 401.0,106.6 403.3,103.7 405.5,100.9 407.8,98.1 410.0,95.3 417.6,92.4 430.1,89.6 442.5,86.8 454.9,83.9 467.3,81.1 479.8,78.3 492.2,75.5 504.6,72.6 517.0,69.8 529.4,67.0 541.9,64.2 556.1,64.2 558.2,67.0 560.3,69.8 562.3,72.6 564.4,75.5 566.5,78.3 568.5,81.1 570.6,83.9 572.6,86.8 574.7,89.6 576.8,92.4 578.8,95.3 580.9,98.1 583.0,100.9 585.0,103.7 587.1,106.6 589.2,109.4 591.2,112.2 593.3,115.0 595.3,117.9 597.4,120.7 599.5,123.5 601.5,126.3 603.6,129.2 605.7,132.0 607.7,134.8 609.8,137.7 611.9,140.5 613.9,143.3 616.0,146.1 618.0,149.0 620.1,151.8 622.1,154.6 621.8,157.4 621.5,160.3 621.2,163.1 620.9,165.9 620.6,168.7 620.2,171.6 619.9,174.4 619.6,177.2 619.3,180.1 619.0,182.9 618.7,185.7 618.4,188.5 618.1,191.4 617.8,194.2 617.4,197.0 617.1,199.8 616.8,202.7 616.5,205.5 616.2,208.3 615.9,211.1 615.6,214.0 615.3,216.8 615.0,219.6 614.6,222.5 614.3,225.3 614.0,228.1 613.7,230.9 613.4,233.8 610.9,236.6 608.1,239.4 605.3,242.2 602.5,245.1 599.7,247.9 596.9,250.7 594.1,253.5" fill="url(#g2)" stroke="#fbfcfb" stroke-width="1.1" stroke-linejoin="round"/>
<polygon points="587.7,722.8 581.1,719.9 574.6,717.1 568.0,714.3 561.4,711.5 554.8,708.6 548.2,705.8 541.6,703.0 535.1,700.2 528.5,697.3 521.9,694.5 515.3,691.7 508.7,688.9 502.1,686.0 495.6,683.2 489.0,680.4 482.4,677.5 475.8,674.7 469.2,671.9 462.6,669.1 456.1,666.2 449.5,663.4 442.9,660.6 436.3,657.8 431.9,654.9 431.7,652.1 431.5,649.3 431.3,646.5 431.1,643.6 430.9,640.8 430.6,638.0 430.4,635.1 430.2,632.3 430.0,629.5 429.8,626.7 429.6,623.8 429.3,621.0 429.1,618.2 428.9,615.4 428.7,612.5 428.5,609.7 428.3,606.9 428.1,604.1 427.8,601.2 427.6,598.4 427.4,595.6 427.2,592.7 427.0,589.9 426.8,587.1 426.6,584.3 426.3,581.4 426.1,578.6 426.3,575.8 428.0,573.0 429.7,570.1 431.5,567.3 433.2,564.5 434.9,561.7 436.7,558.8 438.4,556.0 440.1,553.2 441.9,550.3 450.2,550.3 468.6,553.2 487.1,556.0 505.6,558.8 524.0,561.7 542.5,564.5 560.9,567.3 579.4,570.1 597.9,573.0 616.3,575.8 631.3,578.6 635.9,581.4 640.5,584.3 645.1,587.1 649.7,589.9 654.3,592.7 658.9,595.6 663.5,598.4 668.1,601.2 672.7,604.1 677.3,606.9 681.9,609.7 686.5,612.5 687.0,615.4 687.0,618.2 687.0,621.0 687.0,623.8 687.0,626.7 687.0,629.5 687.0,632.3 687.0,635.1 687.0,638.0 687.0,640.8 687.0,643.6 686.9,646.5 685.2,649.3 683.6,652.1 681.9,654.9 680.2,657.8 678.5,660.6 676.8,663.4 675.2,666.2 673.5,669.1 671.8,671.9 668.5,674.7 664.3,677.5 660.2,680.4 656.1,683.2 651.9,686.0 647.8,688.9 643.7,691.7 639.5,694.5 635.4,697.3 631.3,700.2 627.1,703.0 623.0,705.8 618.8,708.6 614.7,711.5 610.6,714.3 606.4,717.1 602.3,719.9 598.2,722.8" fill="url(#g3)" stroke="#fbfcfb" stroke-width="1.1" stroke-linejoin="round"/>
<polygon points="347.5,434.5 340.5,431.6 333.6,428.8 326.6,426.0 319.6,423.1 312.6,420.3 305.7,417.5 298.7,414.7 291.7,411.8 284.7,409.0 277.8,406.2 270.8,403.4 263.8,400.5 256.8,397.7 249.8,394.9 242.9,392.1 235.9,389.2 228.9,386.4 221.9,383.6 215.0,380.7 208.0,377.9 201.0,375.1 194.0,372.3 187.1,369.4 180.1,366.6 173.1,363.8 166.1,361.0 159.2,358.1 152.2,355.3 145.2,352.5 138.2,349.7 131.3,346.8 124.3,344.0 117.3,341.2 110.3,338.3 103.3,335.5 96.4,332.7 95.1,329.9 99.3,327.0 103.6,324.2 107.8,321.4 112.0,318.6 116.3,315.7 120.5,312.9 124.7,310.1 129.0,307.3 133.2,304.4 137.4,301.6 141.7,298.8 145.9,295.9 150.1,293.1 154.4,290.3 158.6,287.5 162.9,284.6 167.1,281.8 171.3,279.0 175.6,276.2 179.8,273.3 184.0,270.5 188.3,267.7 192.5,264.9 196.7,262.0 201.0,259.2 205.2,256.4 209.4,253.5 213.7,250.7 217.9,247.9 222.1,245.1 226.4,242.2 230.6,239.4 234.8,236.6 239.1,233.8 243.3,230.9 247.5,228.1 251.8,225.3 256.0,222.5 260.2,219.6 262.0,219.6 264.1,222.5 266.2,225.3 268.2,228.1 270.3,230.9 272.4,233.8 274.4,236.6 276.5,239.4 278.6,242.2 280.6,245.1 282.7,247.9 284.8,250.7 286.8,253.5 288.9,256.4 291.0,259.2 293.0,262.0 295.1,264.9 297.2,267.7 299.2,270.5 301.3,273.3 303.4,276.2 305.4,279.0 307.5,281.8 309.6,284.6 311.6,287.5 313.7,290.3 315.8,293.1 317.8,295.9 319.9,298.8 322.0,301.6 324.0,304.4 326.1,307.3 328.2,310.1 330.2,312.9 332.3,315.7 334.4,318.6 336.4,321.4 338.5,324.2 340.6,327.0 342.6,329.9 344.7,332.7 346.8,335.5 348.8,338.3 350.9,341.2 353.0,344.0 355.0,346.8 357.1,349.7 359.2,352.5 361.2,355.3 363.3,358.1 365.4,361.0 367.4,363.8 369.5,366.6 371.0,369.4 370.2,372.3 369.4,375.1 368.5,377.9 367.7,380.7 366.9,383.6 366.1,386.4 365.3,389.2 364.5,392.1 363.6,394.9 362.8,397.7 362.0,400.5 361.2,403.4 360.4,406.2 359.6,409.0 358.7,411.8 357.9,414.7 357.1,417.5 356.3,420.3 355.5,423.1 354.7,426.0 353.8,428.8 352.5,431.6 348.2,434.5" fill="url(#g4)" stroke="#fbfcfb" stroke-width="1.1" stroke-linejoin="round"/>
<polygon points="686.5,612.5 681.9,609.7 677.3,606.9 672.7,604.1 668.1,601.2 663.5,598.4 658.9,595.6 654.3,592.7 649.7,589.9 645.1,587.1 640.5,584.3 635.9,581.4 631.3,578.6 629.2,575.8 628.1,573.0 627.0,570.1 625.9,567.3 624.8,564.5 623.7,561.7 622.5,558.8 621.4,556.0 620.3,553.2 619.2,550.3 618.1,547.5 616.9,544.7 615.8,541.9 614.7,539.0 613.6,536.2 612.5,533.4 611.3,530.6 610.2,527.7 609.1,524.9 608.0,522.1 606.9,519.3 605.7,516.4 604.6,513.6 603.5,510.8 602.4,507.9 601.3,505.1 600.1,502.3 599.0,499.5 597.9,496.6 596.8,493.8 595.7,491.0 594.6,488.2 593.4,485.3 592.3,482.5 591.2,479.7 590.1,476.9 589.0,474.0 587.8,471.2 586.7,468.4 585.6,465.5 584.5,462.7 583.4,459.9 582.2,457.1 581.1,454.2 580.0,451.4 578.9,448.6 577.8,445.8 576.6,442.9 575.5,440.1 574.4,437.3 573.3,434.5 572.2,431.6 571.1,428.8 569.9,426.0 570.3,423.1 575.2,420.3 580.0,417.5 584.9,414.7 589.8,411.8 594.7,409.0 599.5,406.2 604.4,403.4 609.3,400.5 614.2,397.7 619.0,394.9 623.9,392.1 628.8,389.2 633.7,386.4 638.5,383.6 643.4,380.7 648.7,380.7 652.3,383.6 655.9,386.4 659.5,389.2 663.0,392.1 666.6,394.9 670.2,397.7 673.8,400.5 677.3,403.4 680.9,406.2 684.5,409.0 688.1,411.8 691.6,414.7 695.2,417.5 698.8,420.3 702.4,423.1 705.9,426.0 709.5,428.8 713.1,431.6 716.7,434.5 720.2,437.3 723.8,440.1 727.4,442.9 731.0,445.8 734.5,448.6 738.1,451.4 741.7,454.2 745.3,457.1 748.9,459.9 752.4,462.7 756.0,465.5 759.6,468.4 763.2,471.2 766.7,474.0 770.3,476.9 773.9,479.7 777.5,482.5 778.6,485.3 778.5,488.2 778.4,491.0 778.2,493.8 778.1,496.6 778.0,499.5 777.9,502.3 777.7,505.1 777.6,507.9 777.5,510.8 777.3,513.6 777.2,516.4 775.7,519.3 773.0,522.1 770.3,524.9 767.6,527.7 764.9,530.6 762.3,533.4 759.6,536.2 756.9,539.0 754.2,541.9 751.5,544.7 748.9,547.5 746.2,550.3 743.5,553.2 740.8,556.0 738.1,558.8 735.5,561.7 732.8,564.5 730.1,567.3 727.4,570.1 724.8,573.0 722.1,575.8 719.4,578.6 716.7,581.4 714.0,584.3 711.4,587.1 708.7,589.9 706.0,592.7 703.3,595.6 700.6,598.4 698.0,601.2 695.3,604.1 692.6,606.9 689.9,609.7 687.3,612.5" fill="url(#g5)" stroke="#fbfcfb" stroke-width="1.1" stroke-linejoin="round"/>
<polygon points="616.3,575.8 597.9,573.0 579.4,570.1 560.9,567.3 542.5,564.5 524.0,561.7 505.6,558.8 487.1,556.0 468.6,553.2 450.2,550.3 442.4,547.5 442.2,544.7 441.9,541.9 441.7,539.0 441.4,536.2 441.1,533.4 440.9,530.6 440.6,527.7 440.4,524.9 440.1,522.1 439.9,519.3 439.6,516.4 439.3,513.6 439.1,510.8 438.8,507.9 438.6,505.1 438.3,502.3 438.0,499.5 437.8,496.6 437.5,493.8 437.3,491.0 437.0,488.2 436.8,485.3 436.5,482.5 436.2,479.7 436.0,476.9 435.7,474.0 435.5,471.2 435.2,468.4 435.0,465.5 434.7,462.7 434.4,459.9 434.2,457.1 433.9,454.2 433.7,451.4 433.4,448.6 434.9,445.8 437.8,442.9 440.8,440.1 443.8,437.3 446.8,434.5 449.8,431.6 452.8,428.8 455.8,426.0 458.8,423.1 540.9,423.1 569.9,426.0 571.1,428.8 572.2,431.6 573.3,434.5 574.4,437.3 575.5,440.1 576.6,442.9 577.8,445.8 578.9,448.6 580.0,451.4 581.1,454.2 582.2,457.1 583.4,459.9 584.5,462.7 585.6,465.5 586.7,468.4 587.8,471.2 589.0,474.0 590.1,476.9 591.2,479.7 592.3,482.5 593.4,485.3 594.6,488.2 595.7,491.0 596.8,493.8 597.9,496.6 599.0,499.5 600.1,502.3 601.3,505.1 602.4,507.9 603.5,510.8 604.6,513.6 605.7,516.4 606.9,519.3 608.0,522.1 609.1,524.9 610.2,527.7 611.3,530.6 612.5,533.4 613.6,536.2 614.7,539.0 615.8,541.9 616.9,544.7 618.1,547.5 619.2,550.3 620.3,553.2 621.4,556.0 622.5,558.8 623.7,561.7 624.8,564.5 625.9,567.3 627.0,570.1 628.1,573.0 629.2,575.8" fill="url(#g6)" stroke="#fbfcfb" stroke-width="1.1" stroke-linejoin="round"/>
<polygon points="374.9,711.5 371.6,708.6 368.2,705.8 364.9,703.0 361.5,700.2 358.2,697.3 354.8,694.5 351.5,691.7 348.1,688.9 344.8,686.0 341.4,683.2 338.1,680.4 334.7,677.5 331.4,674.7 328.0,671.9 324.7,669.1 321.3,666.2 318.0,663.4 314.6,660.6 311.3,657.8 307.9,654.9 304.6,652.1 301.2,649.3 297.9,646.5 294.5,643.6 291.2,640.8 287.8,638.0 284.5,635.1 281.2,632.3 277.8,629.5 274.5,626.7 271.1,623.8 267.8,621.0 264.4,618.2 261.1,615.4 257.7,612.5 254.4,609.7 251.0,606.9 247.7,604.1 244.3,601.2 241.0,598.4 237.6,595.6 234.3,592.7 230.9,589.9 227.6,587.1 224.2,584.3 220.9,581.4 220.1,578.6 224.3,575.8 228.6,573.0 232.8,570.1 237.0,567.3 241.2,564.5 245.4,561.7 249.7,558.8 253.9,556.0 258.1,553.2 262.3,550.3 266.5,547.5 270.8,544.7 275.0,541.9 279.2,539.0 283.4,536.2 287.6,533.4 292.0,533.4 300.8,536.2 309.6,539.0 318.5,541.9 327.3,544.7 336.1,547.5 344.9,550.3 353.8,553.2 362.6,556.0 371.4,558.8 380.2,561.7 389.1,564.5 397.9,567.3 406.7,570.1 415.5,573.0 424.4,575.8 426.1,578.6 426.3,581.4 426.6,584.3 426.8,587.1 427.0,589.9 427.2,592.7 427.4,595.6 427.6,598.4 427.8,601.2 428.1,604.1 428.3,606.9 428.5,609.7 428.7,612.5 428.9,615.4 429.1,618.2 429.3,621.0 429.6,623.8 429.8,626.7 430.0,629.5 430.2,632.3 430.4,635.1 430.6,638.0 430.9,640.8 431.1,643.6 431.3,646.5 431.5,649.3 431.7,652.1 431.9,654.9 430.2,657.8 427.3,660.6 424.5,663.4 421.7,666.2 418.8,669.1 416.0,671.9 413.2,674.7 410.3,677.5 407.5,680.4 404.7,683.2 401.9,686.0 399.0,688.9 396.2,691.7 393.4,694.5 390.5,697.3 387.7,700.2 384.9,703.0 382.0,705.8 379.2,708.6 376.4,711.5" fill="url(#g7)" stroke="#fbfcfb" stroke-width="1.1" stroke-linejoin="round"/>
<polygon points="369.5,366.6 367.4,363.8 365.4,361.0 363.3,358.1 361.2,355.3 359.2,352.5 357.1,349.7 355.0,346.8 353.0,344.0 350.9,341.2 348.8,338.3 346.8,335.5 344.7,332.7 342.6,329.9 340.6,327.0 338.5,324.2 336.4,321.4 334.4,318.6 332.3,315.7 330.2,312.9 328.2,310.1 326.1,307.3 324.0,304.4 322.0,301.6 319.9,298.8 317.8,295.9 315.8,293.1 313.7,290.3 311.6,287.5 309.6,284.6 307.5,281.8 305.4,279.0 303.4,276.2 301.3,273.3 299.2,270.5 297.2,267.7 295.1,264.9 293.0,262.0 291.0,259.2 288.9,256.4 286.8,253.5 284.8,250.7 282.7,247.9 280.6,245.1 278.6,242.2 276.5,239.4 274.4,236.6 272.4,233.8 270.3,230.9 268.2,228.1 266.2,225.3 264.1,222.5 262.0,219.6 262.1,216.8 263.0,214.0 263.9,211.1 264.8,208.3 265.7,205.5 266.6,202.7 267.5,199.8 268.4,197.0 269.3,194.2 270.2,191.4 271.1,188.5 272.0,185.7 272.9,182.9 273.8,180.1 274.7,177.2 275.6,174.4 276.5,171.6 277.4,168.7 287.5,165.9 302.1,163.1 316.7,160.3 331.3,157.4 345.9,154.6 360.5,151.8 366.5,151.8 368.3,154.6 370.2,157.4 372.0,160.3 373.9,163.1 375.7,165.9 377.6,168.7 379.4,171.6 381.3,174.4 383.1,177.2 385.0,180.1 386.8,182.9 388.6,185.7 390.5,188.5 392.3,191.4 394.2,194.2 396.0,197.0 397.9,199.8 399.7,202.7 401.6,205.5 403.4,208.3 405.2,211.1 407.1,214.0 408.9,216.8 410.8,219.6 412.6,222.5 414.5,225.3 415.9,228.1 415.5,230.9 415.2,233.8 414.9,236.6 414.5,239.4 414.2,242.2 413.8,245.1 413.5,247.9 413.2,250.7 412.8,253.5 412.5,256.4 412.1,259.2 411.8,262.0 411.4,264.9 411.1,267.7 410.8,270.5 410.4,273.3 410.1,276.2 409.7,279.0 409.4,281.8 409.0,284.6 408.7,287.5 408.4,290.3 408.0,293.1 407.7,295.9 407.3,298.8 407.0,301.6 406.7,304.4 406.3,307.3 406.0,310.1 405.6,312.9 405.3,315.7 404.9,318.6 404.6,321.4 404.3,324.2 403.9,327.0 403.6,329.9 403.2,332.7 402.9,335.5 402.5,338.3 402.2,341.2 401.9,344.0 401.5,346.8 401.2,349.7 400.8,352.5 400.5,355.3 400.2,358.1 392.7,361.0 385.0,363.8 377.3,366.6" fill="url(#g8)" stroke="#fbfcfb" stroke-width="1.1" stroke-linejoin="round"/>
<polygon points="458.1,383.6 451.6,380.7 445.2,377.9 438.7,375.1 432.2,372.3 425.8,369.4 419.3,366.6 412.9,363.8 406.4,361.0 400.2,358.1 400.5,355.3 400.8,352.5 401.2,349.7 401.5,346.8 401.9,344.0 402.2,341.2 402.5,338.3 402.9,335.5 403.2,332.7 403.6,329.9 403.9,327.0 404.3,324.2 404.6,321.4 404.9,318.6 405.3,315.7 405.6,312.9 406.0,310.1 406.3,307.3 406.7,304.4 407.0,301.6 407.3,298.8 407.7,295.9 408.0,293.1 408.4,290.3 408.7,287.5 409.0,284.6 409.4,281.8 409.7,279.0 410.1,276.2 410.4,273.3 410.8,270.5 411.1,267.7 411.4,264.9 411.8,262.0 412.1,259.2 412.5,256.4 412.8,253.5 413.2,250.7 413.5,247.9 413.8,245.1 414.2,242.2 414.5,239.4 414.9,236.6 415.2,233.8 415.5,230.9 415.9,228.1 419.4,228.1 436.8,230.9 454.3,233.8 471.7,236.6 489.1,239.4 506.5,242.2 523.9,245.1 541.4,247.9 558.8,250.7 576.2,253.5 591.6,256.4 590.9,259.2 590.3,262.0 589.7,264.9 589.0,267.7 588.4,270.5 587.8,273.3 587.2,276.2 586.5,279.0 585.9,281.8 585.3,284.6 584.6,287.5 584.0,290.3 583.4,293.1 582.8,295.9 582.1,298.8 581.5,301.6 580.9,304.4 580.2,307.3 579.6,310.1 576.6,312.9 572.2,315.7 567.8,318.6 563.4,321.4 559.0,324.2 554.6,327.0 550.2,329.9 545.9,332.7 541.5,335.5 537.1,338.3 532.7,341.2 528.3,344.0 523.9,346.8 519.5,349.7 515.1,352.5 510.7,355.3 506.4,358.1 502.0,361.0 497.6,363.8 493.2,366.6 488.8,369.4 484.4,372.3 480.0,375.1 475.6,377.9 471.2,380.7 466.9,383.6" fill="url(#g9)" stroke="#fbfcfb" stroke-width="1.1" stroke-linejoin="round"/>
<polygon points="470.3,799.1 457.9,796.3 445.4,793.4 433.0,790.6 420.6,787.8 408.1,785.0 395.7,782.1 383.3,779.3 370.8,776.5 368.5,773.7 368.8,770.8 369.1,768.0 369.5,765.2 369.8,762.3 370.1,759.5 370.5,756.7 370.8,753.9 371.1,751.0 371.5,748.2 371.8,745.4 372.1,742.6 372.5,739.7 372.8,736.9 373.1,734.1 373.5,731.3 373.8,728.4 374.1,725.6 374.5,722.8 374.8,719.9 375.1,717.1 375.5,714.3 376.4,711.5 379.2,708.6 382.0,705.8 384.9,703.0 387.7,700.2 390.5,697.3 393.4,694.5 396.2,691.7 399.0,688.9 401.9,686.0 404.7,683.2 407.5,680.4 410.3,677.5 413.2,674.7 416.0,671.9 418.8,669.1 421.7,666.2 424.5,663.4 427.3,660.6 430.2,657.8 436.3,657.8 442.9,660.6 449.5,663.4 456.1,666.2 462.6,669.1 469.2,671.9 475.8,674.7 482.4,677.5 489.0,680.4 495.6,683.2 502.1,686.0 508.7,688.9 515.3,691.7 521.9,694.5 528.5,697.3 535.1,700.2 541.6,703.0 548.2,705.8 554.8,708.6 561.4,711.5 568.0,714.3 574.6,717.1 581.1,719.9 587.7,722.8 594.1,725.6 593.1,728.4 592.0,731.3 590.9,734.1 589.9,736.9 588.8,739.7 584.8,742.6 579.8,745.4 574.8,748.2 569.8,751.0 564.8,753.9 559.8,756.7 554.8,759.5 549.8,762.3 544.8,765.2 539.7,768.0 534.7,770.8 529.7,773.7 524.7,776.5 519.7,779.3 514.7,782.1 509.7,785.0 504.7,787.8 499.7,790.6 494.7,793.4 489.7,796.3 484.7,799.1" fill="url(#g10)" stroke="#fbfcfb" stroke-width="1.1" stroke-linejoin="round"/>
<polygon points="777.5,482.5 773.9,479.7 770.3,476.9 766.7,474.0 763.2,471.2 759.6,468.4 756.0,465.5 752.4,462.7 748.9,459.9 745.3,457.1 741.7,454.2 738.1,451.4 734.5,448.6 731.0,445.8 727.4,442.9 723.8,440.1 720.2,437.3 716.7,434.5 713.1,431.6 709.5,428.8 705.9,426.0 702.4,423.1 698.8,420.3 695.2,417.5 691.6,414.7 688.1,411.8 684.5,409.0 680.9,406.2 677.3,403.4 673.8,400.5 670.2,397.7 666.6,394.9 663.0,392.1 659.5,389.2 655.9,386.4 652.3,383.6 648.7,380.7 646.5,377.9 646.5,375.1 646.6,372.3 646.6,369.4 646.7,366.6 646.7,363.8 646.8,361.0 646.8,358.1 646.9,355.3 646.9,352.5 647.0,349.7 647.0,346.8 647.3,344.0 650.4,341.2 653.5,338.3 656.6,335.5 659.7,332.7 662.8,329.9 665.9,327.0 669.0,324.2 672.0,321.4 675.1,318.6 678.2,315.7 681.3,312.9 684.4,310.1 694.1,310.1 704.8,312.9 715.4,315.7 726.1,318.6 736.8,321.4 747.5,324.2 758.2,327.0 762.3,329.9 764.0,332.7 765.7,335.5 767.5,338.3 769.2,341.2 770.9,344.0 772.7,346.8 774.4,349.7 776.1,352.5 777.9,355.3 779.6,358.1 781.3,361.0 783.1,363.8 784.8,366.6 786.5,369.4 788.2,372.3 790.0,375.1 791.7,377.9 793.4,380.7 795.2,383.6 796.9,386.4 798.6,389.2 800.4,392.1 802.1,394.9 803.8,397.7 804.1,400.5 804.0,403.4 803.8,406.2 803.7,409.0 803.6,411.8 803.5,414.7 803.4,417.5 803.2,420.3 803.1,423.1 803.0,426.0 802.9,428.8 802.7,431.6 802.6,434.5 802.5,437.3 802.4,440.1 802.3,442.9 802.1,445.8 802.0,448.6 801.9,451.4 801.3,454.2 799.1,457.1 797.0,459.9 794.8,462.7 792.6,465.5 790.4,468.4 788.2,471.2 786.0,474.0 783.8,476.9 781.6,479.7 779.5,482.5" fill="url(#g11)" stroke="#fbfcfb" stroke-width="1.1" stroke-linejoin="round"/>
<polygon points="72.8,335.5 74.6,332.7 76.3,329.9 78.1,327.0 79.9,324.2 81.7,321.4 83.4,318.6 85.2,315.7 87.0,312.9 88.8,310.1 90.5,307.3 92.3,304.4 94.1,301.6 95.8,298.8 97.6,295.9 99.4,293.1 101.2,290.3 102.9,287.5 104.7,284.6 106.5,281.8 108.3,279.0 110.0,276.2 111.8,273.3 113.6,270.5 115.4,267.7 117.1,264.9 118.9,262.0 120.7,259.2 122.4,256.4 124.2,253.5 126.0,250.7 127.8,247.9 129.5,245.1 131.3,242.2 133.1,239.4 134.9,236.6 136.6,233.8 138.4,230.9 140.2,228.1 141.9,225.3 143.7,222.5 145.5,219.6 147.3,216.8 149.0,214.0 150.8,211.1 152.6,208.3 154.4,205.5 156.1,202.7 157.9,199.8 159.7,197.0 161.4,194.2 163.2,191.4 165.0,188.5 166.8,185.7 168.5,182.9 170.3,180.1 172.1,177.2 173.9,174.4 175.6,171.6 177.4,168.7 179.2,165.9 181.0,163.1 182.7,160.3 184.5,157.4 186.3,154.6 188.0,151.8 189.8,149.0 191.6,146.1 193.4,143.3 195.1,140.5 196.9,137.7 198.7,134.8 200.0,134.8 206.8,137.7 213.6,140.5 220.3,143.3 227.1,146.1 233.9,149.0 240.7,151.8 247.5,154.6 254.2,157.4 261.0,160.3 267.8,163.1 274.6,165.9 277.4,168.7 276.5,171.6 275.6,174.4 274.7,177.2 273.8,180.1 272.9,182.9 272.0,185.7 271.1,188.5 270.2,191.4 269.3,194.2 268.4,197.0 267.5,199.8 266.6,202.7 265.7,205.5 264.8,208.3 263.9,211.1 263.0,214.0 262.1,216.8 260.2,219.6 256.0,222.5 251.8,225.3 247.5,228.1 243.3,230.9 239.1,233.8 234.8,236.6 230.6,239.4 226.4,242.2 222.1,245.1 217.9,247.9 213.7,250.7 209.4,253.5 205.2,256.4 201.0,259.2 196.7,262.0 192.5,264.9 188.3,267.7 184.0,270.5 179.8,273.3 175.6,276.2 171.3,279.0 167.1,281.8 162.9,284.6 158.6,287.5 154.4,290.3 150.1,293.1 145.9,295.9 141.7,298.8 137.4,301.6 133.2,304.4 129.0,307.3 124.7,310.1 120.5,312.9 116.3,315.7 112.0,318.6 107.8,321.4 103.6,324.2 99.3,327.0 95.1,329.9 87.4,332.7 76.1,335.5" fill="url(#g12)" stroke="#fbfcfb" stroke-width="1.1" stroke-linejoin="round"/>
<polygon points="424.4,575.8 415.5,573.0 406.7,570.1 397.9,567.3 389.1,564.5 380.2,561.7 371.4,558.8 362.6,556.0 353.8,553.2 344.9,550.3 336.1,547.5 327.3,544.7 318.5,541.9 309.6,539.0 300.8,536.2 292.0,533.4 290.2,530.6 291.9,527.7 293.6,524.9 295.3,522.1 297.0,519.3 298.7,516.4 300.4,513.6 302.1,510.8 303.8,507.9 305.5,505.1 307.2,502.3 308.9,499.5 310.6,496.6 312.3,493.8 314.0,491.0 315.7,488.2 317.4,485.3 319.1,482.5 320.8,479.7 322.5,476.9 324.2,474.0 325.9,471.2 327.6,468.4 329.3,465.5 331.0,462.7 332.7,459.9 334.4,457.1 336.1,454.2 337.8,451.4 339.5,448.6 341.2,445.8 342.9,442.9 344.6,440.1 346.3,437.3 348.2,434.5 352.5,431.6 355.4,431.6 369.5,434.5 383.6,437.3 397.7,440.1 411.7,442.9 425.8,445.8 433.4,448.6 433.7,451.4 433.9,454.2 434.2,457.1 434.4,459.9 434.7,462.7 435.0,465.5 435.2,468.4 435.5,471.2 435.7,474.0 436.0,476.9 436.2,479.7 436.5,482.5 436.8,485.3 437.0,488.2 437.3,491.0 437.5,493.8 437.8,496.6 438.0,499.5 438.3,502.3 438.6,505.1 438.8,507.9 439.1,510.8 439.3,513.6 439.6,516.4 439.9,519.3 440.1,522.1 440.4,524.9 440.6,527.7 440.9,530.6 441.1,533.4 441.4,536.2 441.7,539.0 441.9,541.9 442.2,544.7 442.4,547.5 441.9,550.3 440.1,553.2 438.4,556.0 436.7,558.8 434.9,561.7 433.2,564.5 431.5,567.3 429.7,570.1 428.0,573.0 426.3,575.8" fill="url(#g13)" stroke="#fbfcfb" stroke-width="1.1" stroke-linejoin="round"/>
<polygon points="540.9,423.1 460.9,420.3 461.1,417.5 461.3,414.7 461.5,411.8 461.7,409.0 461.9,406.2 462.1,403.4 462.3,400.5 462.5,397.7 462.7,394.9 462.9,392.1 463.1,389.2 463.3,386.4 466.9,383.6 471.2,380.7 475.6,377.9 480.0,375.1 484.4,372.3 488.8,369.4 493.2,366.6 497.6,363.8 502.0,361.0 506.4,358.1 510.7,355.3 515.1,352.5 519.5,349.7 523.9,346.8 528.3,344.0 532.7,341.2 537.1,338.3 541.5,335.5 545.9,332.7 550.2,329.9 554.6,327.0 559.0,324.2 563.4,321.4 567.8,318.6 572.2,315.7 576.6,312.9 583.1,312.9 588.8,315.7 594.6,318.6 600.4,321.4 606.2,324.2 612.0,327.0 617.7,329.9 623.5,332.7 629.3,335.5 635.1,338.3 640.9,341.2 646.6,344.0 647.0,346.8 647.0,349.7 646.9,352.5 646.9,355.3 646.8,358.1 646.8,361.0 646.7,363.8 646.7,366.6 646.6,369.4 646.6,372.3 646.5,375.1 646.5,377.9 643.4,380.7 638.5,383.6 633.7,386.4 628.8,389.2 623.9,392.1 619.0,394.9 614.2,397.7 609.3,400.5 604.4,403.4 599.5,406.2 594.7,409.0 589.8,411.8 584.9,414.7 580.0,417.5 575.2,420.3 570.3,423.1" fill="url(#g14)" stroke="#fbfcfb" stroke-width="1.1" stroke-linejoin="round"/>
<polygon points="277.1,165.9 277.5,163.1 277.9,160.3 278.3,157.4 278.7,154.6 279.1,151.8 279.5,149.0 279.9,146.1 280.3,143.3 280.7,140.5 281.2,137.7 281.6,134.8 282.0,132.0 282.4,129.2 282.8,126.3 283.2,123.5 283.6,120.7 284.0,117.9 284.4,115.0 284.8,112.2 285.2,109.4 285.6,106.6 286.0,103.7 286.4,100.9 286.8,98.1 287.2,95.3 287.6,92.4 288.0,89.6 288.4,86.8 288.8,83.9 289.2,81.1 289.6,78.3 290.0,75.5 290.4,72.6 290.8,69.8 291.2,67.0 291.6,64.2 292.0,61.3 292.4,58.5 294.2,55.7 301.5,52.9 309.3,50.0 317.6,47.2 326.5,44.4 336.2,41.5 346.9,38.7 350.3,38.7 353.4,41.5 356.5,44.4 359.6,47.2 362.7,50.0 365.9,52.9 369.0,55.7 372.1,58.5 375.2,61.3 378.3,64.2 381.4,67.0 384.5,69.8 387.6,72.6 390.8,75.5 393.9,78.3 397.0,81.1 400.1,83.9 403.2,86.8 406.3,89.6 409.4,92.4 410.0,95.3 407.8,98.1 405.5,100.9 403.3,103.7 401.0,106.6 398.8,109.4 396.5,112.2 394.3,115.0 392.0,117.9 389.8,120.7 387.5,123.5 385.3,126.3 383.0,129.2 380.8,132.0 378.5,134.8 376.3,137.7 374.0,140.5 371.8,143.3 369.5,146.1 367.3,149.0 360.5,151.8 345.9,154.6 331.3,157.4 316.7,160.3 302.1,163.1 287.5,165.9" fill="url(#g15)" stroke="#fbfcfb" stroke-width="1.1" stroke-linejoin="round"/>
<polygon points="687.0,643.6 687.0,640.8 687.0,638.0 687.0,635.1 687.0,632.3 687.0,629.5 687.0,626.7 687.0,623.8 687.0,621.0 687.0,618.2 687.0,615.4 687.3,612.5 689.9,609.7 692.6,606.9 695.3,604.1 698.0,601.2 700.6,598.4 703.3,595.6 706.0,592.7 708.7,589.9 711.4,587.1 714.0,584.3 716.7,581.4 719.4,578.6 722.1,575.8 724.8,573.0 727.4,570.1 730.1,567.3 732.8,564.5 735.5,561.7 738.1,558.8 740.8,556.0 743.5,553.2 746.2,550.3 748.9,547.5 751.5,544.7 754.2,541.9 756.9,539.0 759.6,536.2 762.3,533.4 764.9,530.6 767.6,527.7 770.3,524.9 773.0,522.1 775.7,519.3 779.3,519.3 783.2,522.1 787.0,524.9 790.8,527.7 794.7,530.6 798.5,533.4 802.3,536.2 806.1,539.0 810.0,541.9 813.8,544.7 817.6,547.5 821.5,550.3 825.3,553.2 829.1,556.0 833.0,558.8 836.8,561.7 840.6,564.5 844.5,567.3 848.3,570.1 849.0,573.0 845.6,575.8 842.3,578.6 839.0,581.4 835.6,584.3 832.3,587.1 829.0,589.9 825.6,592.7 822.3,595.6 818.9,598.4 815.6,601.2 812.3,604.1 808.9,606.9 805.6,609.7 802.2,612.5 798.9,615.4 792.4,618.2 781.8,621.0 771.2,623.8 760.6,626.7 750.1,629.5 739.5,632.3 728.9,635.1 718.3,638.0 707.8,640.8 697.2,643.6" fill="url(#g16)" stroke="#fbfcfb" stroke-width="1.1" stroke-linejoin="round"/>
<polygon points="758.2,327.0 747.5,324.2 736.8,321.4 726.1,318.6 715.4,315.7 704.8,312.9 694.1,310.1 686.2,307.3 685.0,304.4 683.8,301.6 682.6,298.8 681.4,295.9 680.2,293.1 679.0,290.3 677.7,287.5 676.5,284.6 675.3,281.8 674.1,279.0 672.9,276.2 671.7,273.3 670.5,270.5 669.3,267.7 668.0,264.9 668.1,262.0 669.4,259.2 670.8,256.4 672.1,253.5 673.5,250.7 674.8,247.9 676.2,245.1 677.6,242.2 678.9,239.4 680.3,236.6 681.6,233.8 683.0,230.9 684.3,228.1 685.7,225.3 687.1,222.5 688.4,219.6 689.8,216.8 691.1,214.0 692.5,211.1 693.8,208.3 695.2,205.5 696.6,202.7 697.9,199.8 699.3,197.0 700.6,194.2 702.0,191.4 703.3,188.5 706.0,188.5 710.2,191.4 714.3,194.2 718.5,197.0 722.6,199.8 726.8,202.7 731.0,205.5 735.1,208.3 739.3,211.1 743.4,214.0 747.6,216.8 751.8,219.6 755.9,222.5 760.1,225.3 764.2,228.1 768.4,230.9 772.5,233.8 776.7,236.6 780.9,239.4 785.0,242.2 784.7,245.1 783.9,247.9 783.1,250.7 782.3,253.5 781.5,256.4 780.7,259.2 779.8,262.0 779.0,264.9 778.2,267.7 777.4,270.5 776.6,273.3 775.8,276.2 775.0,279.0 774.2,281.8 773.4,284.6 772.6,287.5 771.7,290.3 770.9,293.1 770.1,295.9 769.3,298.8 768.5,301.6 767.7,304.4 766.9,307.3 766.1,310.1 765.3,312.9 764.5,315.7 763.7,318.6 762.8,321.4 762.0,324.2 761.2,327.0" fill="url(#g17)" stroke="#fbfcfb" stroke-width="1.1" stroke-linejoin="round"/>
<polygon points="683.0,168.7 670.9,165.9 658.8,163.1 646.6,160.3 634.5,157.4 622.4,154.6 620.1,151.8 618.0,149.0 616.0,146.1 613.9,143.3 611.9,140.5 609.8,137.7 607.7,134.8 605.7,132.0 603.6,129.2 601.5,126.3 599.5,123.5 597.4,120.7 595.3,117.9 593.3,115.0 591.2,112.2 589.2,109.4 587.1,106.6 585.0,103.7 583.0,100.9 580.9,98.1 578.8,95.3 576.8,92.4 574.7,89.6 572.6,86.8 570.6,83.9 568.5,81.1 566.5,78.3 564.4,75.5 562.3,72.6 560.3,69.8 558.2,67.0 556.1,64.2 554.1,61.3 555.0,58.5 555.8,55.7 556.6,52.9 557.5,50.0 558.3,47.2 559.1,44.4 560.0,41.5 563.8,41.5 573.5,44.4 582.4,47.2 590.7,50.0 598.5,52.9 605.8,55.7 612.8,58.5 619.5,61.3 625.8,64.2 631.9,67.0 637.7,69.8 643.3,72.6 648.7,75.5 654.0,78.3 659.1,81.1 664.0,83.9 668.7,86.8 673.4,89.6 677.9,92.4 682.2,95.3 686.5,98.1 690.6,100.9 694.7,103.7 698.6,106.6 702.5,109.4 706.3,112.2 710.0,115.0 711.4,117.9 710.5,120.7 709.6,123.5 708.6,126.3 707.7,129.2 706.8,132.0 705.9,134.8 704.9,137.7 704.0,140.5 703.1,143.3 702.1,146.1 701.2,149.0 700.3,151.8 699.4,154.6 698.4,157.4 697.5,160.3 696.6,163.1 695.6,165.9 694.7,168.7" fill="url(#g18)" stroke="#fbfcfb" stroke-width="1.1" stroke-linejoin="round"/>
<polygon points="372.9,866.9 358.9,864.1 346.9,861.3 336.2,858.5 326.5,855.6 317.6,852.8 309.3,850.0 301.5,847.1 294.2,844.3 287.2,841.5 280.5,838.7 284.3,835.8 288.2,833.0 292.2,830.2 296.1,827.4 300.1,824.5 304.0,821.7 308.0,818.9 312.0,816.1 315.9,813.2 319.9,810.4 323.8,807.6 327.8,804.7 331.8,801.9 335.7,799.1 339.7,796.3 343.6,793.4 347.6,790.6 351.5,787.8 355.5,785.0 359.5,782.1 363.4,779.3 367.4,776.5 370.8,776.5 383.3,779.3 395.7,782.1 408.1,785.0 420.6,787.8 433.0,790.6 445.4,793.4 457.9,796.3 470.3,799.1 480.5,801.9 477.7,804.7 473.0,807.6 468.3,810.4 463.6,813.2 458.9,816.1 454.2,818.9 449.5,821.7 444.8,824.5 440.1,827.4 435.4,830.2 430.7,833.0 426.0,835.8 421.3,838.7 416.6,841.5 411.9,844.3 407.2,847.1 402.5,850.0 397.8,852.8 393.1,855.6 388.4,858.5 383.7,861.3 379.0,864.1 374.3,866.9" fill="url(#g19)" stroke="#fbfcfb" stroke-width="1.1" stroke-linejoin="round"/>
<polygon points="588.7,847.1 581.7,844.3 574.8,841.5 567.9,838.7 560.9,835.8 554.0,833.0 547.0,830.2 540.1,827.4 533.1,824.5 526.2,821.7 519.2,818.9 512.3,816.1 505.3,813.2 498.4,810.4 491.4,807.6 484.5,804.7 480.5,801.9 484.7,799.1 489.7,796.3 494.7,793.4 499.7,790.6 504.7,787.8 509.7,785.0 514.7,782.1 519.7,779.3 524.7,776.5 529.7,773.7 534.7,770.8 539.7,768.0 544.8,765.2 549.8,762.3 554.8,759.5 559.8,756.7 564.8,753.9 569.8,751.0 574.8,748.2 579.8,745.4 584.8,742.6 592.0,742.6 596.5,745.4 601.0,748.2 605.5,751.0 610.1,753.9 614.6,756.7 619.1,759.5 623.7,762.3 628.2,765.2 630.4,768.0 630.3,770.8 630.3,773.7 630.2,776.5 630.1,779.3 630.0,782.1 629.9,785.0 629.8,787.8 629.7,790.6 629.6,793.4 629.6,796.3 629.5,799.1 629.4,801.9 629.3,804.7 629.2,807.6 629.1,810.4 629.0,813.2 628.9,816.1 628.9,818.9 628.8,821.7 628.7,824.5 628.6,827.4 628.5,830.2 628.4,833.0 625.8,835.8 619.5,838.7 612.8,841.5 605.8,844.3 598.5,847.1" fill="url(#g20)" stroke="#fbfcfb" stroke-width="1.1" stroke-linejoin="round"/>
<polygon points="59.8,338.3 41.7,335.5 42.6,332.7 43.4,329.9 44.2,327.0 45.1,324.2 46.0,321.4 46.9,318.6 47.8,315.7 48.8,312.9 49.8,310.1 50.8,307.3 51.8,304.4 52.8,301.6 53.9,298.8 55.0,295.9 56.1,293.1 57.2,290.3 58.4,287.5 59.6,284.6 60.8,281.8 62.0,279.0 63.3,276.2 64.6,273.3 65.9,270.5 67.2,267.7 68.6,264.9 69.9,262.0 71.4,259.2 72.8,256.4 74.3,253.5 75.7,250.7 77.3,247.9 78.8,245.1 80.4,242.2 82.0,239.4 83.6,236.6 85.3,233.8 87.0,230.9 88.7,228.1 90.4,225.3 92.2,222.5 94.0,219.6 95.9,216.8 97.8,214.0 99.7,211.1 101.6,208.3 103.6,205.5 105.6,202.7 107.7,199.8 109.7,197.0 111.9,194.2 114.0,191.4 116.2,188.5 118.5,185.7 120.7,182.9 123.0,180.1 125.4,177.2 127.8,174.4 130.2,171.6 132.7,168.7 135.2,165.9 137.8,163.1 140.4,160.3 143.1,157.4 145.8,154.6 148.6,151.8 151.4,149.0 154.3,146.1 157.2,143.3 160.2,140.5 163.3,137.7 166.4,134.8 169.6,132.0 172.8,129.2 176.1,126.3 179.5,123.5 182.9,120.7 186.4,117.9 190.0,115.0 193.7,112.2 197.5,109.4 197.7,109.4 197.9,112.2 198.0,115.0 198.1,117.9 198.3,120.7 198.4,123.5 198.6,126.3 198.7,129.2 198.8,132.0 198.7,134.8 196.9,137.7 195.1,140.5 193.4,143.3 191.6,146.1 189.8,149.0 188.0,151.8 186.3,154.6 184.5,157.4 182.7,160.3 181.0,163.1 179.2,165.9 177.4,168.7 175.6,171.6 173.9,174.4 172.1,177.2 170.3,180.1 168.5,182.9 166.8,185.7 165.0,188.5 163.2,191.4 161.4,194.2 159.7,197.0 157.9,199.8 156.1,202.7 154.4,205.5 152.6,208.3 150.8,211.1 149.0,214.0 147.3,216.8 145.5,219.6 143.7,222.5 141.9,225.3 140.2,228.1 138.4,230.9 136.6,233.8 134.9,236.6 133.1,239.4 131.3,242.2 129.5,245.1 127.8,247.9 126.0,250.7 124.2,253.5 122.4,256.4 120.7,259.2 118.9,262.0 117.1,264.9 115.4,267.7 113.6,270.5 111.8,273.3 110.0,276.2 108.3,279.0 106.5,281.8 104.7,284.6 102.9,287.5 101.2,290.3 99.4,293.1 97.6,295.9 95.8,298.8 94.1,301.6 92.3,304.4 90.5,307.3 88.8,310.1 87.0,312.9 85.2,315.7 83.4,318.6 81.7,321.4 79.9,324.2 78.1,327.0 76.3,329.9 74.6,332.7 72.8,335.5 69.6,338.3" fill="url(#g21)" stroke="#fbfcfb" stroke-width="1.1" stroke-linejoin="round"/>
<polygon points="409.4,92.4 406.3,89.6 403.2,86.8 400.1,83.9 397.0,81.1 393.9,78.3 390.8,75.5 387.6,72.6 384.5,69.8 381.4,67.0 378.3,64.2 375.2,61.3 372.1,58.5 369.0,55.7 365.9,52.9 362.7,50.0 359.6,47.2 356.5,44.4 353.4,41.5 350.3,38.7 358.9,35.9 372.9,33.1 390.2,30.2 415.4,27.4 484.6,27.4 509.8,30.2 527.1,33.1 541.1,35.9 553.1,38.7 560.0,41.5 559.1,44.4 558.3,47.2 557.5,50.0 556.6,52.9 555.8,55.7 555.0,58.5 554.1,61.3 541.9,64.2 529.4,67.0 517.0,69.8 504.6,72.6 492.2,75.5 479.8,78.3 467.3,81.1 454.9,83.9 442.5,86.8 430.1,89.6 417.6,92.4" fill="url(#g22)" stroke="#fbfcfb" stroke-width="1.1" stroke-linejoin="round"/>
<polygon points="415.4,872.6 390.2,869.8 374.3,866.9 379.0,864.1 383.7,861.3 388.4,858.5 393.1,855.6 397.8,852.8 402.5,850.0 407.2,847.1 411.9,844.3 416.6,841.5 421.3,838.7 426.0,835.8 430.7,833.0 435.4,830.2 440.1,827.4 444.8,824.5 449.5,821.7 454.2,818.9 458.9,816.1 463.6,813.2 468.3,810.4 473.0,807.6 477.7,804.7 484.5,804.7 491.4,807.6 498.4,810.4 505.3,813.2 512.3,816.1 519.2,818.9 526.2,821.7 533.1,824.5 540.1,827.4 547.0,830.2 554.0,833.0 560.9,835.8 567.9,838.7 574.8,841.5 581.7,844.3 588.7,847.1 590.7,850.0 582.4,852.8 573.5,855.6 563.8,858.5 553.1,861.3 541.1,864.1 527.1,866.9 509.8,869.8 484.6,872.6" fill="url(#g23)" stroke="#fbfcfb" stroke-width="1.1" stroke-linejoin="round"/>
<polygon points="101.6,691.7 99.7,688.9 97.8,686.0 95.9,683.2 94.0,680.4 92.2,677.5 90.4,674.7 88.7,671.9 87.0,669.1 85.3,666.2 83.6,663.4 82.0,660.6 80.4,657.8 78.8,654.9 77.3,652.1 75.7,649.3 74.3,646.5 72.8,643.6 71.4,640.8 69.9,638.0 68.6,635.1 67.2,632.3 65.9,629.5 64.6,626.7 63.3,623.8 62.0,621.0 60.8,618.2 59.6,615.4 58.4,612.5 57.2,609.7 56.1,606.9 55.0,604.1 53.9,601.2 52.8,598.4 51.8,595.6 50.8,592.7 49.8,589.9 48.8,587.1 47.8,584.3 46.9,581.4 46.0,578.6 45.1,575.8 44.2,573.0 43.4,570.1 42.6,567.3 41.7,564.5 41.0,561.7 40.2,558.8 39.5,556.0 38.7,553.2 38.0,550.3 37.4,547.5 36.7,544.7 36.1,541.9 35.5,539.0 34.9,536.2 34.3,533.4 33.7,530.6 33.2,527.7 32.7,524.9 32.2,522.1 31.7,519.3 31.2,516.4 30.8,513.6 61.8,513.6 63.9,516.4 66.0,519.3 68.1,522.1 70.2,524.9 72.4,527.7 74.5,530.6 76.6,533.4 78.7,536.2 80.8,539.0 82.9,541.9 85.0,544.7 87.1,547.5 89.2,550.3 91.3,553.2 93.5,556.0 95.6,558.8 97.7,561.7 99.8,564.5 101.9,567.3 104.0,570.1 106.1,573.0 108.2,575.8 110.3,578.6 112.4,581.4 114.5,584.3 116.7,587.1 118.8,589.9 120.9,592.7 123.0,595.6 123.8,598.4 123.2,601.2 122.6,604.1 122.0,606.9 121.4,609.7 120.8,612.5 120.2,615.4 119.6,618.2 119.0,621.0 118.4,623.8 117.8,626.7 117.2,629.5 116.6,632.3 116.1,635.1 115.5,638.0 114.9,640.8 114.3,643.6 113.7,646.5 113.1,649.3 112.5,652.1 111.9,654.9 111.3,657.8 110.7,660.6 110.1,663.4 109.5,666.2 108.9,669.1 108.3,671.9 107.7,674.7 107.1,677.5 106.5,680.4 105.9,683.2 105.3,686.0 104.8,688.9 104.2,691.7" fill="url(#g24)" stroke="#fbfcfb" stroke-width="1.1" stroke-linejoin="round"/>
<polygon points="646.6,344.0 640.9,341.2 635.1,338.3 629.3,335.5 623.5,332.7 617.7,329.9 612.0,327.0 606.2,324.2 600.4,321.4 594.6,318.6 588.8,315.7 583.1,312.9 579.6,310.1 580.2,307.3 580.9,304.4 581.5,301.6 582.1,298.8 582.8,295.9 583.4,293.1 584.0,290.3 584.6,287.5 585.3,284.6 585.9,281.8 586.5,279.0 587.2,276.2 587.8,273.3 588.4,270.5 589.0,267.7 589.7,264.9 590.3,262.0 590.9,259.2 591.6,256.4 594.1,253.5 596.9,250.7 599.7,247.9 602.5,245.1 605.3,242.2 608.1,239.4 610.9,236.6 618.0,236.6 623.2,239.4 628.4,242.2 633.6,245.1 638.8,247.9 644.0,250.7 649.3,253.5 654.5,256.4 659.7,259.2 664.9,262.0 668.0,264.9 669.3,267.7 670.5,270.5 671.7,273.3 672.9,276.2 674.1,279.0 675.3,281.8 676.5,284.6 677.7,287.5 679.0,290.3 680.2,293.1 681.4,295.9 682.6,298.8 683.8,301.6 685.0,304.4 686.2,307.3 684.4,310.1 681.3,312.9 678.2,315.7 675.1,318.6 672.0,321.4 669.0,324.2 665.9,327.0 662.8,329.9 659.7,332.7 656.6,335.5 653.5,338.3 650.4,341.2 647.3,344.0" fill="url(#g25)" stroke="#fbfcfb" stroke-width="1.1" stroke-linejoin="round"/>
<polygon points="865.8,524.9 863.3,522.1 860.7,519.3 858.2,516.4 855.6,513.6 853.1,510.8 850.6,507.9 848.0,505.1 845.5,502.3 842.9,499.5 840.4,496.6 837.9,493.8 835.3,491.0 832.8,488.2 830.3,485.3 827.7,482.5 825.2,479.7 822.6,476.9 820.1,474.0 817.6,471.2 815.0,468.4 812.5,465.5 809.9,462.7 807.4,459.9 804.9,457.1 802.3,454.2 801.9,451.4 802.0,448.6 802.1,445.8 802.3,442.9 802.4,440.1 802.5,437.3 802.6,434.5 802.7,431.6 802.9,428.8 803.0,426.0 803.1,423.1 803.2,420.3 803.4,417.5 803.5,414.7 803.6,411.8 803.7,409.0 803.8,406.2 804.0,403.4 804.1,400.5 805.4,397.7 810.8,394.9 816.3,392.1 821.7,389.2 834.3,389.2 843.3,392.1 852.3,394.9 861.3,397.7 870.4,400.5 871.4,403.4 871.7,406.2 872.0,409.0 872.3,411.8 872.5,414.7 872.8,417.5 873.0,420.3 873.1,423.1 873.3,426.0 873.5,428.8 873.6,431.6 873.7,434.5 873.8,437.3 873.9,440.1 873.9,442.9 874.0,445.8 874.0,448.6 874.0,451.4 874.0,454.2 873.9,457.1 873.9,459.9 873.8,462.7 873.7,465.5 873.6,468.4 873.5,471.2 873.3,474.0 873.1,476.9 873.0,479.7 872.8,482.5 872.5,485.3 872.3,488.2 872.0,491.0 871.7,493.8 871.4,496.6 871.1,499.5 870.8,502.3 870.4,505.1 870.0,507.9 869.6,510.8 869.2,513.6 868.8,516.4 868.3,519.3 867.8,522.1 867.3,524.9" fill="url(#g26)" stroke="#fbfcfb" stroke-width="1.1" stroke-linejoin="round"/>
<polygon points="425.8,445.8 411.7,442.9 397.7,440.1 383.6,437.3 369.5,434.5 355.4,431.6 353.8,428.8 354.7,426.0 355.5,423.1 356.3,420.3 357.1,417.5 357.9,414.7 358.7,411.8 359.6,409.0 360.4,406.2 361.2,403.4 362.0,400.5 362.8,397.7 363.6,394.9 364.5,392.1 365.3,389.2 366.1,386.4 366.9,383.6 367.7,380.7 368.5,377.9 369.4,375.1 370.2,372.3 371.0,369.4 377.3,366.6 385.0,363.8 392.7,361.0 406.4,361.0 412.9,363.8 419.3,366.6 425.8,369.4 432.2,372.3 438.7,375.1 445.2,377.9 451.6,380.7 458.1,383.6 463.3,386.4 463.1,389.2 462.9,392.1 462.7,394.9 462.5,397.7 462.3,400.5 462.1,403.4 461.9,406.2 461.7,409.0 461.5,411.8 461.3,414.7 461.1,417.5 460.9,420.3 458.8,423.1 455.8,426.0 452.8,428.8 449.8,431.6 446.8,434.5 443.8,437.3 440.8,440.1 437.8,442.9 434.9,445.8" fill="url(#g27)" stroke="#fbfcfb" stroke-width="1.1" stroke-linejoin="round"/>
<polygon points="803.8,397.7 802.1,394.9 800.4,392.1 798.6,389.2 796.9,386.4 795.2,383.6 793.4,380.7 791.7,377.9 790.0,375.1 788.2,372.3 786.5,369.4 784.8,366.6 783.1,363.8 781.3,361.0 779.6,358.1 777.9,355.3 776.1,352.5 774.4,349.7 772.7,346.8 770.9,344.0 769.2,341.2 767.5,338.3 765.7,335.5 764.0,332.7 762.3,329.9 761.2,327.0 762.0,324.2 762.8,321.4 763.7,318.6 764.5,315.7 765.3,312.9 766.1,310.1 766.9,307.3 767.7,304.4 768.5,301.6 769.3,298.8 770.1,295.9 770.9,293.1 771.7,290.3 772.6,287.5 773.4,284.6 774.2,281.8 775.0,279.0 775.8,276.2 776.6,273.3 777.4,270.5 778.2,267.7 779.0,264.9 779.8,262.0 780.7,259.2 781.5,256.4 782.3,253.5 783.1,250.7 783.9,247.9 784.7,245.1 786.9,242.2 801.7,239.4 811.0,239.4 811.3,242.2 811.6,245.1 811.9,247.9 812.2,250.7 812.5,253.5 812.8,256.4 813.1,259.2 813.4,262.0 813.7,264.9 814.0,267.7 814.3,270.5 814.6,273.3 814.9,276.2 815.2,279.0 815.5,281.8 815.8,284.6 816.0,287.5 816.3,290.3 816.6,293.1 816.9,295.9 817.2,298.8 817.5,301.6 817.8,304.4 818.1,307.3 818.4,310.1 818.7,312.9 819.0,315.7 819.3,318.6 819.6,321.4 819.9,324.2 820.2,327.0 820.5,329.9 820.8,332.7 821.1,335.5 821.4,338.3 821.7,341.2 822.0,344.0 822.3,346.8 822.5,349.7 822.8,352.5 823.1,355.3 823.4,358.1 823.7,361.0 824.0,363.8 824.3,366.6 824.6,369.4 824.9,372.3 825.2,375.1 825.5,377.9 825.8,380.7 826.1,383.6 826.4,386.4 821.7,389.2 816.3,392.1 810.8,394.9 805.4,397.7" fill="url(#g28)" stroke="#fbfcfb" stroke-width="1.1" stroke-linejoin="round"/>
<polygon points="664.9,262.0 659.7,259.2 654.5,256.4 649.3,253.5 644.0,250.7 638.8,247.9 633.6,245.1 628.4,242.2 623.2,239.4 618.0,236.6 613.4,233.8 613.7,230.9 614.0,228.1 614.3,225.3 614.6,222.5 615.0,219.6 615.3,216.8 615.6,214.0 615.9,211.1 616.2,208.3 616.5,205.5 616.8,202.7 617.1,199.8 617.4,197.0 617.8,194.2 618.1,191.4 618.4,188.5 618.7,185.7 619.0,182.9 619.3,180.1 619.6,177.2 619.9,174.4 620.2,171.6 620.6,168.7 620.9,165.9 621.2,163.1 621.5,160.3 621.8,157.4 622.1,154.6 622.4,154.6 634.5,157.4 646.6,160.3 658.8,163.1 670.9,165.9 683.0,168.7 694.1,171.6 695.9,174.4 697.7,177.2 699.5,180.1 701.3,182.9 703.1,185.7 703.3,188.5 702.0,191.4 700.6,194.2 699.3,197.0 697.9,199.8 696.6,202.7 695.2,205.5 693.8,208.3 692.5,211.1 691.1,214.0 689.8,216.8 688.4,219.6 687.1,222.5 685.7,225.3 684.3,228.1 683.0,230.9 681.6,233.8 680.3,236.6 678.9,239.4 677.6,242.2 676.2,245.1 674.8,247.9 673.5,250.7 672.1,253.5 670.8,256.4 669.4,259.2 668.1,262.0" fill="url(#g29)" stroke="#fbfcfb" stroke-width="1.1" stroke-linejoin="round"/>
<polygon points="785.0,242.2 780.9,239.4 776.7,236.6 772.5,233.8 768.4,230.9 764.2,228.1 760.1,225.3 755.9,222.5 751.8,219.6 747.6,216.8 743.4,214.0 739.3,211.1 735.1,208.3 731.0,205.5 726.8,202.7 722.6,199.8 718.5,197.0 714.3,194.2 710.2,191.4 706.0,188.5 703.1,185.7 701.3,182.9 699.5,180.1 697.7,177.2 695.9,174.4 694.1,171.6 694.7,168.7 695.6,165.9 696.6,163.1 697.5,160.3 698.4,157.4 699.4,154.6 700.3,151.8 701.2,149.0 702.1,146.1 703.1,143.3 704.0,140.5 704.9,137.7 705.9,134.8 706.8,132.0 707.7,129.2 708.6,126.3 709.6,123.5 710.5,120.7 711.4,117.9 713.6,117.9 717.1,120.7 720.5,123.5 723.9,126.3 727.2,129.2 730.4,132.0 733.6,134.8 736.7,137.7 739.8,140.5 742.8,143.3 745.7,146.1 748.6,149.0 751.4,151.8 754.2,154.6 756.9,157.4 759.6,160.3 762.2,163.1 764.8,165.9 767.3,168.7 769.8,171.6 772.2,174.4 774.6,177.2 777.0,180.1 779.3,182.9 781.5,185.7 783.8,188.5 786.0,191.4 788.1,194.2 790.3,197.0 792.3,199.8 794.4,202.7 796.4,205.5 798.4,208.3 800.3,211.1 802.2,214.0 804.1,216.8 806.0,219.6 807.8,222.5 809.6,225.3 811.3,228.1 813.0,230.9 814.7,233.8 812.2,236.6 801.7,239.4 786.9,242.2" fill="url(#g30)" stroke="#fbfcfb" stroke-width="1.1" stroke-linejoin="round"/>
<polygon points="274.6,165.9 267.8,163.1 261.0,160.3 254.2,157.4 247.5,154.6 240.7,151.8 233.9,149.0 227.1,146.1 220.3,143.3 213.6,140.5 206.8,137.7 200.0,134.8 198.8,132.0 198.7,129.2 198.6,126.3 198.4,123.5 198.3,120.7 198.1,117.9 198.0,115.0 197.9,112.2 197.7,109.4 201.4,106.6 205.3,103.7 209.4,100.9 213.5,98.1 217.8,95.3 222.1,92.4 226.6,89.6 231.3,86.8 236.0,83.9 240.9,81.1 246.0,78.3 251.3,75.5 256.7,72.6 262.3,69.8 268.1,67.0 274.2,64.2 280.5,61.3 287.2,58.5 292.4,58.5 292.0,61.3 291.6,64.2 291.2,67.0 290.8,69.8 290.4,72.6 290.0,75.5 289.6,78.3 289.2,81.1 288.8,83.9 288.4,86.8 288.0,89.6 287.6,92.4 287.2,95.3 286.8,98.1 286.4,100.9 286.0,103.7 285.6,106.6 285.2,109.4 284.8,112.2 284.4,115.0 284.0,117.9 283.6,120.7 283.2,123.5 282.8,126.3 282.4,129.2 282.0,132.0 281.6,134.8 281.2,137.7 280.7,140.5 280.3,143.3 279.9,146.1 279.5,149.0 279.1,151.8 278.7,154.6 278.3,157.4 277.9,160.3 277.5,163.1 277.1,165.9" fill="url(#g31)" stroke="#fbfcfb" stroke-width="1.1" stroke-linejoin="round"/>
<polygon points="689.7,708.6 688.3,705.8 686.8,703.0 685.4,700.2 683.9,697.3 682.5,694.5 681.0,691.7 679.5,688.9 678.1,686.0 676.6,683.2 675.2,680.4 673.7,677.5 672.3,674.7 671.8,671.9 673.5,669.1 675.2,666.2 676.8,663.4 678.5,660.6 680.2,657.8 681.9,654.9 683.6,652.1 685.2,649.3 686.9,646.5 697.2,643.6 707.8,640.8 718.3,638.0 728.9,635.1 739.5,632.3 750.1,629.5 760.6,626.7 771.2,623.8 781.8,621.0 792.4,618.2 796.4,618.2 795.0,621.0 793.6,623.8 792.2,626.7 790.8,629.5 789.4,632.3 788.0,635.1 786.6,638.0 785.1,640.8 783.7,643.6 782.3,646.5 780.9,649.3 779.5,652.1 778.1,654.9 776.7,657.8 775.3,660.6 773.9,663.4 772.5,666.2 771.1,669.1 769.6,671.9 768.2,674.7 766.8,677.5 765.4,680.4 763.1,683.2 755.1,686.0 747.2,688.9 739.2,691.7 731.2,694.5 723.3,697.3 715.3,700.2 707.3,703.0 699.3,705.8 691.4,708.6" fill="url(#g32)" stroke="#fbfcfb" stroke-width="1.1" stroke-linejoin="round"/>
<polygon points="30.4,510.8 30.0,507.9 29.6,505.1 29.2,502.3 28.9,499.5 28.6,496.6 28.3,493.8 28.0,491.0 27.7,488.2 27.5,485.3 27.2,482.5 27.0,479.7 26.9,476.9 26.7,474.0 26.5,471.2 26.4,468.4 26.3,465.5 26.2,462.7 26.1,459.9 26.1,457.1 26.0,454.2 26.0,451.4 26.0,448.6 26.0,445.8 26.1,442.9 26.1,440.1 26.2,437.3 26.3,434.5 26.4,431.6 26.5,428.8 26.7,426.0 26.9,423.1 27.0,420.3 27.2,417.5 27.5,414.7 27.7,411.8 28.0,409.0 28.3,406.2 28.6,403.4 28.9,400.5 29.2,397.7 29.6,394.9 30.0,392.1 30.4,389.2 30.8,386.4 31.2,383.6 31.7,380.7 32.2,377.9 32.7,375.1 33.2,372.3 33.7,369.4 34.3,366.6 34.9,363.8 35.5,361.0 36.1,358.1 36.7,355.3 37.4,352.5 38.0,349.7 38.7,346.8 39.5,344.0 40.2,341.2 41.0,338.3 59.8,338.3 68.2,341.2 68.1,344.0 68.0,346.8 67.8,349.7 67.7,352.5 67.6,355.3 67.5,358.1 67.3,361.0 67.2,363.8 67.1,366.6 67.0,369.4 66.8,372.3 66.7,375.1 66.6,377.9 66.5,380.7 66.3,383.6 66.2,386.4 66.1,389.2 66.0,392.1 65.8,394.9 65.7,397.7 65.6,400.5 65.5,403.4 65.3,406.2 65.2,409.0 65.1,411.8 65.0,414.7 64.8,417.5 64.7,420.3 64.6,423.1 64.5,426.0 64.3,428.8 64.2,431.6 64.1,434.5 64.0,437.3 63.8,440.1 63.7,442.9 63.6,445.8 63.5,448.6 63.4,451.4 63.2,454.2 63.1,457.1 63.0,459.9 62.9,462.7 62.7,465.5 62.6,468.4 62.5,471.2 62.4,474.0 62.2,476.9 62.1,479.7 62.0,482.5 61.9,485.3 61.7,488.2 61.6,491.0 61.5,493.8 61.4,496.6 61.2,499.5 61.1,502.3 61.0,505.1 60.9,507.9 60.7,510.8" fill="url(#g33)" stroke="#fbfcfb" stroke-width="1.1" stroke-linejoin="round"/>
<polygon points="848.3,570.1 844.5,567.3 840.6,564.5 836.8,561.7 833.0,558.8 829.1,556.0 825.3,553.2 821.5,550.3 817.6,547.5 813.8,544.7 810.0,541.9 806.1,539.0 802.3,536.2 798.5,533.4 794.7,530.6 790.8,527.7 787.0,524.9 783.2,522.1 779.3,519.3 777.2,516.4 777.3,513.6 777.5,510.8 777.6,507.9 777.7,505.1 777.9,502.3 778.0,499.5 778.1,496.6 778.2,493.8 778.4,491.0 778.5,488.2 778.6,485.3 779.5,482.5 781.6,479.7 783.8,476.9 786.0,474.0 788.2,471.2 790.4,468.4 792.6,465.5 794.8,462.7 797.0,459.9 799.1,457.1 801.3,454.2 802.3,454.2 804.9,457.1 807.4,459.9 809.9,462.7 812.5,465.5 815.0,468.4 817.6,471.2 820.1,474.0 822.6,476.9 825.2,479.7 827.7,482.5 830.3,485.3 832.8,488.2 835.3,491.0 837.9,493.8 840.4,496.6 842.9,499.5 845.5,502.3 848.0,505.1 850.6,507.9 853.1,510.8 855.6,513.6 858.2,516.4 860.7,519.3 863.3,522.1 865.8,524.9 866.8,527.7 866.3,530.6 865.7,533.4 865.1,536.2 864.5,539.0 863.9,541.9 863.3,544.7 862.6,547.5 862.0,550.3 861.3,553.2 860.5,556.0 859.8,558.8 859.0,561.7 858.3,564.5 857.4,567.3 855.7,570.1" fill="url(#g34)" stroke="#fbfcfb" stroke-width="1.1" stroke-linejoin="round"/>
<polygon points="628.2,765.2 623.7,762.3 619.1,759.5 614.6,756.7 610.1,753.9 605.5,751.0 601.0,748.2 596.5,745.4 592.0,742.6 588.8,739.7 589.9,736.9 590.9,734.1 592.0,731.3 593.1,728.4 594.1,725.6 598.2,722.8 602.3,719.9 606.4,717.1 610.6,714.3 614.7,711.5 618.8,708.6 623.0,705.8 627.1,703.0 631.3,700.2 635.4,697.3 639.5,694.5 643.7,691.7 647.8,688.9 651.9,686.0 656.1,683.2 660.2,680.4 664.3,677.5 668.5,674.7 672.3,674.7 673.7,677.5 675.2,680.4 676.6,683.2 678.1,686.0 679.5,688.9 681.0,691.7 682.5,694.5 683.9,697.3 685.4,700.2 686.8,703.0 688.3,705.8 689.7,708.6 689.2,711.5 688.3,714.3 687.4,717.1 686.4,719.9 685.5,722.8 684.6,725.6 683.7,728.4 682.7,731.3 681.8,734.1 680.9,736.9 680.0,739.7 675.9,742.6 670.6,745.4 665.2,748.2 659.9,751.0 654.5,753.9 649.2,756.7 643.9,759.5 638.5,762.3 633.2,765.2" fill="url(#g35)" stroke="#fbfcfb" stroke-width="1.1" stroke-linejoin="round"/>
<polygon points="717.6,773.7 714.3,770.8 711.1,768.0 707.9,765.2 704.6,762.3 701.4,759.5 698.2,756.7 694.9,753.9 691.7,751.0 688.4,748.2 685.2,745.4 682.0,742.6 680.0,739.7 680.9,736.9 681.8,734.1 682.7,731.3 683.7,728.4 684.6,725.6 685.5,722.8 686.4,719.9 687.4,717.1 688.3,714.3 689.2,711.5 691.4,708.6 699.3,705.8 707.3,703.0 715.3,700.2 723.3,697.3 731.2,694.5 739.2,691.7 747.2,688.9 755.1,686.0 763.1,683.2 764.3,683.2 765.1,686.0 765.9,688.9 766.6,691.7 767.4,694.5 768.2,697.3 769.0,700.2 769.8,703.0 770.5,705.8 771.3,708.6 772.1,711.5 772.9,714.3 773.7,717.1 774.4,719.9 774.6,722.8 772.2,725.6 769.8,728.4 767.3,731.3 764.8,734.1 762.2,736.9 759.6,739.7 756.9,742.6 754.2,745.4 751.4,748.2 748.6,751.0 745.7,753.9 742.8,756.7 739.8,759.5 736.7,762.3 733.6,765.2 730.4,768.0 727.2,770.8 723.9,773.7" fill="url(#g36)" stroke="#fbfcfb" stroke-width="1.1" stroke-linejoin="round"/>
<polygon points="870.4,400.5 861.3,397.7 852.3,394.9 843.3,392.1 834.3,389.2 826.4,386.4 826.1,383.6 825.8,380.7 825.5,377.9 825.2,375.1 824.9,372.3 824.6,369.4 824.3,366.6 824.0,363.8 823.7,361.0 823.4,358.1 823.1,355.3 822.8,352.5 822.5,349.7 822.3,346.8 822.0,344.0 821.7,341.2 821.4,338.3 821.1,335.5 820.8,332.7 820.5,329.9 820.2,327.0 819.9,324.2 819.6,321.4 819.3,318.6 819.0,315.7 818.7,312.9 818.4,310.1 818.1,307.3 817.8,304.4 817.5,301.6 817.2,298.8 816.9,295.9 816.6,293.1 816.3,290.3 816.0,287.5 815.8,284.6 815.5,281.8 815.2,279.0 814.9,276.2 814.6,273.3 814.3,270.5 814.0,267.7 813.7,264.9 813.4,262.0 813.1,259.2 812.8,256.4 812.5,253.5 812.2,250.7 811.9,247.9 811.6,245.1 811.3,242.2 811.0,239.4 812.2,236.6 816.4,236.6 818.0,239.4 819.6,242.2 821.2,245.1 822.7,247.9 824.3,250.7 825.7,253.5 827.2,256.4 828.6,259.2 830.1,262.0 831.4,264.9 832.8,267.7 834.1,270.5 835.4,273.3 836.7,276.2 838.0,279.0 839.2,281.8 840.4,284.6 841.6,287.5 842.8,290.3 843.9,293.1 845.0,295.9 846.1,298.8 847.2,301.6 848.2,304.4 849.2,307.3 850.2,310.1 851.2,312.9 852.2,315.7 853.1,318.6 854.0,321.4 854.9,324.2 855.8,327.0 856.6,329.9 857.4,332.7 858.3,335.5 859.0,338.3 859.8,341.2 860.5,344.0 861.3,346.8 862.0,349.7 862.6,352.5 863.3,355.3 863.9,358.1 864.5,361.0 865.1,363.8 865.7,366.6 866.3,369.4 866.8,372.3 867.3,375.1 867.8,377.9 868.3,380.7 868.8,383.6 869.2,386.4 869.6,389.2 870.0,392.1 870.4,394.9 870.8,397.7 871.1,400.5" fill="url(#g37)" stroke="#fbfcfb" stroke-width="1.1" stroke-linejoin="round"/>
<polygon points="774.4,719.9 773.7,717.1 772.9,714.3 772.1,711.5 771.3,708.6 770.5,705.8 769.8,703.0 769.0,700.2 768.2,697.3 767.4,694.5 766.6,691.7 765.9,688.9 765.1,686.0 764.3,683.2 765.4,680.4 766.8,677.5 768.2,674.7 769.6,671.9 771.1,669.1 772.5,666.2 773.9,663.4 775.3,660.6 776.7,657.8 778.1,654.9 779.5,652.1 780.9,649.3 782.3,646.5 783.7,643.6 785.1,640.8 786.6,638.0 788.0,635.1 789.4,632.3 790.8,629.5 792.2,626.7 793.6,623.8 795.0,621.0 796.4,618.2 798.9,615.4 802.2,612.5 805.6,609.7 808.9,606.9 812.3,604.1 815.6,601.2 818.9,598.4 822.3,595.6 825.6,592.7 829.0,589.9 832.3,587.1 835.6,584.3 839.0,581.4 842.3,578.6 845.6,575.8 849.0,573.0 855.7,570.1 856.6,570.1 855.8,573.0 854.9,575.8 854.0,578.6 853.1,581.4 852.2,584.3 851.2,587.1 850.2,589.9 849.2,592.7 848.2,595.6 847.2,598.4 846.1,601.2 845.0,604.1 843.9,606.9 842.8,609.7 841.6,612.5 840.4,615.4 839.2,618.2 838.0,621.0 836.7,623.8 835.4,626.7 834.1,629.5 832.8,632.3 831.4,635.1 830.1,638.0 828.6,640.8 827.2,643.6 825.7,646.5 824.3,649.3 822.7,652.1 821.2,654.9 819.6,657.8 818.0,660.6 816.4,663.4 814.7,666.2 813.0,669.1 811.3,671.9 809.6,674.7 807.8,677.5 806.0,680.4 804.1,683.2 802.2,686.0 800.3,688.9 798.4,691.7 796.4,694.5 794.4,697.3 792.3,700.2 790.3,703.0 788.1,705.8 786.0,708.6 783.8,711.5 781.5,714.3 779.3,717.1 777.0,719.9" fill="url(#g38)" stroke="#fbfcfb" stroke-width="1.1" stroke-linejoin="round"/>
<polygon points="628.4,833.0 628.5,830.2 628.6,827.4 628.7,824.5 628.8,821.7 628.9,818.9 628.9,816.1 629.0,813.2 629.1,810.4 629.2,807.6 629.3,804.7 629.4,801.9 629.5,799.1 629.6,796.3 629.6,793.4 629.7,790.6 629.8,787.8 629.9,785.0 630.0,782.1 630.1,779.3 630.2,776.5 630.3,773.7 630.3,770.8 630.4,768.0 633.2,765.2 638.5,762.3 643.9,759.5 649.2,756.7 654.5,753.9 659.9,751.0 665.2,748.2 670.6,745.4 675.9,742.6 682.0,742.6 685.2,745.4 688.4,748.2 691.7,751.0 694.9,753.9 698.2,756.7 701.4,759.5 704.6,762.3 707.9,765.2 711.1,768.0 714.3,770.8 717.6,773.7 720.5,776.5 717.1,779.3 713.6,782.1 710.0,785.0 706.3,787.8 702.5,790.6 698.6,793.4 694.7,796.3 690.6,799.1 686.5,801.9 682.2,804.7 677.9,807.6 673.4,810.4 668.7,813.2 664.0,816.1 659.1,818.9 654.0,821.7 648.7,824.5 643.3,827.4 637.7,830.2 631.9,833.0" fill="url(#g39)" stroke="#fbfcfb" stroke-width="1.1" stroke-linejoin="round"/>
<circle cx="450.0" cy="450.0" r="424.0" fill="url(#lit)"/>
<circle cx="450.0" cy="450.0" r="424.0" fill="url(#rim)"/>
<g text-anchor="middle" fill="#16180f" style="text-shadow:0 1px 2px rgba(0,0,0,.45)">
<text x="180.7" y="457.2" font-size="23.7" font-weight="700">RAF Fairford security</text>
<text x="170.2" y="483.7" font-size="23.7" font-weight="700">incident</text>
<text x="170.2" y="509.0" font-size="15.6" font-weight="600" font-family="monospace" opacity="0.92">-0.1</text>
</g>
<g text-anchor="middle" fill="#fbf9f0" style="text-shadow:0 1px 2px rgba(0,0,0,.45)">
<text x="261.3" y="720.8" font-size="19.1" font-weight="700">Death row inmate Christa</text>
<text x="266.3" y="742.2" font-size="19.1" font-weight="700">Pike</text>
<text x="266.3" y="762.7" font-size="12.6" font-weight="600" font-family="monospace" opacity="0.92">-0.4</text>
</g>
<g text-anchor="middle" fill="#16180f" style="text-shadow:0 1px 2px rgba(0,0,0,.45)">
<text x="515.0" y="144.2" font-size="19.1" font-weight="700">Labour debate on</text>
<text x="515.0" y="165.5" font-size="19.1" font-weight="700">rejoining EU</text>
<text x="515.0" y="185.9" font-size="12.6" font-weight="600" font-family="monospace" opacity="0.92">+0.0</text>
</g>
<g text-anchor="middle" fill="#16180f" style="text-shadow:0 1px 2px rgba(0,0,0,.45)">
<text x="582.9" y="631.1" font-size="18.1" font-weight="700">Earl Spencer Diana book</text>
<text x="582.9" y="651.4" font-size="18.1" font-weight="700">theft</text>
<text x="582.9" y="670.7" font-size="11.9" font-weight="600" font-family="monospace" opacity="0.92">+0.1</text>
</g>
<g text-anchor="middle" fill="#fbf9f0" style="text-shadow:0 1px 2px rgba(0,0,0,.45)">
<text x="249.3" y="309.1" font-size="17.8" font-weight="700">FlyDubai cockpit</text>
<text x="249.3" y="329.0" font-size="17.8" font-weight="700">brawl diversion</text>
<text x="249.3" y="348.0" font-size="11.7" font-weight="600" font-family="monospace" opacity="0.92">-1.5</text>
</g>
<g text-anchor="middle" fill="#16180f" style="text-shadow:0 1px 2px rgba(0,0,0,.45)">
<text x="679.0" y="490.9" font-size="16.6" font-weight="700">Burnham Labour</text>
<text x="679.0" y="509.5" font-size="16.6" font-weight="700">conference speech</text>
<text x="679.0" y="527.3" font-size="11.0" font-weight="600" font-family="monospace" opacity="0.92">+0.0</text>
</g>
<g text-anchor="middle" fill="#16180f" style="text-shadow:0 1px 2px rgba(0,0,0,.45)">
<text x="520.7" y="478.7" font-size="17.8" font-weight="700">Putin refuses to</text>
<text x="520.7" y="498.6" font-size="17.8" font-weight="700">end Ukraine war</text>
<text x="520.7" y="517.7" font-size="11.8" font-weight="600" font-family="monospace" opacity="0.92">+0.6</text>
</g>
<g text-anchor="middle" fill="#fbf9f0" style="text-shadow:0 1px 2px rgba(0,0,0,.45)">
<text x="360.0" y="599.7" font-size="17.1" font-weight="700">Putin illness and</text>
<text x="362.4" y="618.8" font-size="17.1" font-weight="700">assassination</text>
<text x="362.4" y="637.9" font-size="17.1" font-weight="700">reports</text>
<text x="362.4" y="656.2" font-size="11.3" font-weight="600" font-family="monospace" opacity="0.92">-1.3</text>
</g>
<g text-anchor="middle" fill="#16180f" style="text-shadow:0 1px 2px rgba(0,0,0,.45)">
<text x="339.8" y="213.6" font-size="17.1" font-weight="700">Conservative</text>
<text x="339.8" y="232.7" font-size="17.1" font-weight="700">Party conference</text>
<text x="339.8" y="250.9" font-size="11.3" font-weight="600" font-family="monospace" opacity="0.92">+0.0</text>
</g>
<g text-anchor="middle" fill="#fbf9f0" style="text-shadow:0 1px 2px rgba(0,0,0,.45)">
<text x="469.8" y="277.2" font-size="17.3" font-weight="700">Green Party</text>
<text x="469.8" y="296.6" font-size="17.3" font-weight="700">antisemitism</text>
<text x="469.8" y="315.9" font-size="17.3" font-weight="700">dispute</text>
<text x="469.8" y="334.5" font-size="11.4" font-weight="600" font-family="monospace" opacity="0.92">-0.8</text>
</g>
<g text-anchor="middle" fill="#16180f" style="text-shadow:0 1px 2px rgba(0,0,0,.45)">
<text x="447.2" y="716.6" font-size="17.2" font-weight="700">Late September</text>
<text x="447.2" y="735.9" font-size="17.2" font-weight="700">warm weather</text>
<text x="447.2" y="754.3" font-size="11.4" font-weight="600" font-family="monospace" opacity="0.92">+0.3</text>
</g>
<g text-anchor="middle" fill="#16180f" style="text-shadow:0 1px 2px rgba(0,0,0,.45)">
<text x="724.2" y="352.0" font-size="16.3" font-weight="700">Ranulph</text>
<text x="724.2" y="370.3" font-size="16.3" font-weight="700">Fiennes care</text>
<text x="724.2" y="388.5" font-size="16.3" font-weight="700">inquiry calls</text>
<text x="724.2" y="406.0" font-size="10.8" font-weight="600" font-family="monospace" opacity="0.92">+0.8</text>
</g>
<g text-anchor="middle" fill="#16180f" style="text-shadow:0 1px 2px rgba(0,0,0,.45)">
<text x="217.0" y="163.4" font-size="15.5" font-weight="700">Man City</text>
<text x="215.4" y="180.8" font-size="15.5" font-weight="700">financial</text>
<text x="215.4" y="198.2" font-size="15.5" font-weight="700">breaches</text>
<text x="215.4" y="215.6" font-size="15.5" font-weight="700">hearing</text>
<text x="215.4" y="232.3" font-size="10.3" font-weight="600" font-family="monospace" opacity="0.92">+0.6</text>
</g>
<g text-anchor="middle" fill="#fbf9f0" style="text-shadow:0 1px 2px rgba(0,0,0,.45)">
<text x="373.7" y="475.7" font-size="16.8" font-weight="700">Trump US</text>
<text x="373.7" y="494.5" font-size="16.8" font-weight="700">diesel export</text>
<text x="373.7" y="513.4" font-size="16.8" font-weight="700">ban</text>
<text x="373.7" y="531.4" font-size="11.1" font-weight="600" font-family="monospace" opacity="0.92">-0.7</text>
</g>
<g text-anchor="middle" fill="#fbf9f0" style="text-shadow:0 1px 2px rgba(0,0,0,.45)">
<text x="582.9" y="341.7" font-size="15.5" font-weight="700">Early prison</text>
<text x="582.9" y="359.1" font-size="15.5" font-weight="700">release</text>
<text x="581.1" y="376.5" font-size="15.5" font-weight="700">domestic abusers</text>
<text x="582.9" y="393.2" font-size="10.3" font-weight="600" font-family="monospace" opacity="0.92">-1.2</text>
</g>
<g text-anchor="middle" fill="#16180f" style="text-shadow:0 1px 2px rgba(0,0,0,.45)">
<text x="339.8" y="81.2" font-size="15.9" font-weight="700">Burnham</text>
<text x="339.8" y="99.0" font-size="15.9" font-weight="700">comments on</text>
<text x="339.8" y="116.8" font-size="15.9" font-weight="700">Man City</text>
<text x="339.8" y="133.7" font-size="10.5" font-weight="600" font-family="monospace" opacity="0.92">+0.1</text>
</g>
<g text-anchor="middle" fill="#fbf9f0" style="text-shadow:0 1px 2px rgba(0,0,0,.45)">
<text x="777.9" y="548.3" font-size="15.3" font-weight="700">French</text>
<text x="775.1" y="565.4" font-size="15.3" font-weight="700">student</text>
<text x="775.1" y="582.5" font-size="15.3" font-weight="700">protests and</text>
<text x="775.1" y="599.7" font-size="15.3" font-weight="700">clashes</text>
<text x="775.1" y="616.0" font-size="10.1" font-weight="600" font-family="monospace" opacity="0.92">-1.3</text>
</g>
<g text-anchor="middle" fill="#fbf9f0" style="text-shadow:0 1px 2px rgba(0,0,0,.45)">
<text x="724.2" y="247.0" font-size="14.4" font-weight="700">Indian</text>
<text x="724.2" y="263.2" font-size="14.4" font-weight="700">university rape</text>
<text x="724.2" y="279.4" font-size="14.4" font-weight="700">protests</text>
<text x="724.2" y="294.9" font-size="9.5" font-weight="600" font-family="monospace" opacity="0.92">-0.7</text>
</g>
<g text-anchor="middle" fill="#fbf9f0" style="text-shadow:0 1px 2px rgba(0,0,0,.45)">
<text x="645.0" y="99.1" font-size="15.2" font-weight="700">Burnham</text>
<text x="645.0" y="116.1" font-size="15.2" font-weight="700">voting reform</text>
<text x="645.0" y="133.1" font-size="15.2" font-weight="700">pledge</text>
<text x="645.0" y="149.3" font-size="10.0" font-weight="600" font-family="monospace" opacity="0.92">-0.4</text>
</g>
<g text-anchor="middle" fill="#fbf9f0" style="text-shadow:0 1px 2px rgba(0,0,0,.45)">
<text x="377.4" y="808.7" font-size="15.1" font-weight="700">Farage border</text>
<text x="373.7" y="825.6" font-size="15.1" font-weight="700">control remarks</text>
<text x="373.7" y="841.7" font-size="10.0" font-weight="600" font-family="monospace" opacity="0.92">-0.6</text>
</g>
<g text-anchor="middle" fill="#16180f" style="text-shadow:0 1px 2px rgba(0,0,0,.45)">
<text x="577.2" y="777.2" font-size="15.4" font-weight="700">Labour</text>
<text x="577.2" y="794.4" font-size="15.4" font-weight="700">spending</text>
<text x="577.2" y="811.7" font-size="15.4" font-weight="700">warnings</text>
<text x="577.2" y="828.2" font-size="10.2" font-weight="600" font-family="monospace" opacity="0.92">-0.2</text>
</g>
<g text-anchor="middle" fill="#fbf9f0" style="text-shadow:0 1px 2px rgba(0,0,0,.45)">
<text x="138.9" y="193.3" font-size="11.7" font-weight="700">Celebrity</text>
<text x="125.9" y="206.4" font-size="11.7" font-weight="700">Traitors</text>
<text x="119.3" y="219.5" font-size="11.7" font-weight="700">and</text>
<text x="118.9" y="232.6" font-size="11.7" font-weight="700">licence</text>
<text x="119.3" y="245.6" font-size="11.7" font-weight="700">fee</text>
</g>
<g text-anchor="middle" fill="#fbf9f0" style="text-shadow:0 1px 2px rgba(0,0,0,.45)">
<text x="430.2" y="46.2" font-size="14.1" font-weight="700">Brazilian presidential</text>
<text x="430.2" y="62.0" font-size="14.1" font-weight="700">election</text>
<text x="430.2" y="77.1" font-size="9.3" font-weight="600" font-family="monospace" opacity="0.92">-1.1</text>
</g>
<g text-anchor="middle" fill="#16180f" style="text-shadow:0 1px 2px rgba(0,0,0,.45)">
<text x="486.7" y="832.0" font-size="14.1" font-weight="700">National</text>
<text x="486.7" y="847.8" font-size="14.1" font-weight="700">Lottery draw results</text>
<text x="486.7" y="862.9" font-size="9.3" font-weight="600" font-family="monospace" opacity="0.92">+0.2</text>
</g>
<g text-anchor="middle" fill="#fbf9f0" style="text-shadow:0 1px 2px rgba(0,0,0,.45)">
<text x="84.8" y="579.0" font-size="14.0" font-weight="700">OpenAI</text>
<text x="85.4" y="594.7" font-size="14.0" font-weight="700">agent</text>
<text x="86.3" y="610.4" font-size="14.0" font-weight="700">Medicare</text>
<text x="85.4" y="626.0" font-size="14.0" font-weight="700">breach</text>
<text x="85.4" y="641.0" font-size="9.2" font-weight="600" font-family="monospace" opacity="0.92">-1.7</text>
</g>
<g text-anchor="middle" fill="#16180f" style="text-shadow:0 1px 2px rgba(0,0,0,.45)">
<text x="633.7" y="278.3" font-size="12.2" font-weight="700">Newborn</text>
<text x="633.7" y="292.0" font-size="12.2" font-weight="700">baby shoreline</text>
<text x="633.7" y="305.6" font-size="12.2" font-weight="700">death</text>
<text x="633.7" y="318.7" font-size="8.1" font-weight="600" font-family="monospace" opacity="0.92">+0.6</text>
</g>
<g text-anchor="middle" fill="#16180f" style="text-shadow:0 1px 2px rgba(0,0,0,.45)">
<text x="837.3" y="410.0" font-size="10.7" font-weight="700">Cornell</text>
<text x="837.3" y="422.0" font-size="10.7" font-weight="700">fraternity</text>
<text x="837.3" y="434.0" font-size="10.7" font-weight="700">rape</text>
<text x="837.3" y="446.0" font-size="10.7" font-weight="700">investigation</text>
<text x="837.3" y="457.4" font-size="7.1" font-weight="600" font-family="monospace" opacity="0.92">+0.1</text>
</g>
<g text-anchor="middle" fill="#fbf9f0" style="text-shadow:0 1px 2px rgba(0,0,0,.45)">
<text x="404.6" y="385.9" font-size="12.1" font-weight="700">Widdecombe</text>
<text x="402.0" y="399.4" font-size="12.1" font-weight="700">suspect terror</text>
<text x="401.9" y="413.0" font-size="12.1" font-weight="700">charges</text>
<text x="401.9" y="425.9" font-size="8.0" font-weight="600" font-family="monospace" opacity="0.92">-0.4</text>
</g>
<g text-anchor="middle" fill="#fbf9f0" style="text-shadow:0 1px 2px rgba(0,0,0,.45)">
<text x="792.4" y="302.6" font-size="10.9" font-weight="700">Burnham</text>
<text x="792.0" y="314.9" font-size="10.9" font-weight="700">tax plan</text>
<text x="792.0" y="327.1" font-size="10.9" font-weight="700">for care</text>
<text x="792.0" y="338.8" font-size="7.2" font-weight="600" font-family="monospace" opacity="0.92">-0.5</text>
</g>
<g text-anchor="middle" fill="#16180f" style="text-shadow:0 1px 2px rgba(0,0,0,.45)">
<text x="653.4" y="174.9" font-size="11.9" font-weight="700">Manchester</text>
<text x="650.7" y="188.2" font-size="11.9" font-weight="700">Jewish</text>
<text x="650.7" y="201.6" font-size="11.9" font-weight="700">community</text>
<text x="650.7" y="214.9" font-size="11.9" font-weight="700">terror</text>
<text x="650.7" y="228.3" font-size="11.9" font-weight="700">charges</text>
<text x="650.7" y="241.0" font-size="7.9" font-weight="600" font-family="monospace" opacity="0.92">-0.2</text>
</g>
<g text-anchor="middle" fill="#16180f" style="text-shadow:0 1px 2px rgba(0,0,0,.45)">
<text x="726.1" y="149.6" font-size="13.9" font-weight="700">Spain</text>
<text x="734.8" y="165.1" font-size="13.9" font-weight="700">housing</text>
<text x="735.5" y="180.7" font-size="13.9" font-weight="700">vote</text>
<text x="735.5" y="196.2" font-size="13.9" font-weight="700">defeat</text>
<text x="743.2" y="211.1" font-size="9.2" font-weight="600" font-family="monospace" opacity="0.92">+0.3</text>
</g>
<g text-anchor="middle" fill="#fbf9f0" style="text-shadow:0 1px 2px rgba(0,0,0,.45)">
<text x="243.7" y="103.9" font-size="11.5" font-weight="700">Rayner</text>
<text x="243.7" y="116.9" font-size="11.5" font-weight="700">opposes visa</text>
<text x="243.7" y="129.8" font-size="11.5" font-weight="700">rule changes</text>
<text x="243.7" y="142.1" font-size="7.6" font-weight="600" font-family="monospace" opacity="0.92">+1.0</text>
</g>
<g text-anchor="middle" fill="#fbf9f0" style="text-shadow:0 1px 2px rgba(0,0,0,.45)">
<text x="722.9" y="657.0" font-size="13.9" font-weight="700">Prep school</text>
<text x="719.2" y="672.5" font-size="13.9" font-weight="700">teacher jailed</text>
<text x="718.5" y="687.4" font-size="9.2" font-weight="600" font-family="monospace" opacity="0.92">-2.0</text>
</g>
<g text-anchor="middle" fill="#16180f" style="text-shadow:0 1px 2px rgba(0,0,0,.45)">
<text x="803.3" y="490.4" font-size="10.0" font-weight="700">Trump US</text>
<text x="803.3" y="501.6" font-size="10.0" font-weight="700">weapons</text>
<text x="803.3" y="512.8" font-size="10.0" font-weight="700">offer to Xi</text>
<text x="803.3" y="523.5" font-size="6.6" font-weight="600" font-family="monospace" opacity="0.92">-0.3</text>
</g>
<g text-anchor="middle" fill="#fbf9f0" style="text-shadow:0 1px 2px rgba(0,0,0,.45)">
<text x="651.8" y="709.2" font-size="11.2" font-weight="700">Tennessee</text>
<text x="645.0" y="721.8" font-size="11.2" font-weight="700">prison chief</text>
<text x="645.0" y="734.4" font-size="11.2" font-weight="700">resigns</text>
<text x="645.0" y="746.5" font-size="7.4" font-weight="600" font-family="monospace" opacity="0.92">-0.7</text>
</g>
<g text-anchor="middle" fill="#fbf9f0" style="text-shadow:0 1px 2px rgba(0,0,0,.45)">
<text x="724.2" y="719.0" font-size="14.1" font-weight="700">US youth</text>
<text x="724.2" y="734.8" font-size="14.1" font-weight="700">football</text>
<text x="722.0" y="750.6" font-size="14.1" font-weight="700">shootings</text>
</g>
<g text-anchor="middle" fill="#16180f" style="text-shadow:0 1px 2px rgba(0,0,0,.45)">
<text x="844.5" y="352.1" font-size="8.4" font-weight="700">Burnham</text>
<text x="844.7" y="361.6" font-size="8.4" font-weight="700">Heathrow</text>
<text x="845.4" y="371.0" font-size="8.4" font-weight="700">expansion</text>
<text x="848.6" y="380.4" font-size="8.4" font-weight="700">stance</text>
<text x="848.6" y="389.4" font-size="5.5" font-weight="600" font-family="monospace" opacity="0.92">+0.6</text>
</g>
<g text-anchor="middle" fill="#16180f" style="text-shadow:0 1px 2px rgba(0,0,0,.45)">
<text x="825.4" y="610.2" font-size="9.5" font-weight="700">Spanish</text>
<text x="814.6" y="620.8" font-size="9.5" font-weight="700">storms</text>
<text x="814.6" y="631.4" font-size="9.5" font-weight="700">and</text>
<text x="812.4" y="642.0" font-size="9.5" font-weight="700">flooding</text>
<text x="814.6" y="652.1" font-size="6.2" font-weight="600" font-family="monospace" opacity="0.92">+0.0</text>
</g>
<g text-anchor="middle" fill="#16180f" style="text-shadow:0 1px 2px rgba(0,0,0,.45)">
<text x="673.3" y="769.4" font-size="7.4" font-weight="700">Search for missing</text>
<text x="673.3" y="777.7" font-size="7.4" font-weight="700">Bermuda plane</text>
<text x="673.3" y="785.5" font-size="4.9" font-weight="600" font-family="monospace" opacity="0.92">+0.0</text>
</g>
</g>
<text x="26" y="26" font-size="13" fill="#4b5654" font-weight="600">Front Page Monitor &#183; 40 stories, 1307 articles</text><text x="26" y="43" font-size="11" fill="#7c8785">2026-10-06 18:48 UTC &#183; last 48h &#183; 38 of 40 scored</text>
</svg>